<?xml version="1.0" encoding="utf-8"?>
<!-- Generator: Adobe Illustrator 16.0.0, SVG Export Plug-In . SVG Version: 6.00 Build 0)  -->
<!DOCTYPE svg PUBLIC "-//W3C//DTD SVG 1.1//EN" "http://www.w3.org/Graphics/SVG/1.1/DTD/svg11.dtd">
<svg version="1.1" id="Layer_1" xmlns="http://www.w3.org/2000/svg" xmlns:xlink="http://www.w3.org/1999/xlink" x="0px" y="0px"
	 width="511.84px" height="508.832px" viewBox="0 0 511.84 508.832" enable-background="new 0 0 511.84 508.832"
	 xml:space="preserve">
<g>
	<path fill="#FFFFFF" d="M25.245,214.949c0-53.475,0-106.95,0-160.424c0.074-0.337,0.17-0.672,0.22-1.013
		c1.918-13.099,9.09-21.978,21.515-26.497c2.375-0.864,4.964-1.135,7.455-1.68c53.475,0,106.95,0,160.424,0
		c0.338,0.073,0.677,0.143,1.015,0.22c2.456,0.564,5.007,0.871,7.35,1.739c12.888,4.776,20.852,16.353,20.856,30.222
		c0.018,51.485,0.015,102.971-0.02,154.456c-0.001,2.28-0.172,4.607-0.646,6.832c-3.213,15.069-15.975,25.339-31.376,25.343
		c-30.16,0.007-60.319,0.002-90.479,0.002c-21.52,0-43.041,0.022-64.561-0.008c-14.199-0.02-26.595-9.348-30.479-22.928
		C25.934,219.171,25.661,217.04,25.245,214.949z M141.093,179.183c1.548-0.1,4.155-0.196,6.747-0.448
		c6.977-0.678,13.689-2.401,20.075-5.323c2.951-1.35,4.231-4.81,2.92-7.772c-1.41-3.186-4.906-4.329-8.51-2.721
		c-8.213,3.665-16.771,5.373-25.771,4.624c-5.793-0.482-11.206-2.139-16.102-5.325c-15.538-10.111-17.067-28.414-11.649-40.399
		c5.823-12.884,16.469-19.004,30.381-19.618c7.979-0.352,15.583,1.454,22.947,4.459c1.065,0.435,2.366,0.651,3.494,0.498
		c2.629-0.359,4.458-2.49,4.785-5.164c0.27-2.202-1.31-4.911-3.591-5.917c-1.56-0.688-3.183-1.242-4.801-1.786
		c-9.821-3.3-19.846-4.935-30.193-3.324c-14.139,2.202-25.013,9.508-32.527,21.601c-5.796,9.329-7.282,19.663-5.322,30.333
		c2.603,14.167,10.365,24.789,23.222,31.472C124.338,178.083,132.099,179.111,141.093,179.183z"/>
	<path fill="#FFFFFF" d="M463.084,486.527c-55.186,0-110.373,0-165.561,0c-0.254-0.082-0.506-0.162-0.758-0.246
		c-2.787-0.941-5.767-1.523-8.332-2.885c-11.345-6.021-17.328-15.563-17.498-28.443c-0.168-12.527-0.037-25.059-0.037-37.59
		c0-39.029,0.009-78.06-0.01-117.09c-0.002-6.857,1.764-13.172,5.784-18.734c6.574-9.099,15.585-13.539,26.783-13.541
		c51.25-0.008,102.498-0.004,153.748-0.002c0.582,0,1.166,0.004,1.75,0.026c7.277,0.29,13.801,2.647,19.354,7.371
		c7.688,6.537,11.429,14.923,11.427,25.022c-0.017,47.592-0.009,95.184-0.009,142.773c0,4.281,0.169,8.57-0.051,12.84
		c-0.66,12.869-6.908,22.184-18.44,27.834C468.695,485.109,465.811,485.658,463.084,486.527z M367.633,382.726
		c0.496,0,0.918,0,1.338,0c9.263-0.016,18.523-0.025,27.783-0.055c0.773-0.002,1.574-0.014,2.312-0.213
		c2.739-0.742,4.381-3.322,4.002-6.168c-0.354-2.674-2.703-4.672-5.552-4.674c-9.496-0.007-18.989,0.002-28.485,0.006
		c-0.453,0-0.906,0-1.363,0c0-8.877,0-17.607,0-26.406c0.547,0,1.01,0,1.475,0c9.767,0,19.533,0.02,29.302-0.012
		c3.438-0.013,5.862-2.43,5.828-5.656c-0.033-3.147-2.5-5.452-5.9-5.452c-12.881-0.005-25.76,0.003-38.641,0.017
		c-3.046,0.004-4.562,1.508-4.562,4.483c-0.004,25.879-0.004,51.757,0,77.634c0,2.943,1.512,4.461,4.445,4.469
		c4.356,0.01,8.717,0.004,13.074,0.006c9.028,0.006,18.057,0.021,27.084,0.016c2.788-0.002,5.01-1.705,5.594-4.217
		c0.842-3.625-1.773-6.844-5.623-6.848c-10.234-0.012-20.469,0.004-30.703,0.008c-0.453,0-0.906,0-1.406,0
		C367.633,400.654,367.633,391.792,367.633,382.726z"/>
	<path fill="#FFFFFF" d="M25.245,457.57c0-53.475,0-106.949,0-160.423c0.072-0.3,0.179-0.595,0.212-0.897
		c0.581-5.328,2.354-10.233,5.474-14.58c6.604-9.201,15.673-13.68,26.957-13.682c51.178-0.012,102.356-0.005,153.535-0.004
		c0.623,0,1.246,0.003,1.868,0.029c8.012,0.34,15.039,3.139,20.848,8.681c6.771,6.461,9.967,14.452,9.962,23.821
		c-0.03,51.257-0.014,102.514-0.015,153.77c0,0.506-0.006,1.012-0.017,1.518c-0.243,12.756-8.28,24.285-20.184,28.82
		c-2.091,0.797-4.302,1.279-6.458,1.906c-55.188,0-110.375,0-165.562,0c-0.212-0.078-0.419-0.186-0.638-0.23
		c-12.4-2.717-20.667-10.061-24.602-22.145C25.935,462.033,25.693,459.769,25.245,457.57z M99.596,377.283
		c0,12.918-0.005,25.836,0.003,38.754c0.002,3.146,1.527,4.654,4.656,4.652c9.183-0.002,18.365,0.01,27.547-0.021
		c6.595-0.02,13.088-0.514,19.357-2.963c8.004-3.129,14.711-7.902,19.776-14.836c7.523-10.302,10.019-21.849,7.436-34.271
		c-2.815-13.539-10.319-23.76-22.949-29.817c-6.409-3.073-13.356-4.233-20.379-4.426c-10.343-0.28-20.696-0.187-31.044-0.233
		c-1.449-0.006-2.915,0.291-3.642,1.656c-0.485,0.911-0.727,2.061-0.73,3.104C99.579,351.68,99.596,364.481,99.596,377.283z"/>
	<path fill="#FFFFFF" d="M300.091,25.335c53.476,0,106.95,0,160.424,0c2.353,0.49,4.769,0.78,7.045,1.504
		c13.494,4.29,22.162,16.375,22.164,30.808c0.011,51.405,0.009,102.811-0.01,154.215c0,1.746-0.059,3.513-0.326,5.234
		c-2.434,15.648-15.602,27.034-31.366,27.042c-51.796,0.027-103.589,0.027-155.383-0.037c-2.767-0.003-5.606-0.402-8.285-1.106
		c-13.918-3.659-23.438-16.178-23.445-30.757c-0.023-51.678-0.01-103.355,0-155.033c0-1.241,0.094-2.487,0.213-3.725
		c1.159-11.974,9.99-22.92,21.486-26.483C295.041,26.245,297.594,25.879,300.091,25.335z M380.045,90.01
		c-3.775,0.471-7.613,0.65-11.313,1.463c-14.642,3.216-25.232,11.667-31.438,25.334c-3.303,7.275-4.049,15.039-3.365,22.954
		c0.648,7.518,2.968,14.465,7.42,20.586c7.429,10.209,17.375,16.376,29.914,18.235c9.17,1.36,18.201,0.719,26.892-2.532
		c16.174-6.05,28.932-20.65,28.776-41.189c-0.104-14.166-5.483-25.743-16.551-34.612C401.533,93.157,391.26,90.317,380.045,90.01z"
		/>
	<path fill="#FFFFFF" d="M112.104,409.664c0-21.551,0-42.929,0-64.375c0.318-0.026,0.581-0.07,0.842-0.067
		c7.933,0.085,15.872,0.012,23.797,0.301c12.599,0.457,27.701,9.535,29.465,27.313c0.995,10.033-1.249,19.168-8.27,26.77
		c-5.111,5.533-11.598,8.346-18.929,9.379c-7.466,1.051-14.987,0.592-22.488,0.68C115.089,409.677,113.657,409.664,112.104,409.664z
		"/>
	<path fill="#FFFFFF" d="M414.105,134.789c-0.082,14.445-8.25,26.503-21.861,30.992c-12.262,4.044-24.039,2.654-34.303-5.773
		c-8.461-6.947-11.918-16.211-11.31-27.007c0.701-12.403,6.599-21.607,17.629-27.331c6.476-3.358,13.494-4.073,20.668-3.304
		c10.498,1.126,18.533,6.342,24.351,15.041C412.582,122.348,414.143,128.255,414.105,134.789z"/>
</g>
</svg>
