<?xml version="1.0" encoding="utf-8"?>
<!-- Generator: Adobe Illustrator 16.0.0, SVG Export Plug-In . SVG Version: 6.00 Build 0)  -->
<!DOCTYPE svg PUBLIC "-//W3C//DTD SVG 1.1//EN" "http://www.w3.org/Graphics/SVG/1.1/DTD/svg11.dtd">
<svg version="1.1" id="Layer_1" xmlns="http://www.w3.org/2000/svg" xmlns:xlink="http://www.w3.org/1999/xlink" x="0px" y="0px"
	 width="1092px" height="160px" viewBox="-363.5 -50 1092 160" enable-background="new -363.5 -50 1092 160" xml:space="preserve">
<g>
	<path fill="#FFFFFF" d="M-28.16-7.569v19.956h-24.619v80.261h-20.205V12.386h-24.679V-7.569H-28.16z"/>
	<path fill="#FFFFFF" d="M43.261-7.818v20.081H2.977v20.206h30.214v20.079H2.977v20.204h40.284v20.018h-60.428V-7.818H43.261z"/>
	<path fill="#FFFFFF" d="M101.321,93.333c-14.009-0.044-25.967-4.975-35.872-14.8c-9.947-9.945-14.921-21.922-14.921-35.933
		c0-13.966,4.972-25.966,14.921-35.996c9.989-9.987,21.946-14.984,35.872-14.984l-0.063,0.25c15.476,0,27.777,6.873,36.059,14.857
		l-14.362,14.361c-6.051-5.969-13.243-8.952-21.574-8.952c-8.454,0-15.624,2.986-21.51,8.952
		c-5.968,6.049-8.952,13.242-8.952,21.571c0,8.415,2.986,15.605,8.952,21.571c5.927,5.929,13.097,8.894,21.51,8.894
		c8.456,0,15.668-2.988,21.637-8.954l14.36,14.36C129.153,86.685,116.953,93.333,101.321,93.333z"/>
	<path fill="#FFFFFF" d="M168.452-7.569v40.101h33.509V-7.569h20.082V92.647H201.96V52.485h-33.509v40.164h-20.081V-7.569H168.452z"
		/>
	<path fill="#FFFFFF" d="M285.32-7.879l-21.447,58.937h21.447V12.075h20.081v38.982h10.071v20.081h-10.071v21.511H285.32V71.139
		h-51.661l29.901-79.142L285.32-7.879z"/>
	<path fill="#FFFFFF" d="M347.169-7.569v40.101h33.51V-7.569h20.078V92.647h-20.078V52.485h-33.51v40.164h-20.083V-7.569H347.169z"
		/>
	<path fill="#FFFFFF" d="M498.541,6.604c9.99,9.989,14.983,21.987,14.983,35.996c0,14.051-4.993,26.028-14.983,35.933
		c-9.946,9.865-21.922,14.8-35.933,14.8c-14.051-0.044-26.028-4.975-35.935-14.8c-9.946-9.945-14.92-21.922-14.92-35.933
		c0-13.966,4.974-25.966,14.92-35.996c9.987-9.987,21.965-14.984,35.935-14.984C476.574-8.379,488.553-3.382,498.541,6.604z
		 M441.035,20.904c-5.97,6.05-8.953,13.242-8.953,21.571c0,8.415,2.983,15.605,8.953,21.575c5.926,5.925,13.117,8.89,21.573,8.89
		c8.328,0,15.503-2.965,21.512-8.89c6.01-5.928,9.014-13.119,9.014-21.575c0-8.369-3.004-15.561-9.014-21.571
		c-5.968-5.968-13.141-8.952-21.512-8.952C454.109,11.953,446.919,14.936,441.035,20.904z"/>
	<path fill="#FFFFFF" d="M607.45,6.604c9.989,9.989,14.984,21.987,14.984,35.996c0,14.051-4.995,26.028-14.984,35.933
		c-9.946,9.865-21.925,14.8-35.933,14.8c-14.05-0.044-26.029-4.975-35.935-14.8c-9.946-9.945-14.923-21.922-14.923-35.933
		c0-13.966,4.977-25.966,14.923-35.996c9.985-9.987,21.966-14.984,35.935-14.984C585.484-8.379,597.463-3.382,607.45,6.604z
		 M549.945,20.904c-5.97,6.05-8.953,13.242-8.953,21.571c0,8.415,2.983,15.605,8.953,21.575c5.925,5.925,13.115,8.89,21.572,8.89
		c8.329,0,15.5-2.965,21.509-8.89c6.014-5.928,9.017-13.119,9.017-21.575c0-8.369-3.003-15.561-9.017-21.571
		c-5.965-5.968-13.139-8.952-21.509-8.952C563.02,11.953,555.828,14.936,549.945,20.904z"/>
	<path fill="#FFFFFF" d="M659.975-7.569c15.742,0,28.065,6.254,36.615,14.734c8.954,8.995,13.429,20.815,13.429,35.467
		c0,14.651-4.474,26.433-13.429,35.343c-9.864,9.781-22.068,14.673-36.615,14.673h-26.67V-7.508h26.67V-7.569L659.975-7.569z
		 M659.913,12.386h-6.527v60.18h6.714c18.065,0,29.841-11.991,29.841-30.091C689.94,24.544,677.966,12.386,659.913,12.386z"/>
</g>
<g>
	<polygon fill="#FFFFFF" points="-251.892,51.778 -251.935,51.888 -254.685,51.888 -260.152,51.888 -272.394,51.888 
		-272.394,56.972 -266.105,56.972 -266.105,77.427 -260.956,77.427 -260.956,56.972 -256.021,56.972 -254.685,56.972 
		-254.685,56.945 -253.845,56.945 -259.512,71.945 -246.346,71.945 -246.346,77.427 -241.228,77.427 -241.228,71.945 
		-239.424,71.945 -239.424,77.427 -234.308,77.427 -234.308,71.652 -225.77,71.652 -225.77,77.427 -220.649,77.427 -220.649,60.795 
		-220.649,56.348 -220.649,51.778 -225.788,51.778 -225.788,60.795 -225.77,60.795 -225.77,66.563 -234.308,66.563 -234.308,60.795 
		-234.287,60.795 -234.287,51.778 -239.424,51.778 -239.424,56.348 -239.424,60.795 -239.424,66.828 -241.228,66.828 
		-241.228,56.893 -241.235,56.893 -241.235,51.888 -246.371,51.888 -246.371,60.904 -246.346,60.904 -246.346,66.828 
		-251.811,66.828 -246.411,51.993 -246.371,51.888 -246.375,51.888 -246.346,51.809 	"/>
	<path fill="#FFFFFF" d="M-147.516,33.394c-4.302,0-8.464,0.584-12.421,1.652c-6.728-17.909-24.052-30.663-44.371-30.663
		c-0.061,0-0.118,0.004-0.178,0.004c-1.947-22.024-20.495-39.298-43.1-39.298c-23.902,0-43.279,19.31-43.279,43.132
		c0,0.498,0.023,0.991,0.039,1.485c-0.014,0-0.027,0-0.039,0c-31.815,0-57.605,26.563-57.605,59.33
		c0,8.394,1.702,16.372,4.752,23.61h60.536V62.602l-8.701,8.439l-7.045-7.265l53.194-51.573l0.295,0.302l0.294-0.302l16.597,16.091
		V10.651h14.196v31.402l22.401,21.72l-7.047,7.268l-8.877-8.612v30.219h106.167c1.015-3.845,1.562-7.884,1.562-12.044
		C-100.152,54.528-121.358,33.394-147.516,33.394z"/>
</g>
</svg>
