<?xml version="1.0" encoding="utf-8"?>
<!-- Generator: Adobe Illustrator 16.0.0, SVG Export Plug-In . SVG Version: 6.00 Build 0)  -->
<!DOCTYPE svg PUBLIC "-//W3C//DTD SVG 1.1//EN" "http://www.w3.org/Graphics/SVG/1.1/DTD/svg11.dtd">
<svg version="1.1" xmlns="http://www.w3.org/2000/svg" xmlns:xlink="http://www.w3.org/1999/xlink" x="0px" y="0px" width="200px"
	 height="200px" viewBox="0 0 200 200" enable-background="new 0 0 200 200" xml:space="preserve">
<g id="codecamp" display="none">
	<g display="inline">
		<path fill-rule="evenodd" clip-rule="evenodd" fill="#E65A26" d="M151.014,116.341c-1.082,0.507-2.039,1.009-3.036,1.413
			c-5.238,2.118-10.433,4.355-15.746,6.267c-4.244,1.526-8.603,2.764-12.969,3.91c-3.828,1.004-7.756,1.501-11.732,1.661
			c-3.342,0.134-6.027-1.058-8.319-3.395c-2.318-2.362-4.153-5.071-5.796-7.922c-3.363-5.839-6.001-12.013-8.285-18.335
			c-1.643-4.546-3.195-9.128-4.664-13.733c-1.09-3.42-1.996-6.901-2.955-10.362c-0.549-1.979-1.04-3.976-1.55-5.967
			c-0.06-0.23-0.075-0.473-0.128-0.821c1.178,0.131,2.247,0.265,3.321,0.367c2.276,0.218,4.548,0.485,6.829,0.615
			c4.819,0.274,9.649,0.354,14.464-0.002c3.312-0.245,6.628-0.603,9.901-1.151c3.223-0.539,6.397-1.375,9.587-2.105
			c0.504-0.115,0.674,0.108,0.859,0.507c2.016,4.324,3.983,8.672,6.092,12.952c2.388,4.846,4.658,9.776,7.424,14.405
			c4.57,7.646,9.837,14.819,16.194,21.126C150.65,115.911,150.775,116.07,151.014,116.341z"/>
		<path fill-rule="evenodd" clip-rule="evenodd" fill="#E65A26" d="M48.763,110.517c6.439-6.096,10.687-13.597,14.735-21.225
			c3.279-6.178,6.12-12.562,8.776-19.029c0.094-0.229,0.198-0.452,0.334-0.764c0.116,0.186,0.228,0.297,0.262,0.428
			c0.896,3.501,1.718,7.025,2.695,10.504c1.11,3.958,2.235,7.919,3.575,11.803c1.855,5.38,3.806,10.734,5.924,16.016
			c2.165,5.402,4.75,10.624,8.169,15.362c1.344,1.861,2.975,3.517,4.475,5.266c0.07,0.081,0.14,0.163,0.149,0.375
			c-0.332-0.088-0.665-0.173-0.997-0.263c-3.978-1.07-7.88-2.361-11.612-4.12c-1.103-0.521-2.159-1.14-3.231-1.724
			c-2.711-1.477-4.308-3.865-5.413-6.65c-1.304-3.288-2.289-6.673-2.895-10.153c-0.675-3.873-1.302-7.757-1.812-11.655
			c-0.267-2.036-0.237-4.11-0.343-6.167c-0.014-0.259-0.037-0.517-0.057-0.775c-0.062-0.016-0.123-0.031-0.185-0.047
			c-0.095,0.174-0.244,0.338-0.273,0.522c-0.26,1.653-0.498,3.31-0.742,4.965c-0.364,2.483-0.712,4.969-1.097,7.449
			c-0.33,2.121-0.618,4.254-1.078,6.35c-0.558,2.534-1.176,5.063-1.959,7.533c-0.571,1.799-1.718,2.171-3.909,1.743
			c-2.62-0.511-5.064-1.51-7.46-2.632c-1.842-0.863-3.638-1.824-5.451-2.748C49.146,110.782,48.968,110.647,48.763,110.517z
			 M56.469,105.104c2.786,2.725,5.472,5.355,7.272,8.727c0.074-0.018,0.148-0.036,0.224-0.054
			c1.488-8.382,2.976-16.765,4.464-25.146c-0.058-0.023-0.114-0.048-0.172-0.071c-0.132,0.213-0.285,0.417-0.393,0.642
			c-1.881,3.938-3.777,7.873-6.327,11.437C60.235,102.458,58.922,104.3,56.469,105.104z"/>
	</g>
	<g display="inline">
		<path fill="#E65A26" d="M21.396,96.708c11.043,0,12.598-6.065,12.598-11.51c0-4.354-0.622-8.709-1.244-13.063
			c-0.622-4.355-1.244-8.554-1.244-12.908c0-14.309,9.332-20.375,22.551-20.375h3.266v8.554h-2.799
			c-9.176,0-12.287,4.976-12.287,13.375c0,3.577,0.467,7.31,1.089,11.042c0.622,3.888,1.089,7.621,1.089,11.82
			c0.155,9.954-4.2,14.931-11.198,16.798v0.311c6.999,1.71,11.354,6.998,11.198,16.952c0,4.2-0.467,8.087-1.089,11.82
			c-0.623,3.888-1.089,7.465-1.089,11.198c0,8.709,3.578,13.53,12.287,13.53h2.799v8.554h-3.266
			c-12.908,0-22.551-5.599-22.551-21.307c0-4.199,0.622-8.554,1.244-12.753c0.622-4.199,1.244-8.399,1.244-12.598
			c0-4.821-1.555-11.509-12.598-11.509V96.708z"/>
		<path fill="#E65A26" d="M179.771,104.64c-11.042,0-12.598,6.688-12.598,11.509c0,4.199,0.622,8.399,1.244,12.598
			c0.623,4.199,1.245,8.554,1.245,12.753c0,15.708-9.799,21.307-22.552,21.307h-3.266v-8.554h2.644
			c8.709-0.155,12.442-4.821,12.442-13.53c0-3.733-0.622-7.31-1.089-11.198c-0.622-3.733-1.245-7.621-1.245-11.82
			c0-9.954,4.355-15.242,11.198-16.952v-0.311c-6.843-1.867-11.198-6.844-11.198-16.798c0-4.199,0.623-7.932,1.245-11.82
			c0.467-3.732,1.089-7.465,1.089-11.042c0-8.399-3.266-13.22-12.287-13.375h-2.799v-8.554h3.111
			c13.22,0,22.707,6.065,22.707,20.375c0,4.354-0.622,8.553-1.245,12.908c-0.622,4.354-1.244,8.709-1.244,13.063
			c0,5.444,1.555,11.51,12.598,11.51V104.64z"/>
	</g>
</g>
<g id="training" display="none">
	<g display="inline">
		<g>
			<path fill-rule="evenodd" clip-rule="evenodd" fill="#E65A26" d="M65.065,73.92c-0.09,1.067-0.211,1.877-0.219,2.69
				c-0.234,17.755-0.465,35.51-0.668,53.265c-0.125,10.795-0.184,21.592-0.32,32.385c-0.02,1.613-0.121,3.266-0.508,4.823
				c-0.762,3.086-3.094,4.579-6.267,4.271c-2.915-0.285-4.879-2.297-5.122-5.37c-0.766-9.595-1.473-19.195-2.258-28.788
				c-0.414-5.065-0.934-10.123-1.411-15.182c-0.016-0.207-0.051-0.414-0.074-0.621c-0.117-1.049-0.75-1.583-1.758-1.559
				c-0.993,0.021-1.45,0.633-1.528,1.622c-0.52,6.644-1.137,13.283-1.582,19.933c-0.524,7.818-0.887,15.646-1.356,23.465
				c-0.285,4.796-3.754,7.548-8.166,6.539c-1.645-0.377-2.938-1.331-3.551-2.877c-0.574-1.448-1.148-3.006-1.199-4.534
				c-0.391-11.623-0.653-23.248-0.958-34.873c-0.102-3.875-0.184-7.751-0.34-11.623c-0.023-0.576-0.27-1.258-0.648-1.684
				c-3.153-3.56-4.383-7.726-4.333-12.43c0.105-9.46,0.051-18.923,0.133-28.385c0.027-2.786,0.355-5.569,0.438-8.357
				c0.063-2.188,1.152-3.442,3.149-4.134c5.888-2.037,11.814-3.663,18.144-3.694c6.856-0.035,13.667,0.398,20.453,1.205
				c1.489,0.178,2.946,0.825,4.36,1.403c2.922,1.195,5.786,2.538,8.708,3.729c3.016,1.229,6.032,0.617,9.08-0.051
				c3.661-0.799,7.36-1.42,11.06-2.035c4.665-0.782,8.544,3.649,7.208,8.188c-0.609,2.079-2.125,3.347-4.13,3.798
				c-5.563,1.248-11.166,2.291-16.733,3.52c-4.974,1.1-9.33-0.988-13.807-2.477C68.984,75.454,67.148,74.7,65.065,73.92z"/>
			<path fill-rule="evenodd" clip-rule="evenodd" fill="#E65A26" d="M87.769,83.965c0.023,0.564,0.066,1.049,0.066,1.533
				c0.004,6.669,0,13.336,0.012,20.005c0,0.662,0.055,1.333,0.164,1.987c0.234,1.395,1.102,2.211,2.485,2.442
				c0.609,0.1,1.242,0.137,1.863,0.139c23.465,0.008,46.93,0.012,70.395,0.006c3.012,0,4.141-1.149,4.141-4.181
				c0.004-16.921,0-33.843,0-50.764c0-1.7-0.008-1.709-1.704-1.709c-25.258-0.002-50.516,0.006-75.774-0.027
				c-1.246,0-1.77,0.322-1.594,1.614c0.09,0.654,0.035,1.33,0.02,1.999c-0.063,2.762,0.422,2.119-2.34,2.77
				c-1.086,0.254-2.188,0.424-3.528,0.68c0-1.95-0.066-3.729,0.027-5.499c0.059-1.182-0.277-1.6-1.516-1.573
				c-2.059,0.047-3.356-1.236-3.352-3.065c0.004-1.781,1.336-2.926,3.465-2.928c13.877-0.006,27.759,0.002,41.636-0.01
				c2.125,0,1.824,0.195,1.863-1.887c0.008-0.375-0.004-0.75,0.004-1.125c0.055-2.194,1.2-3.329,3.336-3.313
				c2.071,0.016,3.118,1.115,3.165,3.321c0.071,3.014,0.071,3.012,3.146,3.012c13.17-0.002,26.34-0.006,39.51-0.006
				c0.5,0,1.004-0.016,1.5,0.016c1.684,0.109,2.926,1.262,3.02,2.776c0.098,1.565-1.075,2.928-2.743,3.196
				c-2.165,0.348-2.165,0.348-2.165,2.567c-0.004,16.546,0.004,33.091-0.012,49.639c-0.004,5.188-2.856,9.046-7.626,10.281
				c-0.992,0.256-2.063,0.305-3.098,0.309c-7.751,0.023-15.502,0.012-23.254,0.014c-1.648,0.002-1.652,0.008-1.707,1.646
				c-0.02,0.541,0.008,1.084-0.02,1.624c-0.051,0.867,0.184,1.441,1.078,1.856c1.137,0.527,1.461,1.646,1.391,2.852
				c-0.063,1.116-0.508,1.567-2.407,2.44c0.379,0.506,0.711,1.006,1.102,1.458c8.849,10.306,17.722,20.591,26.532,30.933
				c0.648,0.762,1.079,1.891,1.18,2.893c0.141,1.374-0.977,2.59-2.352,3.042c-1.516,0.495-2.7-0.094-3.665-1.213
				c-4.954-5.743-9.896-11.496-14.838-17.249c-5.516-6.413-11.025-12.83-16.542-19.243c-1.032-1.2-1.793-1.141-2.942,0.197
				c-10.318,12.012-20.64,24.02-30.955,36.037c-0.98,1.141-2.071,1.977-3.672,1.516c-2.637-0.758-3.52-3.528-1.75-5.627
				c2.899-3.442,5.856-6.833,8.791-10.246c6.279-7.3,12.553-14.598,18.824-21.9c0.184-0.213,0.328-0.456,0.551-0.768
				c-1.355-0.418-2.504-0.912-2.489-2.581c0.012-1.273,0.512-2.211,1.629-2.711c0.754-0.336,0.957-0.799,0.906-1.549
				c-0.047-0.748-0.066-1.504,0.004-2.249c0.09-0.99-0.293-1.297-1.273-1.291c-5.794,0.035-11.588,0.016-17.382,0.014
				c-2.25,0-4.501,0.008-6.751,0c-5.692-0.02-10.201-4.423-10.244-10.105c-0.051-6.71-0.004-13.42-0.031-20.13
				c-0.004-0.818,0.211-1.205,1.086-1.277C84.506,84.417,86.065,84.176,87.769,83.965z"/>
			<path fill-rule="evenodd" clip-rule="evenodd" fill="#E65A26" d="M45.746,53.405c-6.872,0.217-13.545-6.347-13.764-13.541
				c-0.215-7.025,6.036-13.602,13.115-13.797c7.728-0.215,14.096,5.769,14.362,13.418C59.686,45.889,53.575,53.507,45.746,53.405z"
				/>
		</g>
		<g>
			<path fill="#E65A26" d="M116.629,78.824l-8.154,4.698l8.154,4.682v5.991L98.09,83.522l18.539-10.672V78.824z"/>
			<path fill="#E65A26" d="M142.238,65.452l-10.783,31.439h-5.364l10.771-31.439H142.238z"/>
			<path fill="#E65A26" d="M161.226,83.522l-18.538,10.673v-5.991l8.153-4.682l-8.153-4.698V72.85L161.226,83.522z"/>
		</g>
	</g>
</g>
<g id="meetup" display="none">
	<path display="inline" fill-rule="evenodd" clip-rule="evenodd" fill="#E65A26" d="M67.798,97.054c-0.001,0-0.003,0-0.005,0
		c0,5.358-0.065,10.719,0.018,16.077c0.1,6.396,2.958,11.357,8.666,14.176c2.357,1.164,2.977,2.557,3.22,4.887
		c0.652,6.265,1.555,12.5,2.343,18.75c0.642,5.091,1.32,10.175,1.872,15.274c0.453,4.178,3.822,7.406,8.029,7.427
		c5.396,0.025,10.792,0.027,16.189-0.002c4.188-0.023,7.611-3.292,7.999-7.46c0.261-2.815,0.619-5.622,0.972-8.429
		c1.177-9.355,2.382-18.708,3.54-28.067c0.096-0.775,0.343-1.162,1.105-1.453c6.295-2.403,10.432-8.15,10.473-14.758
		c0.066-10.869,0.08-21.738-0.003-32.605c-0.057-7.564-5.247-13.854-12.606-15.569c-3.497-0.814-6.606-0.324-9.284,2.346
		c-1.351,1.346-2.952,2.469-4.545,3.536c-3.545,2.375-7.151,2.381-10.656-0.109c-1.782-1.266-3.459-2.676-5.216-3.979
		c-2.348-1.745-5.022-2.469-7.898-2.04c-8.578,1.284-14.169,7.808-14.207,16.489C67.781,86.715,67.798,91.884,67.798,97.054z
		 M61.064,74.916c-0.798,0.592-1.645,1.262-2.532,1.871c-3.527,2.42-6.219,2.415-9.685-0.061c-1.196-0.854-2.323-1.805-3.479-2.715
		c-1.642-1.293-3.537-1.871-5.592-1.783c-6.741,0.289-12.177,5.864-12.221,12.609c-0.056,8.681-0.025,17.362-0.013,26.043
		c0.007,5.177,3.208,9.898,8.054,11.791c0.852,0.332,1.123,0.818,1.224,1.633c1.204,9.697,2.432,19.39,3.646,29.083
		c0.407,3.252,2.972,5.704,6.25,5.755c4.415,0.07,8.833,0.074,13.247-0.004c3.215-0.055,5.765-2.497,6.167-5.704
		c0.892-7.111,1.771-14.225,2.685-21.334c0.097-0.752-0.082-1.246-0.647-1.77c-5.097-4.718-7.631-10.557-7.596-17.511
		c0.021-4.077,0.003-8.154,0.003-12.229c0-6.001-0.047-12.004,0.022-18.003C60.626,80.043,60.9,77.502,61.064,74.916z
		 M138.582,73.89c0.297,2.334,0.815,4.603,0.834,6.875c0.09,10.867,0.075,21.736,0.033,32.605
		c-0.026,6.694-2.601,12.32-7.481,16.874c-0.661,0.617-0.864,1.186-0.75,2.057c0.913,6.996,1.786,13.995,2.669,20.992
		c0.444,3.511,3.06,5.857,6.605,5.875c4.151,0.02,8.302,0.021,12.453-0.008c3.665-0.025,6.259-2.436,6.658-6.076
		c0.259-2.361,0.561-4.719,0.857-7.077c0.907-7.224,1.838-14.444,2.71-21.671c0.11-0.915,0.465-1.344,1.319-1.68
		c4.783-1.883,7.991-6.581,8.005-11.711c0.024-8.681,0.034-17.36-0.004-26.04c-0.027-6.214-4.664-11.545-10.802-12.568
		c-2.544-0.424-4.741,0.111-6.656,1.958c-1.159,1.117-2.496,2.072-3.838,2.973c-1.506,1.008-3.236,1.678-5.036,1.206
		c-1.387-0.363-2.727-1.064-3.958-1.825C140.897,75.842,139.746,74.791,138.582,73.89z M84.354,44.739
		c-0.087,8.859,7.08,16.052,16.097,16.155c8.708,0.098,15.997-7.128,16.08-15.946c0.082-8.791-7.004-16.157-15.643-16.26
		C91.692,28.58,84.444,35.616,84.354,44.739z M134.2,56.114c0.025,7.142,5.772,12.848,12.917,12.825
		c7.109-0.025,12.867-5.815,12.854-12.928c-0.013-7.067-5.854-12.855-12.955-12.84C139.906,43.188,134.176,48.976,134.2,56.114z
		 M40.79,56.067c0.045,7.197,5.742,12.885,12.888,12.868c7.118-0.018,12.9-5.841,12.844-12.934
		c-0.058-7.13-5.833-12.844-12.969-12.828C46.517,43.188,40.747,49.019,40.79,56.067z"/>
	<path display="inline" fill-rule="evenodd" clip-rule="evenodd" fill="#E65A26" d="M67.798,97.054c0-5.17-0.018-10.339,0.005-15.51
		c0.037-8.681,5.629-15.206,14.207-16.489c2.875-0.43,5.55,0.295,7.898,2.04c1.756,1.303,3.434,2.713,5.216,3.979
		c3.504,2.491,7.11,2.485,10.656,0.109c1.593-1.066,3.194-2.189,4.545-3.536c2.677-2.67,5.787-3.161,9.284-2.346
		c7.36,1.715,12.55,8.005,12.606,15.569c0.083,10.867,0.069,21.736,0.003,32.605c-0.041,6.608-4.178,12.355-10.473,14.758
		c-0.762,0.291-1.009,0.678-1.105,1.453c-1.157,9.359-2.362,18.712-3.54,28.067c-0.353,2.807-0.711,5.614-0.972,8.429
		c-0.388,4.168-3.81,7.437-7.999,7.46c-5.396,0.029-10.793,0.027-16.189,0.002c-4.207-0.021-7.576-3.249-8.029-7.427
		c-0.552-5.099-1.23-10.183-1.872-15.274c-0.788-6.249-1.691-12.485-2.343-18.75c-0.243-2.331-0.863-3.723-3.22-4.887
		c-5.707-2.819-8.566-7.781-8.666-14.176c-0.083-5.358-0.018-10.719-0.018-16.077C67.795,97.054,67.797,97.054,67.798,97.054z"/>
	<path display="inline" fill-rule="evenodd" clip-rule="evenodd" fill="#E65A26" d="M61.064,74.916
		c-0.164,2.586-0.438,5.127-0.467,7.673c-0.069,5.999-0.022,12.002-0.022,18.003c0,4.075,0.018,8.152-0.003,12.229
		c-0.035,6.954,2.5,12.793,7.596,17.511c0.565,0.523,0.744,1.018,0.647,1.77c-0.915,7.109-1.793,14.223-2.685,21.334
		c-0.402,3.208-2.952,5.649-6.167,5.704c-4.414,0.078-8.832,0.074-13.247,0.004c-3.278-0.051-5.843-2.502-6.25-5.755
		c-1.214-9.693-2.442-19.386-3.646-29.083c-0.102-0.815-0.372-1.301-1.224-1.633c-4.846-1.893-8.047-6.614-8.054-11.791
		C27.53,102.2,27.5,93.519,27.556,84.837c0.044-6.745,5.48-12.32,12.221-12.609c2.055-0.088,3.95,0.49,5.592,1.783
		c1.156,0.911,2.283,1.862,3.479,2.715c3.466,2.475,6.158,2.481,9.685,0.061C59.419,76.178,60.266,75.508,61.064,74.916z"/>
	<path display="inline" fill-rule="evenodd" clip-rule="evenodd" fill="#E65A26" d="M138.582,73.89
		c1.164,0.901,2.315,1.952,3.62,2.756c1.231,0.76,2.572,1.461,3.958,1.825c1.8,0.473,3.53-0.197,5.036-1.206
		c1.343-0.9,2.679-1.855,3.838-2.973c1.915-1.846,4.111-2.381,6.656-1.958c6.139,1.023,10.775,6.354,10.802,12.568
		c0.038,8.679,0.028,17.358,0.004,26.04c-0.015,5.13-3.222,9.828-8.005,11.711c-0.854,0.336-1.209,0.766-1.319,1.68
		c-0.872,7.228-1.803,14.448-2.71,21.671c-0.297,2.358-0.599,4.716-0.857,7.077c-0.398,3.64-2.993,6.05-6.658,6.076
		c-4.151,0.029-8.302,0.027-12.453,0.008c-3.545-0.018-6.161-2.364-6.605-5.875c-0.884-6.997-1.756-13.996-2.669-20.992
		c-0.114-0.871,0.089-1.439,0.75-2.057c4.88-4.554,7.455-10.18,7.481-16.874c0.042-10.869,0.057-21.738-0.033-32.605
		C139.397,78.493,138.879,76.225,138.582,73.89z"/>
	<path display="inline" fill-rule="evenodd" clip-rule="evenodd" fill="#E65A26" d="M84.354,44.739
		c0.09-9.123,7.338-16.159,16.533-16.051c8.639,0.104,15.725,7.47,15.643,16.26c-0.083,8.818-7.371,16.044-16.08,15.946
		C91.434,60.791,84.267,53.598,84.354,44.739z"/>
	<path display="inline" fill-rule="evenodd" clip-rule="evenodd" fill="#E65A26" d="M134.2,56.114
		c-0.024-7.138,5.706-12.926,12.815-12.943c7.102-0.016,12.942,5.772,12.955,12.84c0.014,7.113-5.744,12.903-12.854,12.928
		C139.973,68.962,134.226,63.256,134.2,56.114z"/>
	<path display="inline" fill-rule="evenodd" clip-rule="evenodd" fill="#E65A26" d="M40.79,56.067
		c-0.043-7.048,5.727-12.879,12.763-12.895C60.689,43.157,66.464,48.871,66.522,56c0.057,7.093-5.726,12.917-12.844,12.934
		C46.532,68.952,40.835,63.264,40.79,56.067z"/>
</g>
<g id="consulting" display="none">
	<g display="inline">
		<path fill="#E65A26" d="M71.967,79.888c3.766,1.302,7.642,1.546,11.594,1.028c0.725-0.095,1.623,0.084,2.252,0.457
			c8.966,5.301,18.171,6.023,27.411,1.024c9.349-5.058,14.081-13.167,14.491-23.282c-0.088-1.69-0.113-2.826-0.219-3.954
			c-0.063-0.673-0.238-1.337-0.391-1.999c-2.25-9.756-7.916-16.716-17.21-20.316c-7.017-2.716-14.131-2.486-21.005,0.83
			c-8.335,4.017-13.461,10.643-15.282,19.7c-1.25,6.229-0.293,12.277,2.614,17.945c0.484,0.946,0.314,1.498-0.447,2.06
			c-1.416,1.046-2.874,2.045-4.209,3.187c-0.555,0.472-1.186,1.283-1.145,1.897C70.455,78.984,71.331,79.667,71.967,79.888z
			 M116.936,54.004c2.542-0.005,4.579,2.023,4.565,4.543c-0.014,2.633-2.014,4.635-4.638,4.643
			c-2.401,0.006-4.588-2.222-4.549-4.638C112.353,56.053,114.431,54.008,116.936,54.004z M100.511,54.019
			c2.477,0.006,4.586,2.147,4.543,4.62c-0.041,2.398-2.272,4.614-4.641,4.613c-2.473-0.002-4.56-2.128-4.54-4.627
			C95.897,55.957,97.853,54.015,100.511,54.019z M83.79,54.005c2.577,0.007,4.5,1.966,4.493,4.579
			c-0.004,2.708-1.922,4.62-4.61,4.592c-2.442-0.024-4.563-2.211-4.513-4.649C79.212,56.025,81.289,53.998,83.79,54.005z"/>
		<path fill="#E65A26" d="M43.498,83.824c5.708,0.055,9.927-4.117,9.984-9.871c0.053-5.459-4.325-9.901-9.841-9.986
			c-5.288-0.082-9.782,4.409-9.854,9.845C33.714,79.453,37.902,83.771,43.498,83.824z"/>
		<path fill="#E65A26" d="M157.353,83.826c5.61,0.071,9.957-4.167,9.99-9.741c0.031-5.533-4.329-10.074-9.721-10.122
			c-5.446-0.048-9.941,4.389-9.982,9.854C147.599,79.496,151.73,83.754,157.353,83.826z"/>
		<path fill="#E65A26" d="M64.935,143.695c-0.893-0.252-1.867-0.3-2.801-0.29c-5.938,0.06-11.883,0.325-17.817,0.188
			c-3.434-0.08-6.516-1.504-9.159-3.859c-3.544-3.159-4.815-7.326-5.485-11.791c-1.154-7.693-2.272-15.391-3.412-23.087
			c-0.307-2.069-1.737-3.741-3.47-4.085c-1.73-0.345-3.761,0.34-4.458,2.064c-0.537,1.328-0.572,3-0.381,4.46
			c0.649,4.928,1.442,9.84,2.285,14.742c0.805,4.669,1.375,9.425,2.706,13.949c2.015,6.853,6.74,11.56,13.254,14.344
			c4.43,1.894,9.162,2.201,13.793,2.247c4.534-0.193,8.945-0.379,13.356-0.577c0.402-0.018,0.807-0.102,1.199-0.194
			c1.879-0.438,3.297-2.186,3.368-4.124C67.97,146.093,66.619,144.173,64.935,143.695z"/>
		<path fill="#E65A26" d="M143.014,138.678c0-0.006,0-0.01,0-0.016c3.563,0,7.132,0.101,10.691-0.026
			c4.155-0.147,7.972-1.298,9.878-5.434c0.828-1.797,1.219-3.897,1.375-5.895c0.391-5.105,0.523-10.231,0.793-15.35
			c0.238-4.573,0.727-9.144,0.727-13.717c0-3.956-2.086-6.911-5.708-8.524c-3.561-1.585-6.966-1.175-9.986,1.408
			c-2.446,2.094-3.233,4.982-3.442,8.026c-0.516,7.507-0.958,15.02-1.356,22.534c-0.066,1.247-0.422,1.72-1.715,1.78
			c-5.858,0.274-11.711,0.633-17.563,0.999c-3.983,0.249-5.745,1.888-6.48,5.8c-1.43,7.615-2.903,15.222-4.333,22.836
			c-0.434,2.314-0.906,4.633-1.145,6.97c-0.262,2.594,1.243,4.448,3.954,5.254c2.467,0.732,4.297,0.027,5.548-2.34
			c0.582-1.106,0.977-2.341,1.281-3.561c1.618-6.458,3.196-12.925,4.745-19.401c0.244-1.018,0.717-1.383,1.77-1.367
			C135.705,138.713,139.357,138.678,143.014,138.678z"/>
		<path fill="#E65A26" d="M179.593,100.68c-2.36-0.181-4.405,1.297-4.745,3.492c-1.273,8.273-2.52,16.552-3.793,24.825
			c-0.402,2.612-1.063,5.137-2.518,7.398c-3.202,4.977-7.957,7.169-13.627,7.245c-5.63,0.076-11.264-0.283-16.896-0.395
			c-2.766-0.054-4.668,1.766-4.711,4.353c-0.043,2.418,1.734,4.25,4.407,4.393c4.366,0.233,8.736,0.391,14.542,0.643
			c1.497-0.177,4.438-0.318,7.294-0.898c10.994-2.235,17.921-9.5,19.789-20.656c1.031-6.159,1.941-12.337,2.887-18.51
			c0.399-2.591,0.879-5.181,1.079-7.789C183.458,102.674,181.63,100.837,179.593,100.68z"/>
		<path fill="#E65A26" d="M133.47,114.59c3.266-0.805,5.323-3.956,4.933-7.449c-0.358-3.185-3.085-5.673-6.39-5.69
			c-7.298-0.038-14.598-0.008-21.898-0.024c-3.467-0.008-6.937-0.088-10.406-0.086c-6.083,0.004-12.166,0.049-18.247,0.072
			c-4.235,0.017-8.474-0.038-12.705,0.063c-3.133,0.073-5.704,2.625-6.032,5.756c-0.456,4.358,2.575,7.742,7.04,7.764
			c7.488,0.034,14.975,0.037,22.463-0.007c1.293-0.008,1.709,0.413,1.697,1.72c-0.063,5.896-0.035,11.791-0.037,17.687
			c-0.002,9.297-0.006,18.595-0.002,27.892c0.002,2.131,0.694,2.836,2.836,2.859c2.479,0.025,4.96,0.011,7.441,0.015
			c2.452,0.003,3.081-0.647,3.081-3.171c-0.002-7.482-0.002-14.965-0.002-22.449c-0.006,0-0.01,0-0.014,0
			c0-7.62-0.004-15.239,0-22.857c0-1.85,0.047-1.901,1.907-1.903c7.353-0.006,14.706,0.002,22.056-0.012
			C131.952,114.767,132.739,114.771,133.47,114.59z"/>
		<path fill="#E65A26" d="M80.918,130.443c-0.793-4.195-2.536-5.753-6.737-5.996c-5.853-0.34-11.705-0.7-17.56-1.001
			c-1.012-0.052-1.44-0.37-1.463-1.434c-0.066-2.993-0.146-5.988-0.365-8.974c-0.391-5.376-0.727-10.767-1.391-16.112
			c-0.48-3.861-2.762-6.613-6.556-7.703c-3.629-1.043-6.849-0.072-9.527,2.635c-2.597,2.624-2.928,5.867-2.672,9.335
			c0.387,5.246,0.692,10.499,1.003,15.75c0.243,4.119,0.297,8.254,0.703,12.355c0.479,4.841,3.317,7.945,7.817,8.904
			c1.27,0.271,2.586,0.426,3.886,0.449c3.338,0.063,6.679,0.021,10.015,0.021c0,0.004,0,0.007,0,0.011
			c3.61,0,7.22,0.039,10.83-0.022c1.121-0.02,1.697,0.277,1.973,1.453c1.293,5.558,2.625,11.107,4.036,16.636
			c0.559,2.182,1.146,4.403,2.106,6.423c1.09,2.302,3.043,2.88,5.489,2.119c3.306-1.031,4.403-3.201,3.646-7.201
			C84.403,148.875,82.658,139.659,80.918,130.443z"/>
	</g>
	<path display="inline" fill-rule="evenodd" clip-rule="evenodd" fill="#E65A26" d="M107.241,139.54c0,7.483,0,14.966,0.002,22.449
		c0,2.524-0.629,3.174-3.081,3.171c-2.481-0.004-4.962,0.011-7.441-0.015c-2.143-0.022-2.834-0.728-2.836-2.859
		c-0.004-9.297,0-18.594,0.002-27.892c0.002-5.896-0.025-11.791,0.037-17.687c0.012-1.307-0.404-1.728-1.697-1.72
		c-7.488,0.044-14.975,0.041-22.463,0.007c-4.465-0.021-7.496-3.406-7.04-7.764c0.328-3.13,2.899-5.683,6.032-5.756
		c4.231-0.101,8.47-0.046,12.705-0.063c6.081-0.023,12.164-0.068,18.247-0.072c3.469-0.002,6.939,0.078,10.406,0.086
		c7.3,0.017,14.6-0.014,21.898,0.024c3.305,0.018,6.032,2.505,6.39,5.69c0.391,3.494-1.667,6.645-4.933,7.449
		c-0.73,0.181-1.518,0.177-2.28,0.178c-7.351,0.014-14.704,0.006-22.056,0.012c-1.86,0.002-1.907,0.053-1.907,1.903
		c-0.004,7.619,0,15.238,0,22.857C107.231,139.54,107.235,139.54,107.241,139.54z"/>
	<path display="inline" fill-rule="evenodd" clip-rule="evenodd" fill="#E65A26" d="M143.014,138.678
		c-3.657,0-7.31,0.035-10.965-0.022c-1.053-0.017-1.525,0.349-1.77,1.367c-1.549,6.476-3.127,12.943-4.745,19.401
		c-0.305,1.22-0.699,2.455-1.281,3.561c-1.25,2.368-3.081,3.073-5.548,2.34c-2.711-0.806-4.216-2.66-3.954-5.254
		c0.239-2.337,0.711-4.656,1.145-6.97c1.43-7.614,2.903-15.221,4.333-22.836c0.735-3.912,2.497-5.551,6.48-5.8
		c5.853-0.365,11.705-0.724,17.563-0.999c1.293-0.061,1.648-0.533,1.715-1.78c0.398-7.514,0.84-15.027,1.356-22.534
		c0.209-3.043,0.996-5.932,3.442-8.026c3.02-2.583,6.425-2.994,9.986-1.408c3.622,1.613,5.708,4.568,5.708,8.524
		c0,4.573-0.488,9.144-0.727,13.717c-0.27,5.118-0.402,10.244-0.793,15.35c-0.156,1.997-0.547,4.097-1.375,5.895
		c-1.906,4.136-5.724,5.287-9.878,5.434c-3.559,0.127-7.128,0.026-10.691,0.026C143.014,138.668,143.014,138.672,143.014,138.678z"
		/>
	<path display="inline" fill-rule="evenodd" clip-rule="evenodd" fill="#E65A26" d="M58.07,138.672
		c-3.336,0-6.677,0.041-10.015-0.021c-1.299-0.023-2.616-0.179-3.886-0.449c-4.5-0.959-7.339-4.063-7.817-8.904
		c-0.406-4.101-0.459-8.237-0.703-12.355c-0.311-5.251-0.616-10.504-1.003-15.75c-0.256-3.468,0.075-6.711,2.672-9.335
		c2.678-2.707,5.897-3.678,9.527-2.635c3.793,1.09,6.075,3.842,6.556,7.703c0.665,5.346,1,10.736,1.391,16.112
		c0.219,2.986,0.299,5.981,0.365,8.974c0.023,1.063,0.451,1.382,1.463,1.434c5.854,0.302,11.707,0.662,17.56,1.001
		c4.202,0.243,5.944,1.801,6.737,5.996c1.74,9.215,3.485,18.432,5.231,27.646c0.758,4-0.34,6.17-3.646,7.201
		c-2.445,0.762-4.399,0.184-5.489-2.119c-0.959-2.02-1.547-4.241-2.106-6.423c-1.411-5.528-2.743-11.078-4.036-16.636
		c-0.275-1.176-0.852-1.472-1.973-1.453c-3.61,0.062-7.22,0.022-10.83,0.022C58.07,138.679,58.07,138.676,58.07,138.672z"/>
	<path display="inline" fill-rule="evenodd" clip-rule="evenodd" fill="#E65A26" d="M152.25,152.633
		c-5.806-0.252-10.175-0.409-14.542-0.643c-2.672-0.144-4.45-1.975-4.407-4.393c0.043-2.586,1.945-4.406,4.711-4.353
		c5.632,0.111,11.266,0.471,16.896,0.395c5.671-0.076,10.426-2.268,13.627-7.245c1.455-2.261,2.116-4.786,2.518-7.398
		c1.273-8.273,2.52-16.552,3.793-24.825c0.34-2.195,2.385-3.673,4.745-3.492c2.037,0.157,3.866,1.994,3.706,4.101
		c-0.199,2.608-0.68,5.197-1.079,7.789c-0.945,6.173-1.855,12.351-2.887,18.51c-1.868,11.155-8.795,18.421-19.789,20.656
		C156.688,152.315,153.747,152.457,152.25,152.633z"/>
	<path display="inline" fill-rule="evenodd" clip-rule="evenodd" fill="#E65A26" d="M49.989,152.577
		c-4.631-0.046-9.363-0.353-13.793-2.247c-6.514-2.784-11.239-7.491-13.254-14.344c-1.331-4.523-1.901-9.279-2.706-13.949
		c-0.843-4.901-1.636-9.813-2.285-14.742c-0.191-1.46-0.156-3.132,0.381-4.46c0.697-1.725,2.728-2.41,4.458-2.064
		c1.733,0.345,3.164,2.017,3.47,4.085c1.139,7.696,2.257,15.394,3.412,23.087c0.67,4.465,1.941,8.632,5.485,11.791
		c2.643,2.355,5.725,3.779,9.159,3.859c5.935,0.137,11.879-0.129,17.817-0.188c0.934-0.01,1.909,0.038,2.801,0.29
		c1.684,0.478,3.036,2.398,2.977,3.986c-0.07,1.938-1.488,3.685-3.368,4.124c-0.393,0.093-0.797,0.177-1.199,0.194
		C58.934,152.198,54.523,152.383,49.989,152.577z"/>
	<path display="inline" fill-rule="evenodd" clip-rule="evenodd" fill="#E65A26" d="M53.481,73.953
		c-0.057,5.754-4.276,9.926-9.984,9.871c-5.596-0.053-9.784-4.371-9.711-10.012c0.072-5.437,4.566-9.927,9.854-9.845
		C49.157,64.052,53.534,68.494,53.481,73.953z"/>
	<path display="inline" fill-rule="evenodd" clip-rule="evenodd" fill="#E65A26" d="M147.64,73.817
		c0.041-5.465,4.536-9.902,9.982-9.854c5.392,0.048,9.752,4.588,9.721,10.122c-0.033,5.574-4.38,9.813-9.99,9.741
		C151.73,83.754,147.599,79.496,147.64,73.817z"/>
</g>
<g id="hackathon" display="none">
	<path display="inline" fill-rule="evenodd" clip-rule="evenodd" fill="#E65A26" d="M80.114,170.538c0-4.375-0.004-8.483,0-12.589
		c0-1.229-0.777-0.969-1.367-0.972c-4.021-0.016-8.041-0.009-12.061-0.009c-10.932,0.001-21.863-0.001-32.795,0.002
		c-4.071,0.002-6.034-2.308-6.034-7.137c-0.001-39.089,0-78.179,0.002-117.269c0.001-4.38,2.127-6.883,5.842-6.883
		c44.659-0.003,89.319-0.005,133.979-0.005c3.935,0,6.075,2.549,6.075,7.215c0,38.974,0,77.948,0,116.921
		c0,4.781-2.012,7.164-6.044,7.163c-14.756-0.003-29.513-0.005-44.269-0.007c-0.527,0-1.055,0-1.672,0c0,4.551,0,8.928,0,13.567
		c2.25,0,4.483-0.003,6.716,0.001c2.536,0.004,4.616,1.105,5.923,3.741c0.527,1.065,0.777,2.322,1.223,3.704
		c-22.893,0-45.511,0-68.128,0c-0.258-3.324,1.895-6.641,4.923-7.184c1.826-0.327,3.711-0.194,5.571-0.256
		C78.626,170.52,79.259,170.538,80.114,170.538z M36.188,34.888c0,31.954,0,63.705,0,95.448c43.145,0,86.197,0,129.232,0
		c0-31.877,0-63.624,0-95.448C122.309,34.888,79.296,34.888,36.188,34.888z M106.38,144.69c0-3.626-2.559-6.616-5.638-6.589
		c-3,0.026-5.513,3.016-5.513,6.561c0,3.627,2.575,6.643,5.634,6.599C103.868,151.217,106.38,148.224,106.38,144.69z"/>
	<path display="inline" fill-rule="evenodd" clip-rule="evenodd" fill="#E65A26" d="M78.552,54.69c0,0.985,0.064,1.977-0.01,2.954
		c-0.283,3.687-2.749,6.429-5.839,6.554c-3.018,0.123-5.747-2.517-6.079-6.198c-0.209-2.287-0.207-4.646,0.01-6.931
		c0.346-3.666,3.12-6.292,6.132-6.123c3.104,0.175,5.519,2.91,5.782,6.617c0.074,1.036,0.012,2.085,0.012,3.128
		C78.558,54.69,78.556,54.69,78.552,54.69z M74.568,54.668c-0.002,0-0.002,0-0.006,0c0-0.923,0.078-1.858-0.018-2.767
		c-0.139-1.295-0.818-2.136-1.943-2.155c-1.194-0.021-1.958,0.829-2.036,2.213c-0.102,1.723-0.09,3.464,0,5.189
		c0.074,1.39,0.82,2.241,2.016,2.24c1.129-0.001,1.809-0.845,1.967-2.127C74.652,56.413,74.568,55.533,74.568,54.668z"/>
	<path display="inline" fill-rule="evenodd" clip-rule="evenodd" fill="#E65A26" d="M116.113,54.621c0,0.81,0.012,1.619-0.002,2.428
		c-0.064,4.016-2.772,7.195-6.077,7.15c-3.286-0.043-5.916-3.134-5.99-7.082c-0.031-1.733-0.047-3.47,0-5.203
		c0.102-3.915,2.825-7.02,6.08-6.983c3.274,0.039,5.911,3.155,5.989,7.088C116.128,52.886,116.115,53.753,116.113,54.621z
		 M108.104,54.422c0.004,0,0.01,0,0.016,0c0,0.979-0.074,1.967,0.018,2.934c0.127,1.347,0.893,2.053,1.999,2.023
		c1.037-0.026,1.805-0.72,1.867-1.992c0.09-1.836,0.092-3.687,0.02-5.524c-0.055-1.352-0.838-2.114-1.934-2.113
		c-1.172,0.001-1.899,0.815-1.977,2.253C108.068,52.807,108.104,53.616,108.104,54.422z"/>
	<path display="inline" fill-rule="evenodd" clip-rule="evenodd" fill="#E65A26" d="M116.107,110.65
		c-0.002,0.986,0.035,1.974-0.006,2.958c-0.156,3.625-2.813,6.623-5.896,6.692c-3.155,0.071-5.96-2.875-6.136-6.568
		c-0.096-2.023-0.102-4.063-0.006-6.086c0.18-3.753,2.915-6.634,6.107-6.568c3.219,0.067,5.806,3.019,5.935,6.79
		C116.134,108.793,116.109,109.722,116.107,110.65z M112.045,110.613c0-0.868,0.047-1.743-0.01-2.606
		c-0.088-1.379-0.842-2.137-1.928-2.159c-1.092-0.022-1.909,0.716-1.969,2.09c-0.082,1.791-0.078,3.594-0.008,5.388
		c0.051,1.36,0.785,2.117,1.922,2.131c1.219,0.015,1.91-0.794,1.988-2.236C112.088,112.355,112.049,111.483,112.045,110.613z"/>
	<path display="inline" fill-rule="evenodd" clip-rule="evenodd" fill="#E65A26" d="M78.647,110.788
		c-0.053,1.185-0.033,2.352-0.166,3.496c-0.387,3.365-2.889,5.928-5.792,6.015c-2.817,0.085-5.589-2.261-5.95-5.531
		c-0.295-2.669-0.297-5.454-0.012-8.124c0.359-3.37,3.104-5.666,6.054-5.552c2.93,0.113,5.349,2.65,5.714,6.077
		C78.622,108.371,78.603,109.596,78.647,110.788z M74.58,110.908c-0.002,0-0.006,0-0.01,0c0-0.923,0.055-1.851-0.012-2.767
		c-0.102-1.399-0.801-2.218-1.98-2.312c-1.09-0.087-1.981,0.969-2.032,2.427c-0.055,1.613-0.053,3.232,0.006,4.844
		c0.049,1.39,0.693,2.26,1.905,2.37c1.125,0.103,2-0.856,2.113-2.313C74.627,112.412,74.58,111.658,74.58,110.908z"/>
	<path display="inline" fill-rule="evenodd" clip-rule="evenodd" fill="#E65A26" d="M122.821,82.554
		c0.002-0.813-0.01-1.624,0.004-2.436c0.066-3.925,2.598-7.019,5.813-7.111c3.25-0.093,6.013,2.784,6.228,6.63
		c0.113,1.963,0.117,3.949,0.008,5.912c-0.219,3.953-2.997,6.804-6.343,6.65c-3.176-0.146-5.64-3.175-5.71-7.035
		C122.805,84.294,122.821,83.424,122.821,82.554z M130.826,82.652c0-0.869,0.041-1.742-0.01-2.607
		c-0.08-1.352-0.729-2.132-1.874-2.204c-1.152-0.071-1.948,0.641-2.036,1.973c-0.121,1.842-0.119,3.709-0.018,5.553
		c0.072,1.34,0.887,2.101,2.002,2.055c1.18-0.049,1.883-0.881,1.932-2.336C130.85,84.275,130.83,83.463,130.826,82.652z"/>
	<path display="inline" fill-rule="evenodd" clip-rule="evenodd" fill="#E65A26" d="M97.332,82.596c0,0.813,0.012,1.625-0.002,2.436
		c-0.072,4.097-2.549,7.108-5.886,7.165c-3.407,0.058-6.062-2.937-6.185-7.034c-0.049-1.68-0.047-3.365,0-5.045
		c0.121-4.091,2.786-7.148,6.147-7.109c3.299,0.039,5.833,3.089,5.929,7.152c0.018,0.811,0.002,1.624,0.002,2.435
		C97.336,82.596,97.334,82.596,97.332,82.596z M89.323,82.632c0,0.812-0.023,1.624,0.004,2.434c0.051,1.446,0.731,2.291,1.922,2.349
		c1.125,0.055,1.934-0.704,2.016-2.037c0.111-1.843,0.123-3.711-0.006-5.551c-0.092-1.303-0.87-2.064-2.032-1.996
		c-1.146,0.066-1.797,0.854-1.889,2.193C89.278,80.889,89.327,81.763,89.323,82.632z"/>
	<path display="inline" fill-rule="evenodd" clip-rule="evenodd" fill="#E65A26" d="M141.617,54.313
		c0-0.986-0.063-1.978,0.012-2.955c0.273-3.564,2.733-6.265,5.786-6.415c2.917-0.144,5.687,2.329,6.048,5.812
		c0.262,2.504,0.262,5.107,0.004,7.612c-0.361,3.482-3.116,5.951-6.04,5.834c-3.016-0.121-5.509-2.845-5.794-6.413
		C141.539,56.639,141.617,55.471,141.617,54.313z M149.614,54.609c0-0.865,0.059-1.737-0.012-2.593c-0.115-1.393-0.809-2.25-2-2.265
		c-1.127-0.014-1.891,0.814-1.973,2.101c-0.115,1.833-0.125,3.696,0.02,5.524c0.098,1.275,0.895,2.075,2.027,2.013
		c1.118-0.062,1.793-0.878,1.918-2.187C149.677,56.349,149.61,55.475,149.614,54.609z"/>
	<path display="inline" fill-rule="evenodd" clip-rule="evenodd" fill="#E65A26" d="M153.736,110.844
		c-0.07,1.117-0.055,2.465-0.26,3.764c-0.541,3.435-3.233,5.861-6.169,5.683c-2.956-0.179-5.429-2.87-5.661-6.367
		c-0.139-2.074-0.131-4.175-0.025-6.254c0.182-3.649,2.586-6.386,5.616-6.571c3.151-0.193,5.769,2.223,6.284,5.893
		C153.688,108.183,153.662,109.412,153.736,110.844z M149.618,110.779c0-0.864,0.039-1.733-0.008-2.593
		c-0.082-1.411-0.777-2.292-1.946-2.337c-1.174-0.046-1.971,0.808-2.049,2.198c-0.1,1.778-0.111,3.58,0.02,5.353
		c0.094,1.271,0.822,2.097,1.982,2.068c1.217-0.03,1.868-0.885,1.985-2.268C149.669,112.4,149.614,111.586,149.618,110.779z"/>
	<path display="inline" fill-rule="evenodd" clip-rule="evenodd" fill="#E65A26" d="M60.015,82.623c0,0.986,0.051,1.975-0.01,2.956
		c-0.221,3.635-2.622,6.446-5.601,6.609c-3.19,0.174-5.89-2.175-6.276-5.86c-0.256-2.447-0.25-4.993,0.004-7.44
		c0.375-3.593,3.083-6.009,6.138-5.875c3.004,0.132,5.466,2.893,5.72,6.482c0.072,1.036,0.012,2.085,0.012,3.128
		C60.005,82.623,60.009,82.623,60.015,82.623z M56.019,82.529c0-0.863,0.084-1.741-0.02-2.587c-0.156-1.276-0.795-2.106-1.956-2.11
		c-1.223-0.005-1.945,0.831-2.021,2.207c-0.096,1.721-0.076,3.459,0.004,5.182c0.061,1.321,0.76,2.142,1.881,2.202
		c1.2,0.064,1.938-0.752,2.094-2.131C56.104,84.386,56.021,83.451,56.019,82.529z"/>
	<path display="inline" fill-rule="evenodd" clip-rule="evenodd" fill="#E65A26" d="M51.989,54.563c0-2.261-0.016-4.523,0.006-6.785
		c0.018-1.752,0.807-2.822,2.021-2.82c1.211,0.002,2.014,1.064,2.024,2.831c0.023,4.522,0.025,9.045-0.002,13.568
		c-0.01,1.766-0.822,2.826-2.034,2.824c-1.207-0.002-1.992-1.078-2.012-2.834C51.973,59.085,51.989,56.824,51.989,54.563z"/>
	<path display="inline" fill-rule="evenodd" clip-rule="evenodd" fill="#E65A26" d="M93.345,54.576
		c-0.002,2.26,0.025,4.521-0.01,6.78c-0.027,1.769-0.828,2.834-2.028,2.827c-1.195-0.008-1.981-1.098-1.985-2.843
		c-0.016-4.462-0.016-8.923-0.004-13.386c0.006-1.905,0.76-3,2.004-2.997c1.25,0.001,1.997,1.083,2.016,3.013
		C93.363,50.172,93.347,52.375,93.345,54.576z"/>
	<path display="inline" fill-rule="evenodd" clip-rule="evenodd" fill="#E65A26" d="M70.525,82.595
		c0.002-2.26-0.018-4.521,0.006-6.781c0.02-1.752,0.818-2.811,2.04-2.8c1.211,0.012,2.004,1.07,2.012,2.835
		c0.023,4.521,0.023,9.042,0,13.564c-0.012,1.791-0.791,2.787-2.047,2.774c-1.258-0.013-1.985-0.996-2.004-2.811
		C70.507,87.117,70.525,84.856,70.525,82.595z"/>
	<path display="inline" fill-rule="evenodd" clip-rule="evenodd" fill="#E65A26" d="M130.842,54.721
		c0,2.261,0.016,4.521-0.008,6.781c-0.016,1.607-0.829,2.678-1.971,2.691c-1.146,0.012-2.012-1.016-2.026-2.648
		c-0.037-4.694-0.027-9.389,0-14.083c0.01-1.492,0.704-2.402,1.985-2.49c1.156-0.08,1.989,1.016,2.012,2.621
		C130.863,49.968,130.842,52.345,130.842,54.721z"/>
	<path display="inline" fill-rule="evenodd" clip-rule="evenodd" fill="#E65A26" d="M149.622,82.663
		c0.002,2.261,0.023,4.521-0.006,6.782c-0.021,1.79-0.783,2.765-2.057,2.742c-1.188-0.021-1.971-0.992-1.982-2.668
		c-0.031-4.578-0.029-9.157-0.002-13.736c0.012-1.727,0.865-2.801,2.07-2.77c1.2,0.032,1.961,1.111,1.973,2.87
		C149.636,78.143,149.622,80.402,149.622,82.663z"/>
	<path display="inline" fill-rule="evenodd" clip-rule="evenodd" fill="#E65A26" d="M56.048,110.592c0,2.26,0.02,4.52-0.008,6.78
		c-0.02,1.832-0.879,2.977-2.11,2.913c-1.18-0.061-1.932-1.159-1.938-2.927c-0.014-4.462-0.014-8.925,0-13.388
		c0.008-1.832,0.711-2.828,1.949-2.873c1.297-0.047,2.079,0.995,2.1,2.887C56.067,106.186,56.048,108.389,56.048,110.592z"/>
	<path display="inline" fill-rule="evenodd" clip-rule="evenodd" fill="#E65A26" d="M93.345,110.727
		c0.002,2.143,0.014,4.287-0.002,6.431c-0.016,2.014-0.799,3.17-2.075,3.13c-1.215-0.038-1.946-1.171-1.95-3.068
		c-0.008-4.403-0.016-8.806-0.002-13.209c0.006-1.932,0.741-2.941,2.045-2.915c1.235,0.024,1.95,1.011,1.975,2.852
		C93.369,106.208,93.345,108.468,93.345,110.727z"/>
	<path display="inline" fill-rule="evenodd" clip-rule="evenodd" fill="#E65A26" d="M130.842,110.71
		c0,2.259,0.014,4.518-0.006,6.777c-0.014,1.712-0.846,2.829-2.03,2.802c-1.145-0.026-1.959-1.053-1.971-2.708
		c-0.033-4.633-0.037-9.269,0.002-13.904c0.016-1.673,0.829-2.606,2.038-2.584c1.205,0.021,1.942,0.985,1.959,2.664
		C130.859,106.076,130.84,108.394,130.842,110.71z"/>
	<path display="inline" fill-rule="evenodd" clip-rule="evenodd" fill="#E65A26" d="M108.084,82.572
		c-0.002-2.26-0.02-4.519,0.004-6.778c0.02-1.777,0.793-2.812,2.024-2.785c1.188,0.026,1.938,0.986,1.947,2.694
		c0.029,4.634,0.029,9.269-0.002,13.904c-0.01,1.688-0.785,2.61-2.012,2.583c-1.219-0.025-1.93-0.951-1.954-2.666
		C108.061,87.207,108.084,84.889,108.084,82.572z"/>
</g>
<g id="workshop">
	<path fill-rule="evenodd" clip-rule="evenodd" fill="#E65A26" d="M109.643,104.78c3.884,3.868,7.72,7.609,11.451,11.454
		c1.219,1.252,2.208,1.733,4.138,1.325c5.618-1.19,10.419,0.644,13.885,5.256c3.458,4.604,3.903,9.719,1.25,14.816
		c-2.649,5.093-7.06,7.667-12.838,7.52c-9.197-0.235-15.584-9.068-12.979-17.884c0.246-0.829,0.086-1.272-0.473-1.827
		c-3.915-3.876-7.806-7.778-11.697-11.683c-0.258-0.26-0.438-0.6-0.684-0.942c-0.329,0.276-0.473,0.381-0.598,0.506
		c-4.11,4.105-8.208,8.221-12.338,12.306c-0.477,0.473-0.5,0.862-0.32,1.465c2.293,7.641-2.11,15.625-9.677,17.605
		c-7.833,2.049-15.526-2.573-17.362-10.436c-2.403-10.274,7.364-19.474,17.538-16.481c0.852,0.251,1.324,0.11,1.918-0.493
		c3.868-3.923,7.779-7.807,11.674-11.705c0.254-0.257,0.497-0.53,0.891-0.953c-1.04-0.979-2.059-1.902-3.036-2.866
		c-2.04-2.013-4.048-4.061-6.103-6.058c-0.258-0.249-0.813-0.47-1.106-0.361c-7.438,2.783-15.975-0.093-20.359-9.205
		c-1.059-2.201-1.848-4.478-1.738-6.963c0.082-1.882,0.813-3.426,2.52-4.523c0.945,1.348,1.805,2.649,2.738,3.89
		c1.254,1.664,2.504,3.336,3.872,4.905c2.606,2.989,7.271,2.99,10.142,0.079c2.829-2.864,2.821-7.543-0.18-10.054
		c-2.418-2.026-5.028-3.832-7.552-5.734c-0.383-0.287-0.77-0.568-1.204-0.887c1.059-1.71,2.661-2.292,4.47-2.365
		c11.283-0.447,19.898,11.096,16.272,21.748c-0.109,0.315-0.098,0.859,0.102,1.061c3.016,3.085,6.075,6.132,9.169,9.232
		c0.243-0.184,0.461-0.314,0.633-0.487c2.848-2.839,5.7-5.674,8.517-8.543c0.242-0.249,0.438-0.807,0.328-1.102
		c-2.633-7.162-0.031-15.599,8.4-19.823c2.418-1.212,4.922-2.12,7.673-2.088c2.122,0.024,3.59,0.788,4.61,2.385
		c-0.348,0.254-0.699,0.511-1.047,0.772c-2.5,1.875-5.067,3.666-7.485,5.644c-3.188,2.612-3.286,7.362-0.34,10.281
		c2.985,2.957,7.653,2.863,10.279-0.337c2.243-2.728,4.317-5.59,6.533-8.479c1.621,0.949,2.332,2.506,2.414,4.374
		c0.133,3.007-0.949,5.691-2.395,8.247c-2.555,4.522-6.162,7.702-11.408,8.697c-2.727,0.518-5.403,0.256-8.033-0.631
		c-0.352-0.117-0.945-0.133-1.161,0.078C115.863,98.534,112.823,101.598,109.643,104.78z M127.427,138.215
		c4.837-0.004,7.552-3.139,7.576-7.71c0.016-2.599-3.758-6.344-6.302-6.311c-4.966,0.064-7.677,2.983-7.736,7.678
		C120.93,134.636,124.661,138.247,127.427,138.215z M75.45,138.211c2.801,0.108,6.63-3.467,6.618-6.296
		c-0.02-4.332-2.383-7.551-7.583-7.726c-2.52-0.085-6.446,3.594-6.454,6.271C68.019,134.84,70.531,138.133,75.45,138.211z"/>
	<g>
		<path fill="#E65A26" d="M21.106,96.708c11.041,0,12.596-6.065,12.596-11.51c0-4.354-0.621-8.709-1.242-13.063
			c-0.625-4.355-1.247-8.554-1.247-12.908c0-14.309,9.333-20.375,22.55-20.375h3.266v8.554h-2.797
			c-9.177,0-12.287,4.976-12.287,13.375c0,3.577,0.465,7.31,1.09,11.042c0.622,3.888,1.086,7.621,1.086,11.82
			c0.156,9.954-4.2,14.931-11.196,16.798v0.311c6.996,1.71,11.353,6.998,11.196,16.953c0,4.2-0.465,8.087-1.086,11.818
			c-0.625,3.889-1.09,7.466-1.09,11.199c0,8.71,3.579,13.531,12.287,13.531h2.797v8.552h-3.266c-12.908,0-22.55-5.599-22.55-21.306
			c0-4.198,0.622-8.554,1.247-12.754c0.621-4.198,1.242-8.398,1.242-12.596c0-4.821-1.555-11.51-12.596-11.51V96.708z"/>
		<path fill="#E65A26" d="M179.479,104.64c-11.044,0-12.6,6.688-12.6,11.51c0,4.198,0.625,8.398,1.246,12.596
			c0.622,4.2,1.243,8.556,1.243,12.754c0,15.708-9.799,21.306-22.551,21.306h-3.266v-8.552h2.645
			c8.708-0.156,12.443-4.821,12.443-13.531c0-3.733-0.625-7.31-1.09-11.199c-0.621-3.731-1.247-7.619-1.247-11.818
			c0-9.955,4.356-15.243,11.201-16.953v-0.311c-6.845-1.867-11.201-6.844-11.201-16.798c0-4.199,0.625-7.932,1.247-11.82
			c0.465-3.732,1.09-7.465,1.09-11.042c0-8.399-3.266-13.22-12.287-13.375h-2.801v-8.554h3.11c13.221,0,22.707,6.065,22.707,20.375
			c0,4.354-0.621,8.553-1.243,12.908c-0.621,4.354-1.246,8.709-1.246,13.063c0,5.444,1.555,11.51,12.6,11.51V104.64z"/>
	</g>
</g>
</svg>
