<?xml version="1.0" encoding="utf-8"?>
<!-- Generator: Adobe Illustrator 16.0.0, SVG Export Plug-In . SVG Version: 6.00 Build 0)  -->
<!DOCTYPE svg PUBLIC "-//W3C//DTD SVG 1.1//EN" "http://www.w3.org/Graphics/SVG/1.1/DTD/svg11.dtd">
<svg version="1.1" id="Layer_1" xmlns="http://www.w3.org/2000/svg" xmlns:xlink="http://www.w3.org/1999/xlink" x="0px" y="0px"
	 width="228px" height="167px" viewBox="0 0 228 167" enable-background="new 0 0 228 167" xml:space="preserve">
<g>
	<path fill="#FFFFFF" d="M32.342,128.579v4.938h-6.093v19.862h-5v-19.862h-6.107v-4.938H32.342z"/>
	<path fill="#FFFFFF" d="M50.016,128.517v4.97h-9.969v5h7.477v4.969h-7.477v5h9.969v4.954H35.062v-24.893H50.016z"/>
	<path fill="#FFFFFF" d="M64.384,153.548c-3.467-0.011-6.426-1.231-8.877-3.662c-2.461-2.461-3.692-5.426-3.692-8.892
		c0-3.457,1.23-6.426,3.692-8.908c2.472-2.472,5.431-3.708,8.877-3.708l-0.016,0.062c3.83,0,6.874,1.701,8.923,3.677l-3.554,3.554
		c-1.497-1.477-3.277-2.215-5.338-2.215c-2.092,0-3.867,0.738-5.323,2.215c-1.477,1.498-2.215,3.277-2.215,5.338
		c0,2.083,0.738,3.862,2.215,5.338c1.467,1.467,3.241,2.2,5.323,2.2c2.092,0,3.877-0.739,5.354-2.215l3.554,3.554
		C71.271,151.903,68.252,153.548,64.384,153.548z"/>
	<path fill="#FFFFFF" d="M80.997,128.579v9.923h8.292v-9.923h4.969v24.8h-4.969v-9.939h-8.292v9.939h-4.969v-24.8H80.997z"/>
	<path fill="#FFFFFF" d="M109.917,128.501l-5.308,14.585h5.308v-9.646h4.969v9.646h2.493v4.97h-2.493v5.323h-4.969v-5.323H97.133
		l7.399-19.585L109.917,128.501z"/>
	<path fill="#FFFFFF" d="M125.223,128.579v9.923h8.292v-9.923h4.969v24.8h-4.969v-9.939h-8.292v9.939h-4.969v-24.8H125.223z"/>
	<path fill="#FFFFFF" d="M162.683,132.086c2.472,2.472,3.708,5.441,3.708,8.908c0,3.477-1.236,6.441-3.708,8.892
		c-2.462,2.441-5.426,3.662-8.893,3.662c-3.477-0.011-6.441-1.231-8.893-3.662c-2.461-2.461-3.692-5.426-3.692-8.892
		c0-3.457,1.231-6.426,3.692-8.908c2.472-2.472,5.437-3.708,8.893-3.708S160.211,129.614,162.683,132.086z M148.452,135.625
		c-1.477,1.497-2.215,3.276-2.215,5.338c0,2.082,0.738,3.861,2.215,5.339c1.466,1.466,3.246,2.2,5.338,2.2
		c2.062,0,3.836-0.733,5.323-2.2c1.487-1.467,2.23-3.247,2.23-5.339c0-2.072-0.743-3.852-2.23-5.338
		c-1.477-1.477-3.252-2.216-5.323-2.216C151.688,133.409,149.908,134.148,148.452,135.625z"/>
	<path fill="#FFFFFF" d="M189.634,132.086c2.472,2.472,3.708,5.441,3.708,8.908c0,3.477-1.236,6.441-3.708,8.892
		c-2.461,2.441-5.426,3.662-8.893,3.662c-3.477-0.011-6.44-1.231-8.893-3.662c-2.461-2.461-3.691-5.426-3.691-8.892
		c0-3.457,1.23-6.426,3.691-8.908c2.472-2.472,5.437-3.708,8.893-3.708C184.198,128.378,187.162,129.614,189.634,132.086z
		 M175.403,135.625c-1.478,1.497-2.216,3.276-2.216,5.338c0,2.082,0.738,3.861,2.216,5.339c1.466,1.466,3.246,2.2,5.338,2.2
		c2.062,0,3.836-0.733,5.323-2.2c1.487-1.467,2.23-3.247,2.23-5.339c0-2.072-0.743-3.852-2.23-5.338
		c-1.477-1.477-3.251-2.216-5.323-2.216C178.639,133.409,176.859,134.148,175.403,135.625z"/>
	<path fill="#FFFFFF" d="M202.632,128.579c3.896,0,6.945,1.547,9.062,3.646c2.216,2.226,3.323,5.151,3.323,8.777
		c0,3.626-1.107,6.542-3.323,8.747c-2.441,2.42-5.461,3.631-9.062,3.631h-6.6v-24.785h6.6V128.579z M202.616,133.517h-1.615v14.893
		h1.662c4.471,0,7.384-2.968,7.384-7.446C210.047,136.525,207.084,133.517,202.616,133.517z"/>
</g>
<g>
	<polygon fill="#FFFFFF" points="91.08,82.452 91.045,82.543 88.765,82.543 84.231,82.543 74.082,82.543 74.082,86.758 
		79.295,86.758 79.295,103.715 83.564,103.715 83.564,86.758 87.657,86.758 88.765,86.758 88.765,86.736 89.46,86.736 84.763,99.17 
		95.677,99.17 95.677,103.715 99.921,103.715 99.921,99.17 101.416,99.17 101.416,103.715 105.658,103.715 105.658,98.928 
		112.736,98.928 112.736,103.715 116.98,103.715 116.98,89.927 116.98,86.241 116.98,82.452 112.72,82.452 112.72,89.927 
		112.736,89.927 112.736,94.71 105.658,94.71 105.658,89.927 105.674,89.927 105.674,82.452 101.416,82.452 101.416,86.241 
		101.416,89.927 101.416,94.929 99.921,94.929 99.921,86.692 99.915,86.692 99.915,82.543 95.657,82.543 95.657,90.018 
		95.677,90.018 95.677,94.929 91.147,94.929 95.622,82.63 95.657,82.543 95.653,82.543 95.677,82.478 	"/>
	<path fill="#FFFFFF" d="M177.609,67.211c-3.566,0-7.017,0.483-10.299,1.37c-5.577-14.847-19.94-25.42-36.783-25.42
		c-0.051,0-0.098,0.004-0.147,0.004c-1.616-18.259-16.992-32.58-35.732-32.58c-19.815,0-35.879,16.009-35.879,35.759
		c0,0.412,0.018,0.82,0.031,1.23c-0.011,0-0.022,0-0.031,0c-26.376,0-47.757,22.021-47.757,49.187c0,6.958,1.41,13.573,3.939,19.573
		h50.187V91.424l-7.214,6.998l-5.839-6.025l44.098-42.755l0.244,0.25l0.244-0.25l13.759,13.34V48.356h11.768v26.034l18.571,18.006
		l-5.841,6.025l-7.36-7.138v25.049h88.015c0.842-3.187,1.296-6.535,1.296-9.985C216.877,84.732,199.295,67.211,177.609,67.211z"/>
</g>
</svg>
