<?xml version="1.0" encoding="utf-8"?>
<!-- Generator: Adobe Illustrator 16.0.0, SVG Export Plug-In . SVG Version: 6.00 Build 0)  -->
<!DOCTYPE svg PUBLIC "-//W3C//DTD SVG 1.1//EN" "http://www.w3.org/Graphics/SVG/1.1/DTD/svg11.dtd">
<svg version="1.1" xmlns="http://www.w3.org/2000/svg" xmlns:xlink="http://www.w3.org/1999/xlink" x="0px" y="0px" width="200px"
	 height="200px" viewBox="0 0 200 200" enable-background="new 0 0 200 200" xml:space="preserve">
<g id="codecamp" display="none">
	<g display="inline">
		<path fill-rule="evenodd" clip-rule="evenodd" fill="#E65A26" d="M151.014,116.341c-1.082,0.507-2.039,1.009-3.036,1.413
			c-5.238,2.118-10.433,4.355-15.746,6.267c-4.244,1.526-8.603,2.764-12.969,3.91c-3.828,1.004-7.756,1.501-11.732,1.661
			c-3.342,0.134-6.027-1.058-8.319-3.395c-2.318-2.362-4.153-5.071-5.796-7.922c-3.363-5.839-6.001-12.013-8.285-18.335
			c-1.643-4.546-3.195-9.128-4.664-13.733c-1.09-3.42-1.996-6.901-2.955-10.362c-0.549-1.979-1.04-3.976-1.55-5.967
			c-0.06-0.23-0.075-0.473-0.128-0.821c1.178,0.131,2.247,0.265,3.321,0.367c2.276,0.218,4.548,0.485,6.829,0.615
			c4.819,0.274,9.649,0.354,14.464-0.002c3.312-0.245,6.628-0.603,9.901-1.151c3.223-0.539,6.397-1.375,9.587-2.105
			c0.504-0.115,0.674,0.108,0.859,0.507c2.016,4.324,3.983,8.672,6.092,12.952c2.388,4.846,4.658,9.776,7.424,14.405
			c4.57,7.646,9.837,14.819,16.194,21.126C150.65,115.911,150.775,116.07,151.014,116.341z"/>
		<path fill-rule="evenodd" clip-rule="evenodd" fill="#E65A26" d="M48.763,110.517c6.439-6.096,10.687-13.597,14.735-21.225
			c3.279-6.178,6.12-12.562,8.776-19.029c0.094-0.229,0.198-0.452,0.334-0.764c0.116,0.186,0.228,0.297,0.262,0.428
			c0.896,3.501,1.718,7.025,2.695,10.504c1.11,3.958,2.235,7.919,3.575,11.803c1.855,5.38,3.806,10.734,5.924,16.016
			c2.165,5.402,4.75,10.624,8.169,15.362c1.344,1.861,2.975,3.517,4.475,5.266c0.07,0.081,0.14,0.163,0.149,0.375
			c-0.332-0.088-0.665-0.173-0.997-0.263c-3.978-1.07-7.88-2.361-11.612-4.12c-1.103-0.521-2.159-1.14-3.231-1.724
			c-2.711-1.477-4.308-3.865-5.413-6.65c-1.304-3.288-2.289-6.673-2.895-10.153c-0.675-3.873-1.302-7.757-1.812-11.655
			c-0.267-2.036-0.237-4.11-0.343-6.167c-0.014-0.259-0.037-0.517-0.057-0.775c-0.062-0.016-0.123-0.031-0.185-0.047
			c-0.095,0.174-0.244,0.338-0.273,0.522c-0.26,1.653-0.498,3.31-0.742,4.965c-0.364,2.483-0.712,4.969-1.097,7.449
			c-0.33,2.121-0.618,4.254-1.078,6.35c-0.558,2.534-1.176,5.063-1.959,7.533c-0.571,1.799-1.718,2.171-3.909,1.743
			c-2.62-0.511-5.064-1.51-7.46-2.632c-1.842-0.863-3.638-1.824-5.451-2.748C49.146,110.782,48.968,110.647,48.763,110.517z
			 M56.469,105.104c2.786,2.725,5.472,5.355,7.272,8.727c0.074-0.018,0.148-0.036,0.224-0.054
			c1.488-8.382,2.976-16.765,4.464-25.146c-0.058-0.023-0.114-0.048-0.172-0.071c-0.132,0.213-0.285,0.417-0.393,0.642
			c-1.881,3.938-3.777,7.873-6.327,11.437C60.235,102.458,58.922,104.3,56.469,105.104z"/>
	</g>
	<g display="inline">
		<path fill="#E65A26" d="M21.396,96.708c11.043,0,12.598-6.065,12.598-11.51c0-4.354-0.622-8.709-1.244-13.063
			c-0.622-4.355-1.244-8.554-1.244-12.908c0-14.309,9.332-20.375,22.551-20.375h3.266v8.554h-2.799
			c-9.176,0-12.287,4.976-12.287,13.375c0,3.577,0.467,7.31,1.089,11.042c0.622,3.888,1.089,7.621,1.089,11.82
			c0.155,9.954-4.2,14.931-11.198,16.798v0.311c6.999,1.71,11.354,6.998,11.198,16.952c0,4.2-0.467,8.087-1.089,11.82
			c-0.623,3.888-1.089,7.465-1.089,11.198c0,8.709,3.578,13.53,12.287,13.53h2.799v8.554h-3.266
			c-12.908,0-22.551-5.599-22.551-21.307c0-4.199,0.622-8.554,1.244-12.753c0.622-4.199,1.244-8.399,1.244-12.598
			c0-4.821-1.555-11.509-12.598-11.509V96.708z"/>
		<path fill="#E65A26" d="M179.771,104.64c-11.042,0-12.598,6.688-12.598,11.509c0,4.199,0.622,8.399,1.244,12.598
			c0.623,4.199,1.245,8.554,1.245,12.753c0,15.708-9.799,21.307-22.552,21.307h-3.266v-8.554h2.644
			c8.709-0.155,12.442-4.821,12.442-13.53c0-3.733-0.622-7.31-1.089-11.198c-0.622-3.733-1.245-7.621-1.245-11.82
			c0-9.954,4.355-15.242,11.198-16.952v-0.311c-6.843-1.867-11.198-6.844-11.198-16.798c0-4.199,0.623-7.932,1.245-11.82
			c0.467-3.732,1.089-7.465,1.089-11.042c0-8.399-3.266-13.22-12.287-13.375h-2.799v-8.554h3.111
			c13.22,0,22.707,6.065,22.707,20.375c0,4.354-0.622,8.553-1.245,12.908c-0.622,4.354-1.244,8.709-1.244,13.063
			c0,5.444,1.555,11.51,12.598,11.51V104.64z"/>
	</g>
</g>
<g id="training" display="none">
	<g display="inline">
		<g>
			<path fill-rule="evenodd" clip-rule="evenodd" fill="#E65A26" d="M65.065,73.92c-0.09,1.067-0.211,1.877-0.219,2.69
				c-0.234,17.755-0.465,35.51-0.668,53.265c-0.125,10.795-0.184,21.592-0.32,32.385c-0.02,1.613-0.121,3.266-0.508,4.823
				c-0.762,3.086-3.094,4.579-6.267,4.271c-2.915-0.285-4.879-2.297-5.122-5.37c-0.766-9.595-1.473-19.195-2.258-28.788
				c-0.414-5.065-0.934-10.123-1.411-15.182c-0.016-0.207-0.051-0.414-0.074-0.621c-0.117-1.049-0.75-1.583-1.758-1.559
				c-0.993,0.021-1.45,0.633-1.528,1.622c-0.52,6.644-1.137,13.283-1.582,19.933c-0.524,7.818-0.887,15.646-1.356,23.465
				c-0.285,4.796-3.754,7.548-8.166,6.539c-1.645-0.377-2.938-1.331-3.551-2.877c-0.574-1.448-1.148-3.006-1.199-4.534
				c-0.391-11.623-0.653-23.248-0.958-34.873c-0.102-3.875-0.184-7.751-0.34-11.623c-0.023-0.576-0.27-1.258-0.648-1.684
				c-3.153-3.56-4.383-7.726-4.333-12.43c0.105-9.46,0.051-18.923,0.133-28.385c0.027-2.786,0.355-5.569,0.438-8.357
				c0.063-2.188,1.152-3.442,3.149-4.134c5.888-2.037,11.814-3.663,18.144-3.694c6.856-0.035,13.667,0.398,20.453,1.205
				c1.489,0.178,2.946,0.825,4.36,1.403c2.922,1.195,5.786,2.538,8.708,3.729c3.016,1.229,6.032,0.617,9.08-0.051
				c3.661-0.799,7.36-1.42,11.06-2.035c4.665-0.782,8.544,3.649,7.208,8.188c-0.609,2.079-2.125,3.347-4.13,3.798
				c-5.563,1.248-11.166,2.291-16.733,3.52c-4.974,1.1-9.33-0.988-13.807-2.477C68.984,75.454,67.148,74.7,65.065,73.92z"/>
			<path fill-rule="evenodd" clip-rule="evenodd" fill="#E65A26" d="M87.769,83.965c0.023,0.564,0.066,1.049,0.066,1.533
				c0.004,6.669,0,13.336,0.012,20.005c0,0.662,0.055,1.333,0.164,1.987c0.234,1.395,1.102,2.211,2.485,2.442
				c0.609,0.1,1.242,0.137,1.863,0.139c23.465,0.008,46.93,0.012,70.395,0.006c3.012,0,4.141-1.149,4.141-4.181
				c0.004-16.921,0-33.843,0-50.764c0-1.7-0.008-1.709-1.704-1.709c-25.258-0.002-50.516,0.006-75.774-0.027
				c-1.246,0-1.77,0.322-1.594,1.614c0.09,0.654,0.035,1.33,0.02,1.999c-0.063,2.762,0.422,2.119-2.34,2.77
				c-1.086,0.254-2.188,0.424-3.528,0.68c0-1.95-0.066-3.729,0.027-5.499c0.059-1.182-0.277-1.6-1.516-1.573
				c-2.059,0.047-3.356-1.236-3.352-3.065c0.004-1.781,1.336-2.926,3.465-2.928c13.877-0.006,27.759,0.002,41.636-0.01
				c2.125,0,1.824,0.195,1.863-1.887c0.008-0.375-0.004-0.75,0.004-1.125c0.055-2.194,1.2-3.329,3.336-3.313
				c2.071,0.016,3.118,1.115,3.165,3.321c0.071,3.014,0.071,3.012,3.146,3.012c13.17-0.002,26.34-0.006,39.51-0.006
				c0.5,0,1.004-0.016,1.5,0.016c1.684,0.109,2.926,1.262,3.02,2.776c0.098,1.565-1.075,2.928-2.743,3.196
				c-2.165,0.348-2.165,0.348-2.165,2.567c-0.004,16.546,0.004,33.091-0.012,49.639c-0.004,5.188-2.856,9.046-7.626,10.281
				c-0.992,0.256-2.063,0.305-3.098,0.309c-7.751,0.023-15.502,0.012-23.254,0.014c-1.648,0.002-1.652,0.008-1.707,1.646
				c-0.02,0.541,0.008,1.084-0.02,1.624c-0.051,0.867,0.184,1.441,1.078,1.856c1.137,0.527,1.461,1.646,1.391,2.852
				c-0.063,1.116-0.508,1.567-2.407,2.44c0.379,0.506,0.711,1.006,1.102,1.458c8.849,10.306,17.722,20.591,26.532,30.933
				c0.648,0.762,1.079,1.891,1.18,2.893c0.141,1.374-0.977,2.59-2.352,3.042c-1.516,0.495-2.7-0.094-3.665-1.213
				c-4.954-5.743-9.896-11.496-14.838-17.249c-5.516-6.413-11.025-12.83-16.542-19.243c-1.032-1.2-1.793-1.141-2.942,0.197
				c-10.318,12.012-20.64,24.02-30.955,36.037c-0.98,1.141-2.071,1.977-3.672,1.516c-2.637-0.758-3.52-3.528-1.75-5.627
				c2.899-3.442,5.856-6.833,8.791-10.246c6.279-7.3,12.553-14.598,18.824-21.9c0.184-0.213,0.328-0.456,0.551-0.768
				c-1.355-0.418-2.504-0.912-2.489-2.581c0.012-1.273,0.512-2.211,1.629-2.711c0.754-0.336,0.957-0.799,0.906-1.549
				c-0.047-0.748-0.066-1.504,0.004-2.249c0.09-0.99-0.293-1.297-1.273-1.291c-5.794,0.035-11.588,0.016-17.382,0.014
				c-2.25,0-4.501,0.008-6.751,0c-5.692-0.02-10.201-4.423-10.244-10.105c-0.051-6.71-0.004-13.42-0.031-20.13
				c-0.004-0.818,0.211-1.205,1.086-1.277C84.506,84.417,86.065,84.176,87.769,83.965z"/>
			<path fill-rule="evenodd" clip-rule="evenodd" fill="#E65A26" d="M45.746,53.405c-6.872,0.217-13.545-6.347-13.764-13.541
				c-0.215-7.025,6.036-13.602,13.115-13.797c7.728-0.215,14.096,5.769,14.362,13.418C59.686,45.889,53.575,53.507,45.746,53.405z"
				/>
		</g>
		<g>
			<path fill="#E65A26" d="M116.629,78.824l-8.154,4.698l8.154,4.682v5.991L98.09,83.522l18.539-10.672V78.824z"/>
			<path fill="#E65A26" d="M142.238,65.452l-10.783,31.439h-5.364l10.771-31.439H142.238z"/>
			<path fill="#E65A26" d="M161.226,83.522l-18.538,10.673v-5.991l8.153-4.682l-8.153-4.698V72.85L161.226,83.522z"/>
		</g>
	</g>
</g>
<g id="meetup" display="none">
	<path display="inline" fill-rule="evenodd" clip-rule="evenodd" fill="#E65A26" d="M67.798,97.054c-0.001,0-0.003,0-0.005,0
		c0,5.358-0.065,10.719,0.018,16.077c0.1,6.396,2.958,11.357,8.666,14.176c2.357,1.164,2.977,2.557,3.22,4.887
		c0.652,6.265,1.555,12.5,2.343,18.75c0.642,5.091,1.32,10.175,1.872,15.274c0.453,4.178,3.822,7.406,8.029,7.427
		c5.396,0.025,10.792,0.027,16.189-0.002c4.188-0.023,7.611-3.292,7.999-7.46c0.261-2.815,0.619-5.622,0.972-8.429
		c1.177-9.355,2.382-18.708,3.54-28.067c0.096-0.775,0.343-1.162,1.105-1.453c6.295-2.403,10.432-8.15,10.473-14.758
		c0.066-10.869,0.08-21.738-0.003-32.605c-0.057-7.564-5.247-13.854-12.606-15.569c-3.497-0.814-6.606-0.324-9.284,2.346
		c-1.351,1.346-2.952,2.469-4.545,3.536c-3.545,2.375-7.151,2.381-10.656-0.109c-1.782-1.266-3.459-2.676-5.216-3.979
		c-2.348-1.745-5.022-2.469-7.898-2.04c-8.578,1.284-14.169,7.808-14.207,16.489C67.781,86.715,67.798,91.884,67.798,97.054z
		 M61.064,74.916c-0.798,0.592-1.645,1.262-2.532,1.871c-3.527,2.42-6.219,2.415-9.685-0.061c-1.196-0.854-2.323-1.805-3.479-2.715
		c-1.642-1.293-3.537-1.871-5.592-1.783c-6.741,0.289-12.177,5.864-12.221,12.609c-0.056,8.681-0.025,17.362-0.013,26.043
		c0.007,5.177,3.208,9.898,8.054,11.791c0.852,0.332,1.123,0.818,1.224,1.633c1.204,9.697,2.432,19.39,3.646,29.083
		c0.407,3.252,2.972,5.704,6.25,5.755c4.415,0.07,8.833,0.074,13.247-0.004c3.215-0.055,5.765-2.497,6.167-5.704
		c0.892-7.111,1.771-14.225,2.685-21.334c0.097-0.752-0.082-1.246-0.647-1.77c-5.097-4.718-7.631-10.557-7.596-17.511
		c0.021-4.077,0.003-8.154,0.003-12.229c0-6.001-0.047-12.004,0.022-18.003C60.626,80.043,60.9,77.502,61.064,74.916z
		 M138.582,73.89c0.297,2.334,0.815,4.603,0.834,6.875c0.09,10.867,0.075,21.736,0.033,32.605
		c-0.026,6.694-2.601,12.32-7.481,16.874c-0.661,0.617-0.864,1.186-0.75,2.057c0.913,6.996,1.786,13.995,2.669,20.992
		c0.444,3.511,3.06,5.857,6.605,5.875c4.151,0.02,8.302,0.021,12.453-0.008c3.665-0.025,6.259-2.436,6.658-6.076
		c0.259-2.361,0.561-4.719,0.857-7.077c0.907-7.224,1.838-14.444,2.71-21.671c0.11-0.915,0.465-1.344,1.319-1.68
		c4.783-1.883,7.991-6.581,8.005-11.711c0.024-8.681,0.034-17.36-0.004-26.04c-0.027-6.214-4.664-11.545-10.802-12.568
		c-2.544-0.424-4.741,0.111-6.656,1.958c-1.159,1.117-2.496,2.072-3.838,2.973c-1.506,1.008-3.236,1.678-5.036,1.206
		c-1.387-0.363-2.727-1.064-3.958-1.825C140.897,75.842,139.746,74.791,138.582,73.89z M84.354,44.739
		c-0.087,8.859,7.08,16.052,16.097,16.155c8.708,0.098,15.997-7.128,16.08-15.946c0.082-8.791-7.004-16.157-15.643-16.26
		C91.692,28.58,84.444,35.616,84.354,44.739z M134.2,56.114c0.025,7.142,5.772,12.848,12.917,12.825
		c7.109-0.025,12.867-5.815,12.854-12.928c-0.013-7.067-5.854-12.855-12.955-12.84C139.906,43.188,134.176,48.976,134.2,56.114z
		 M40.79,56.067c0.045,7.197,5.742,12.885,12.888,12.868c7.118-0.018,12.9-5.841,12.844-12.934
		c-0.058-7.13-5.833-12.844-12.969-12.828C46.517,43.188,40.747,49.019,40.79,56.067z"/>
	<path display="inline" fill-rule="evenodd" clip-rule="evenodd" fill="#E65A26" d="M67.798,97.054c0-5.17-0.018-10.339,0.005-15.51
		c0.037-8.681,5.629-15.206,14.207-16.489c2.875-0.43,5.55,0.295,7.898,2.04c1.756,1.303,3.434,2.713,5.216,3.979
		c3.504,2.491,7.11,2.485,10.656,0.109c1.593-1.066,3.194-2.189,4.545-3.536c2.677-2.67,5.787-3.161,9.284-2.346
		c7.36,1.715,12.55,8.005,12.606,15.569c0.083,10.867,0.069,21.736,0.003,32.605c-0.041,6.608-4.178,12.355-10.473,14.758
		c-0.762,0.291-1.009,0.678-1.105,1.453c-1.157,9.359-2.362,18.712-3.54,28.067c-0.353,2.807-0.711,5.614-0.972,8.429
		c-0.388,4.168-3.81,7.437-7.999,7.46c-5.396,0.029-10.793,0.027-16.189,0.002c-4.207-0.021-7.576-3.249-8.029-7.427
		c-0.552-5.099-1.23-10.183-1.872-15.274c-0.788-6.249-1.691-12.485-2.343-18.75c-0.243-2.331-0.863-3.723-3.22-4.887
		c-5.707-2.819-8.566-7.781-8.666-14.176c-0.083-5.358-0.018-10.719-0.018-16.077C67.795,97.054,67.797,97.054,67.798,97.054z"/>
	<path display="inline" fill-rule="evenodd" clip-rule="evenodd" fill="#E65A26" d="M61.064,74.916
		c-0.164,2.586-0.438,5.127-0.467,7.673c-0.069,5.999-0.022,12.002-0.022,18.003c0,4.075,0.018,8.152-0.003,12.229
		c-0.035,6.954,2.5,12.793,7.596,17.511c0.565,0.523,0.744,1.018,0.647,1.77c-0.915,7.109-1.793,14.223-2.685,21.334
		c-0.402,3.208-2.952,5.649-6.167,5.704c-4.414,0.078-8.832,0.074-13.247,0.004c-3.278-0.051-5.843-2.502-6.25-5.755
		c-1.214-9.693-2.442-19.386-3.646-29.083c-0.102-0.815-0.372-1.301-1.224-1.633c-4.846-1.893-8.047-6.614-8.054-11.791
		C27.53,102.2,27.5,93.519,27.556,84.837c0.044-6.745,5.48-12.32,12.221-12.609c2.055-0.088,3.95,0.49,5.592,1.783
		c1.156,0.911,2.283,1.862,3.479,2.715c3.466,2.475,6.158,2.481,9.685,0.061C59.419,76.178,60.266,75.508,61.064,74.916z"/>
	<path display="inline" fill-rule="evenodd" clip-rule="evenodd" fill="#E65A26" d="M138.582,73.89
		c1.164,0.901,2.315,1.952,3.62,2.756c1.231,0.76,2.572,1.461,3.958,1.825c1.8,0.473,3.53-0.197,5.036-1.206
		c1.343-0.9,2.679-1.855,3.838-2.973c1.915-1.846,4.111-2.381,6.656-1.958c6.139,1.023,10.775,6.354,10.802,12.568
		c0.038,8.679,0.028,17.358,0.004,26.04c-0.015,5.13-3.222,9.828-8.005,11.711c-0.854,0.336-1.209,0.766-1.319,1.68
		c-0.872,7.228-1.803,14.448-2.71,21.671c-0.297,2.358-0.599,4.716-0.857,7.077c-0.398,3.64-2.993,6.05-6.658,6.076
		c-4.151,0.029-8.302,0.027-12.453,0.008c-3.545-0.018-6.161-2.364-6.605-5.875c-0.884-6.997-1.756-13.996-2.669-20.992
		c-0.114-0.871,0.089-1.439,0.75-2.057c4.88-4.554,7.455-10.18,7.481-16.874c0.042-10.869,0.057-21.738-0.033-32.605
		C139.397,78.493,138.879,76.225,138.582,73.89z"/>
	<path display="inline" fill-rule="evenodd" clip-rule="evenodd" fill="#E65A26" d="M84.354,44.739
		c0.09-9.123,7.338-16.159,16.533-16.051c8.639,0.104,15.725,7.47,15.643,16.26c-0.083,8.818-7.371,16.044-16.08,15.946
		C91.434,60.791,84.267,53.598,84.354,44.739z"/>
	<path display="inline" fill-rule="evenodd" clip-rule="evenodd" fill="#E65A26" d="M134.2,56.114
		c-0.024-7.138,5.706-12.926,12.815-12.943c7.102-0.016,12.942,5.772,12.955,12.84c0.014,7.113-5.744,12.903-12.854,12.928
		C139.973,68.962,134.226,63.256,134.2,56.114z"/>
	<path display="inline" fill-rule="evenodd" clip-rule="evenodd" fill="#E65A26" d="M40.79,56.067
		c-0.043-7.048,5.727-12.879,12.763-12.895C60.689,43.157,66.464,48.871,66.522,56c0.057,7.093-5.726,12.917-12.844,12.934
		C46.532,68.952,40.835,63.264,40.79,56.067z"/>
</g>
<g id="consulting" display="none">
	<g display="inline">
		<path fill="#E65A26" d="M71.967,79.888c3.766,1.302,7.642,1.546,11.594,1.028c0.725-0.095,1.623,0.084,2.252,0.457
			c8.966,5.301,18.171,6.023,27.411,1.024c9.349-5.058,14.081-13.167,14.491-23.282c-0.088-1.69-0.113-2.826-0.219-3.954
			c-0.063-0.673-0.238-1.337-0.391-1.999c-2.25-9.756-7.916-16.716-17.21-20.316c-7.017-2.716-14.131-2.486-21.005,0.83
			c-8.335,4.017-13.461,10.643-15.282,19.7c-1.25,6.229-0.293,12.277,2.614,17.945c0.484,0.946,0.314,1.498-0.447,2.06
			c-1.416,1.046-2.874,2.045-4.209,3.187c-0.555,0.472-1.186,1.283-1.145,1.897C70.455,78.984,71.331,79.667,71.967,79.888z
			 M116.936,54.004c2.542-0.005,4.579,2.023,4.565,4.543c-0.014,2.633-2.014,4.635-4.638,4.643
			c-2.401,0.006-4.588-2.222-4.549-4.638C112.353,56.053,114.431,54.008,116.936,54.004z M100.511,54.019
			c2.477,0.006,4.586,2.147,4.543,4.62c-0.041,2.398-2.272,4.614-4.641,4.613c-2.473-0.002-4.56-2.128-4.54-4.627
			C95.897,55.957,97.853,54.015,100.511,54.019z M83.79,54.005c2.577,0.007,4.5,1.966,4.493,4.579
			c-0.004,2.708-1.922,4.62-4.61,4.592c-2.442-0.024-4.563-2.211-4.513-4.649C79.212,56.025,81.289,53.998,83.79,54.005z"/>
		<path fill="#E65A26" d="M43.498,83.824c5.708,0.055,9.927-4.117,9.984-9.871c0.053-5.459-4.325-9.901-9.841-9.986
			c-5.288-0.082-9.782,4.409-9.854,9.845C33.714,79.453,37.902,83.771,43.498,83.824z"/>
		<path fill="#E65A26" d="M157.353,83.826c5.61,0.071,9.957-4.167,9.99-9.741c0.031-5.533-4.329-10.074-9.721-10.122
			c-5.446-0.048-9.941,4.389-9.982,9.854C147.599,79.496,151.73,83.754,157.353,83.826z"/>
		<path fill="#E65A26" d="M64.935,143.695c-0.893-0.252-1.867-0.3-2.801-0.29c-5.938,0.06-11.883,0.325-17.817,0.188
			c-3.434-0.08-6.516-1.504-9.159-3.859c-3.544-3.159-4.815-7.326-5.485-11.791c-1.154-7.693-2.272-15.391-3.412-23.087
			c-0.307-2.069-1.737-3.741-3.47-4.085c-1.73-0.345-3.761,0.34-4.458,2.064c-0.537,1.328-0.572,3-0.381,4.46
			c0.649,4.928,1.442,9.84,2.285,14.742c0.805,4.669,1.375,9.425,2.706,13.949c2.015,6.853,6.74,11.56,13.254,14.344
			c4.43,1.894,9.162,2.201,13.793,2.247c4.534-0.193,8.945-0.379,13.356-0.577c0.402-0.018,0.807-0.102,1.199-0.194
			c1.879-0.438,3.297-2.186,3.368-4.124C67.97,146.093,66.619,144.173,64.935,143.695z"/>
		<path fill="#E65A26" d="M143.014,138.678c0-0.006,0-0.01,0-0.016c3.563,0,7.132,0.101,10.691-0.026
			c4.155-0.147,7.972-1.298,9.878-5.434c0.828-1.797,1.219-3.897,1.375-5.895c0.391-5.105,0.523-10.231,0.793-15.35
			c0.238-4.573,0.727-9.144,0.727-13.717c0-3.956-2.086-6.911-5.708-8.524c-3.561-1.585-6.966-1.175-9.986,1.408
			c-2.446,2.094-3.233,4.982-3.442,8.026c-0.516,7.507-0.958,15.02-1.356,22.534c-0.066,1.247-0.422,1.72-1.715,1.78
			c-5.858,0.274-11.711,0.633-17.563,0.999c-3.983,0.249-5.745,1.888-6.48,5.8c-1.43,7.615-2.903,15.222-4.333,22.836
			c-0.434,2.314-0.906,4.633-1.145,6.97c-0.262,2.594,1.243,4.448,3.954,5.254c2.467,0.732,4.297,0.027,5.548-2.34
			c0.582-1.106,0.977-2.341,1.281-3.561c1.618-6.458,3.196-12.925,4.745-19.401c0.244-1.018,0.717-1.383,1.77-1.367
			C135.705,138.713,139.357,138.678,143.014,138.678z"/>
		<path fill="#E65A26" d="M179.593,100.68c-2.36-0.181-4.405,1.297-4.745,3.492c-1.273,8.273-2.52,16.552-3.793,24.825
			c-0.402,2.612-1.063,5.137-2.518,7.398c-3.202,4.977-7.957,7.169-13.627,7.245c-5.63,0.076-11.264-0.283-16.896-0.395
			c-2.766-0.054-4.668,1.766-4.711,4.353c-0.043,2.418,1.734,4.25,4.407,4.393c4.366,0.233,8.736,0.391,14.542,0.643
			c1.497-0.177,4.438-0.318,7.294-0.898c10.994-2.235,17.921-9.5,19.789-20.656c1.031-6.159,1.941-12.337,2.887-18.51
			c0.399-2.591,0.879-5.181,1.079-7.789C183.458,102.674,181.63,100.837,179.593,100.68z"/>
		<path fill="#E65A26" d="M133.47,114.59c3.266-0.805,5.323-3.956,4.933-7.449c-0.358-3.185-3.085-5.673-6.39-5.69
			c-7.298-0.038-14.598-0.008-21.898-0.024c-3.467-0.008-6.937-0.088-10.406-0.086c-6.083,0.004-12.166,0.049-18.247,0.072
			c-4.235,0.017-8.474-0.038-12.705,0.063c-3.133,0.073-5.704,2.625-6.032,5.756c-0.456,4.358,2.575,7.742,7.04,7.764
			c7.488,0.034,14.975,0.037,22.463-0.007c1.293-0.008,1.709,0.413,1.697,1.72c-0.063,5.896-0.035,11.791-0.037,17.687
			c-0.002,9.297-0.006,18.595-0.002,27.892c0.002,2.131,0.694,2.836,2.836,2.859c2.479,0.025,4.96,0.011,7.441,0.015
			c2.452,0.003,3.081-0.647,3.081-3.171c-0.002-7.482-0.002-14.965-0.002-22.449c-0.006,0-0.01,0-0.014,0
			c0-7.62-0.004-15.239,0-22.857c0-1.85,0.047-1.901,1.907-1.903c7.353-0.006,14.706,0.002,22.056-0.012
			C131.952,114.767,132.739,114.771,133.47,114.59z"/>
		<path fill="#E65A26" d="M80.918,130.443c-0.793-4.195-2.536-5.753-6.737-5.996c-5.853-0.34-11.705-0.7-17.56-1.001
			c-1.012-0.052-1.44-0.37-1.463-1.434c-0.066-2.993-0.146-5.988-0.365-8.974c-0.391-5.376-0.727-10.767-1.391-16.112
			c-0.48-3.861-2.762-6.613-6.556-7.703c-3.629-1.043-6.849-0.072-9.527,2.635c-2.597,2.624-2.928,5.867-2.672,9.335
			c0.387,5.246,0.692,10.499,1.003,15.75c0.243,4.119,0.297,8.254,0.703,12.355c0.479,4.841,3.317,7.945,7.817,8.904
			c1.27,0.271,2.586,0.426,3.886,0.449c3.338,0.063,6.679,0.021,10.015,0.021c0,0.004,0,0.007,0,0.011
			c3.61,0,7.22,0.039,10.83-0.022c1.121-0.02,1.697,0.277,1.973,1.453c1.293,5.558,2.625,11.107,4.036,16.636
			c0.559,2.182,1.146,4.403,2.106,6.423c1.09,2.302,3.043,2.88,5.489,2.119c3.306-1.031,4.403-3.201,3.646-7.201
			C84.403,148.875,82.658,139.659,80.918,130.443z"/>
	</g>
	<path display="inline" fill-rule="evenodd" clip-rule="evenodd" fill="#E65A26" d="M107.241,139.54c0,7.483,0,14.966,0.002,22.449
		c0,2.524-0.629,3.174-3.081,3.171c-2.481-0.004-4.962,0.011-7.441-0.015c-2.143-0.022-2.834-0.728-2.836-2.859
		c-0.004-9.297,0-18.594,0.002-27.892c0.002-5.896-0.025-11.791,0.037-17.687c0.012-1.307-0.404-1.728-1.697-1.72
		c-7.488,0.044-14.975,0.041-22.463,0.007c-4.465-0.021-7.496-3.406-7.04-7.764c0.328-3.13,2.899-5.683,6.032-5.756
		c4.231-0.101,8.47-0.046,12.705-0.063c6.081-0.023,12.164-0.068,18.247-0.072c3.469-0.002,6.939,0.078,10.406,0.086
		c7.3,0.017,14.6-0.014,21.898,0.024c3.305,0.018,6.032,2.505,6.39,5.69c0.391,3.494-1.667,6.645-4.933,7.449
		c-0.73,0.181-1.518,0.177-2.28,0.178c-7.351,0.014-14.704,0.006-22.056,0.012c-1.86,0.002-1.907,0.053-1.907,1.903
		c-0.004,7.619,0,15.238,0,22.857C107.231,139.54,107.235,139.54,107.241,139.54z"/>
	<path display="inline" fill-rule="evenodd" clip-rule="evenodd" fill="#E65A26" d="M143.014,138.678
		c-3.657,0-7.31,0.035-10.965-0.022c-1.053-0.017-1.525,0.349-1.77,1.367c-1.549,6.476-3.127,12.943-4.745,19.401
		c-0.305,1.22-0.699,2.455-1.281,3.561c-1.25,2.368-3.081,3.073-5.548,2.34c-2.711-0.806-4.216-2.66-3.954-5.254
		c0.239-2.337,0.711-4.656,1.145-6.97c1.43-7.614,2.903-15.221,4.333-22.836c0.735-3.912,2.497-5.551,6.48-5.8
		c5.853-0.365,11.705-0.724,17.563-0.999c1.293-0.061,1.648-0.533,1.715-1.78c0.398-7.514,0.84-15.027,1.356-22.534
		c0.209-3.043,0.996-5.932,3.442-8.026c3.02-2.583,6.425-2.994,9.986-1.408c3.622,1.613,5.708,4.568,5.708,8.524
		c0,4.573-0.488,9.144-0.727,13.717c-0.27,5.118-0.402,10.244-0.793,15.35c-0.156,1.997-0.547,4.097-1.375,5.895
		c-1.906,4.136-5.724,5.287-9.878,5.434c-3.559,0.127-7.128,0.026-10.691,0.026C143.014,138.668,143.014,138.672,143.014,138.678z"
		/>
	<path display="inline" fill-rule="evenodd" clip-rule="evenodd" fill="#E65A26" d="M58.07,138.672
		c-3.336,0-6.677,0.041-10.015-0.021c-1.299-0.023-2.616-0.179-3.886-0.449c-4.5-0.959-7.339-4.063-7.817-8.904
		c-0.406-4.101-0.459-8.237-0.703-12.355c-0.311-5.251-0.616-10.504-1.003-15.75c-0.256-3.468,0.075-6.711,2.672-9.335
		c2.678-2.707,5.897-3.678,9.527-2.635c3.793,1.09,6.075,3.842,6.556,7.703c0.665,5.346,1,10.736,1.391,16.112
		c0.219,2.986,0.299,5.981,0.365,8.974c0.023,1.063,0.451,1.382,1.463,1.434c5.854,0.302,11.707,0.662,17.56,1.001
		c4.202,0.243,5.944,1.801,6.737,5.996c1.74,9.215,3.485,18.432,5.231,27.646c0.758,4-0.34,6.17-3.646,7.201
		c-2.445,0.762-4.399,0.184-5.489-2.119c-0.959-2.02-1.547-4.241-2.106-6.423c-1.411-5.528-2.743-11.078-4.036-16.636
		c-0.275-1.176-0.852-1.472-1.973-1.453c-3.61,0.062-7.22,0.022-10.83,0.022C58.07,138.679,58.07,138.676,58.07,138.672z"/>
	<path display="inline" fill-rule="evenodd" clip-rule="evenodd" fill="#E65A26" d="M152.25,152.633
		c-5.806-0.252-10.175-0.409-14.542-0.643c-2.672-0.144-4.45-1.975-4.407-4.393c0.043-2.586,1.945-4.406,4.711-4.353
		c5.632,0.111,11.266,0.471,16.896,0.395c5.671-0.076,10.426-2.268,13.627-7.245c1.455-2.261,2.116-4.786,2.518-7.398
		c1.273-8.273,2.52-16.552,3.793-24.825c0.34-2.195,2.385-3.673,4.745-3.492c2.037,0.157,3.866,1.994,3.706,4.101
		c-0.199,2.608-0.68,5.197-1.079,7.789c-0.945,6.173-1.855,12.351-2.887,18.51c-1.868,11.155-8.795,18.421-19.789,20.656
		C156.688,152.315,153.747,152.457,152.25,152.633z"/>
	<path display="inline" fill-rule="evenodd" clip-rule="evenodd" fill="#E65A26" d="M49.989,152.577
		c-4.631-0.046-9.363-0.353-13.793-2.247c-6.514-2.784-11.239-7.491-13.254-14.344c-1.331-4.523-1.901-9.279-2.706-13.949
		c-0.843-4.901-1.636-9.813-2.285-14.742c-0.191-1.46-0.156-3.132,0.381-4.46c0.697-1.725,2.728-2.41,4.458-2.064
		c1.733,0.345,3.164,2.017,3.47,4.085c1.139,7.696,2.257,15.394,3.412,23.087c0.67,4.465,1.941,8.632,5.485,11.791
		c2.643,2.355,5.725,3.779,9.159,3.859c5.935,0.137,11.879-0.129,17.817-0.188c0.934-0.01,1.909,0.038,2.801,0.29
		c1.684,0.478,3.036,2.398,2.977,3.986c-0.07,1.938-1.488,3.685-3.368,4.124c-0.393,0.093-0.797,0.177-1.199,0.194
		C58.934,152.198,54.523,152.383,49.989,152.577z"/>
	<path display="inline" fill-rule="evenodd" clip-rule="evenodd" fill="#E65A26" d="M53.481,73.953
		c-0.057,5.754-4.276,9.926-9.984,9.871c-5.596-0.053-9.784-4.371-9.711-10.012c0.072-5.437,4.566-9.927,9.854-9.845
		C49.157,64.052,53.534,68.494,53.481,73.953z"/>
	<path display="inline" fill-rule="evenodd" clip-rule="evenodd" fill="#E65A26" d="M147.64,73.817
		c0.041-5.465,4.536-9.902,9.982-9.854c5.392,0.048,9.752,4.588,9.721,10.122c-0.033,5.574-4.38,9.813-9.99,9.741
		C151.73,83.754,147.599,79.496,147.64,73.817z"/>
</g>
<g id="hackathon" display="none">
	<path display="inline" fill-rule="evenodd" clip-rule="evenodd" fill="#E65A26" d="M80.114,170.538c0-4.375-0.004-8.483,0-12.589
		c0-1.229-0.777-0.969-1.367-0.972c-4.021-0.016-8.041-0.009-12.061-0.009c-10.932,0.001-21.863-0.001-32.795,0.002
		c-4.071,0.002-6.034-2.308-6.034-7.137c-0.001-39.089,0-78.179,0.002-117.269c0.001-4.38,2.127-6.883,5.842-6.883
		c44.659-0.003,89.319-0.005,133.979-0.005c3.935,0,6.075,2.549,6.075,7.215c0,38.974,0,77.948,0,116.921
		c0,4.781-2.012,7.164-6.044,7.163c-14.756-0.003-29.513-0.005-44.269-0.007c-0.527,0-1.055,0-1.672,0c0,4.551,0,8.928,0,13.567
		c2.25,0,4.483-0.003,6.716,0.001c2.536,0.004,4.616,1.105,5.923,3.741c0.527,1.065,0.777,2.322,1.223,3.704
		c-22.893,0-45.511,0-68.128,0c-0.258-3.324,1.895-6.641,4.923-7.184c1.826-0.327,3.711-0.194,5.571-0.256
		C78.626,170.52,79.259,170.538,80.114,170.538z M36.188,34.888c0,31.954,0,63.705,0,95.448c43.145,0,86.197,0,129.232,0
		c0-31.877,0-63.624,0-95.448C122.309,34.888,79.296,34.888,36.188,34.888z M106.38,144.69c0-3.626-2.559-6.616-5.638-6.589
		c-3,0.026-5.513,3.016-5.513,6.561c0,3.627,2.575,6.643,5.634,6.599C103.868,151.217,106.38,148.224,106.38,144.69z"/>
	<path display="inline" fill-rule="evenodd" clip-rule="evenodd" fill="#E65A26" d="M78.552,54.69c0,0.985,0.064,1.977-0.01,2.954
		c-0.283,3.687-2.749,6.429-5.839,6.554c-3.018,0.123-5.747-2.517-6.079-6.198c-0.209-2.287-0.207-4.646,0.01-6.931
		c0.346-3.666,3.12-6.292,6.132-6.123c3.104,0.175,5.519,2.91,5.782,6.617c0.074,1.036,0.012,2.085,0.012,3.128
		C78.558,54.69,78.556,54.69,78.552,54.69z M74.568,54.668c-0.002,0-0.002,0-0.006,0c0-0.923,0.078-1.858-0.018-2.767
		c-0.139-1.295-0.818-2.136-1.943-2.155c-1.194-0.021-1.958,0.829-2.036,2.213c-0.102,1.723-0.09,3.464,0,5.189
		c0.074,1.39,0.82,2.241,2.016,2.24c1.129-0.001,1.809-0.845,1.967-2.127C74.652,56.413,74.568,55.533,74.568,54.668z"/>
	<path display="inline" fill-rule="evenodd" clip-rule="evenodd" fill="#E65A26" d="M116.113,54.621c0,0.81,0.012,1.619-0.002,2.428
		c-0.064,4.016-2.772,7.195-6.077,7.15c-3.286-0.043-5.916-3.134-5.99-7.082c-0.031-1.733-0.047-3.47,0-5.203
		c0.102-3.915,2.825-7.02,6.08-6.983c3.274,0.039,5.911,3.155,5.989,7.088C116.128,52.886,116.115,53.753,116.113,54.621z
		 M108.104,54.422c0.004,0,0.01,0,0.016,0c0,0.979-0.074,1.967,0.018,2.934c0.127,1.347,0.893,2.053,1.999,2.023
		c1.037-0.026,1.805-0.72,1.867-1.992c0.09-1.836,0.092-3.687,0.02-5.524c-0.055-1.352-0.838-2.114-1.934-2.113
		c-1.172,0.001-1.899,0.815-1.977,2.253C108.068,52.807,108.104,53.616,108.104,54.422z"/>
	<path display="inline" fill-rule="evenodd" clip-rule="evenodd" fill="#E65A26" d="M116.107,110.65
		c-0.002,0.986,0.035,1.974-0.006,2.958c-0.156,3.625-2.813,6.623-5.896,6.692c-3.155,0.071-5.96-2.875-6.136-6.568
		c-0.096-2.023-0.102-4.063-0.006-6.086c0.18-3.753,2.915-6.634,6.107-6.568c3.219,0.067,5.806,3.019,5.935,6.79
		C116.134,108.793,116.109,109.722,116.107,110.65z M112.045,110.613c0-0.868,0.047-1.743-0.01-2.606
		c-0.088-1.379-0.842-2.137-1.928-2.159c-1.092-0.022-1.909,0.716-1.969,2.09c-0.082,1.791-0.078,3.594-0.008,5.388
		c0.051,1.36,0.785,2.117,1.922,2.131c1.219,0.015,1.91-0.794,1.988-2.236C112.088,112.355,112.049,111.483,112.045,110.613z"/>
	<path display="inline" fill-rule="evenodd" clip-rule="evenodd" fill="#E65A26" d="M78.647,110.788
		c-0.053,1.185-0.033,2.352-0.166,3.496c-0.387,3.365-2.889,5.928-5.792,6.015c-2.817,0.085-5.589-2.261-5.95-5.531
		c-0.295-2.669-0.297-5.454-0.012-8.124c0.359-3.37,3.104-5.666,6.054-5.552c2.93,0.113,5.349,2.65,5.714,6.077
		C78.622,108.371,78.603,109.596,78.647,110.788z M74.58,110.908c-0.002,0-0.006,0-0.01,0c0-0.923,0.055-1.851-0.012-2.767
		c-0.102-1.399-0.801-2.218-1.98-2.312c-1.09-0.087-1.981,0.969-2.032,2.427c-0.055,1.613-0.053,3.232,0.006,4.844
		c0.049,1.39,0.693,2.26,1.905,2.37c1.125,0.103,2-0.856,2.113-2.313C74.627,112.412,74.58,111.658,74.58,110.908z"/>
	<path display="inline" fill-rule="evenodd" clip-rule="evenodd" fill="#E65A26" d="M122.821,82.554
		c0.002-0.813-0.01-1.624,0.004-2.436c0.066-3.925,2.598-7.019,5.813-7.111c3.25-0.093,6.013,2.784,6.228,6.63
		c0.113,1.963,0.117,3.949,0.008,5.912c-0.219,3.953-2.997,6.804-6.343,6.65c-3.176-0.146-5.64-3.175-5.71-7.035
		C122.805,84.294,122.821,83.424,122.821,82.554z M130.826,82.652c0-0.869,0.041-1.742-0.01-2.607
		c-0.08-1.352-0.729-2.132-1.874-2.204c-1.152-0.071-1.948,0.641-2.036,1.973c-0.121,1.842-0.119,3.709-0.018,5.553
		c0.072,1.34,0.887,2.101,2.002,2.055c1.18-0.049,1.883-0.881,1.932-2.336C130.85,84.275,130.83,83.463,130.826,82.652z"/>
	<path display="inline" fill-rule="evenodd" clip-rule="evenodd" fill="#E65A26" d="M97.332,82.596c0,0.813,0.012,1.625-0.002,2.436
		c-0.072,4.097-2.549,7.108-5.886,7.165c-3.407,0.058-6.062-2.937-6.185-7.034c-0.049-1.68-0.047-3.365,0-5.045
		c0.121-4.091,2.786-7.148,6.147-7.109c3.299,0.039,5.833,3.089,5.929,7.152c0.018,0.811,0.002,1.624,0.002,2.435
		C97.336,82.596,97.334,82.596,97.332,82.596z M89.323,82.632c0,0.812-0.023,1.624,0.004,2.434c0.051,1.446,0.731,2.291,1.922,2.349
		c1.125,0.055,1.934-0.704,2.016-2.037c0.111-1.843,0.123-3.711-0.006-5.551c-0.092-1.303-0.87-2.064-2.032-1.996
		c-1.146,0.066-1.797,0.854-1.889,2.193C89.278,80.889,89.327,81.763,89.323,82.632z"/>
	<path display="inline" fill-rule="evenodd" clip-rule="evenodd" fill="#E65A26" d="M141.617,54.313
		c0-0.986-0.063-1.978,0.012-2.955c0.273-3.564,2.733-6.265,5.786-6.415c2.917-0.144,5.687,2.329,6.048,5.812
		c0.262,2.504,0.262,5.107,0.004,7.612c-0.361,3.482-3.116,5.951-6.04,5.834c-3.016-0.121-5.509-2.845-5.794-6.413
		C141.539,56.639,141.617,55.471,141.617,54.313z M149.614,54.609c0-0.865,0.059-1.737-0.012-2.593c-0.115-1.393-0.809-2.25-2-2.265
		c-1.127-0.014-1.891,0.814-1.973,2.101c-0.115,1.833-0.125,3.696,0.02,5.524c0.098,1.275,0.895,2.075,2.027,2.013
		c1.118-0.062,1.793-0.878,1.918-2.187C149.677,56.349,149.61,55.475,149.614,54.609z"/>
	<path display="inline" fill-rule="evenodd" clip-rule="evenodd" fill="#E65A26" d="M153.736,110.844
		c-0.07,1.117-0.055,2.465-0.26,3.764c-0.541,3.435-3.233,5.861-6.169,5.683c-2.956-0.179-5.429-2.87-5.661-6.367
		c-0.139-2.074-0.131-4.175-0.025-6.254c0.182-3.649,2.586-6.386,5.616-6.571c3.151-0.193,5.769,2.223,6.284,5.893
		C153.688,108.183,153.662,109.412,153.736,110.844z M149.618,110.779c0-0.864,0.039-1.733-0.008-2.593
		c-0.082-1.411-0.777-2.292-1.946-2.337c-1.174-0.046-1.971,0.808-2.049,2.198c-0.1,1.778-0.111,3.58,0.02,5.353
		c0.094,1.271,0.822,2.097,1.982,2.068c1.217-0.03,1.868-0.885,1.985-2.268C149.669,112.4,149.614,111.586,149.618,110.779z"/>
	<path display="inline" fill-rule="evenodd" clip-rule="evenodd" fill="#E65A26" d="M60.015,82.623c0,0.986,0.051,1.975-0.01,2.956
		c-0.221,3.635-2.622,6.446-5.601,6.609c-3.19,0.174-5.89-2.175-6.276-5.86c-0.256-2.447-0.25-4.993,0.004-7.44
		c0.375-3.593,3.083-6.009,6.138-5.875c3.004,0.132,5.466,2.893,5.72,6.482c0.072,1.036,0.012,2.085,0.012,3.128
		C60.005,82.623,60.009,82.623,60.015,82.623z M56.019,82.529c0-0.863,0.084-1.741-0.02-2.587c-0.156-1.276-0.795-2.106-1.956-2.11
		c-1.223-0.005-1.945,0.831-2.021,2.207c-0.096,1.721-0.076,3.459,0.004,5.182c0.061,1.321,0.76,2.142,1.881,2.202
		c1.2,0.064,1.938-0.752,2.094-2.131C56.104,84.386,56.021,83.451,56.019,82.529z"/>
	<path display="inline" fill-rule="evenodd" clip-rule="evenodd" fill="#E65A26" d="M51.989,54.563c0-2.261-0.016-4.523,0.006-6.785
		c0.018-1.752,0.807-2.822,2.021-2.82c1.211,0.002,2.014,1.064,2.024,2.831c0.023,4.522,0.025,9.045-0.002,13.568
		c-0.01,1.766-0.822,2.826-2.034,2.824c-1.207-0.002-1.992-1.078-2.012-2.834C51.973,59.085,51.989,56.824,51.989,54.563z"/>
	<path display="inline" fill-rule="evenodd" clip-rule="evenodd" fill="#E65A26" d="M93.345,54.576
		c-0.002,2.26,0.025,4.521-0.01,6.78c-0.027,1.769-0.828,2.834-2.028,2.827c-1.195-0.008-1.981-1.098-1.985-2.843
		c-0.016-4.462-0.016-8.923-0.004-13.386c0.006-1.905,0.76-3,2.004-2.997c1.25,0.001,1.997,1.083,2.016,3.013
		C93.363,50.172,93.347,52.375,93.345,54.576z"/>
	<path display="inline" fill-rule="evenodd" clip-rule="evenodd" fill="#E65A26" d="M70.525,82.595
		c0.002-2.26-0.018-4.521,0.006-6.781c0.02-1.752,0.818-2.811,2.04-2.8c1.211,0.012,2.004,1.07,2.012,2.835
		c0.023,4.521,0.023,9.042,0,13.564c-0.012,1.791-0.791,2.787-2.047,2.774c-1.258-0.013-1.985-0.996-2.004-2.811
		C70.507,87.117,70.525,84.856,70.525,82.595z"/>
	<path display="inline" fill-rule="evenodd" clip-rule="evenodd" fill="#E65A26" d="M130.842,54.721
		c0,2.261,0.016,4.521-0.008,6.781c-0.016,1.607-0.829,2.678-1.971,2.691c-1.146,0.012-2.012-1.016-2.026-2.648
		c-0.037-4.694-0.027-9.389,0-14.083c0.01-1.492,0.704-2.402,1.985-2.49c1.156-0.08,1.989,1.016,2.012,2.621
		C130.863,49.968,130.842,52.345,130.842,54.721z"/>
	<path display="inline" fill-rule="evenodd" clip-rule="evenodd" fill="#E65A26" d="M149.622,82.663
		c0.002,2.261,0.023,4.521-0.006,6.782c-0.021,1.79-0.783,2.765-2.057,2.742c-1.188-0.021-1.971-0.992-1.982-2.668
		c-0.031-4.578-0.029-9.157-0.002-13.736c0.012-1.727,0.865-2.801,2.07-2.77c1.2,0.032,1.961,1.111,1.973,2.87
		C149.636,78.143,149.622,80.402,149.622,82.663z"/>
	<path display="inline" fill-rule="evenodd" clip-rule="evenodd" fill="#E65A26" d="M56.048,110.592c0,2.26,0.02,4.52-0.008,6.78
		c-0.02,1.832-0.879,2.977-2.11,2.913c-1.18-0.061-1.932-1.159-1.938-2.927c-0.014-4.462-0.014-8.925,0-13.388
		c0.008-1.832,0.711-2.828,1.949-2.873c1.297-0.047,2.079,0.995,2.1,2.887C56.067,106.186,56.048,108.389,56.048,110.592z"/>
	<path display="inline" fill-rule="evenodd" clip-rule="evenodd" fill="#E65A26" d="M93.345,110.727
		c0.002,2.143,0.014,4.287-0.002,6.431c-0.016,2.014-0.799,3.17-2.075,3.13c-1.215-0.038-1.946-1.171-1.95-3.068
		c-0.008-4.403-0.016-8.806-0.002-13.209c0.006-1.932,0.741-2.941,2.045-2.915c1.235,0.024,1.95,1.011,1.975,2.852
		C93.369,106.208,93.345,108.468,93.345,110.727z"/>
	<path display="inline" fill-rule="evenodd" clip-rule="evenodd" fill="#E65A26" d="M130.842,110.71
		c0,2.259,0.014,4.518-0.006,6.777c-0.014,1.712-0.846,2.829-2.03,2.802c-1.145-0.026-1.959-1.053-1.971-2.708
		c-0.033-4.633-0.037-9.269,0.002-13.904c0.016-1.673,0.829-2.606,2.038-2.584c1.205,0.021,1.942,0.985,1.959,2.664
		C130.859,106.076,130.84,108.394,130.842,110.71z"/>
	<path display="inline" fill-rule="evenodd" clip-rule="evenodd" fill="#E65A26" d="M108.084,82.572
		c-0.002-2.26-0.02-4.519,0.004-6.778c0.02-1.777,0.793-2.812,2.024-2.785c1.188,0.026,1.938,0.986,1.947,2.694
		c0.029,4.634,0.029,9.269-0.002,13.904c-0.01,1.688-0.785,2.61-2.012,2.583c-1.219-0.025-1.93-0.951-1.954-2.666
		C108.061,87.207,108.084,84.889,108.084,82.572z"/>
</g>
<g id="workshop" display="none">
	<path display="inline" fill-rule="evenodd" clip-rule="evenodd" fill="#E65A26" d="M109.643,104.78
		c3.884,3.868,7.72,7.609,11.451,11.454c1.219,1.252,2.208,1.733,4.138,1.325c5.618-1.19,10.419,0.644,13.885,5.256
		c3.458,4.604,3.903,9.719,1.25,14.816c-2.649,5.093-7.06,7.667-12.838,7.52c-9.197-0.235-15.584-9.068-12.979-17.884
		c0.246-0.829,0.086-1.272-0.473-1.827c-3.915-3.876-7.806-7.778-11.697-11.683c-0.258-0.26-0.438-0.6-0.684-0.942
		c-0.329,0.276-0.473,0.381-0.598,0.506c-4.11,4.105-8.208,8.221-12.338,12.306c-0.477,0.473-0.5,0.862-0.32,1.465
		c2.293,7.641-2.11,15.625-9.677,17.605c-7.833,2.049-15.526-2.573-17.362-10.436c-2.403-10.274,7.364-19.474,17.538-16.481
		c0.852,0.251,1.324,0.11,1.918-0.493c3.868-3.923,7.779-7.807,11.674-11.705c0.254-0.257,0.497-0.53,0.891-0.953
		c-1.04-0.979-2.059-1.902-3.036-2.866c-2.04-2.013-4.048-4.061-6.103-6.058c-0.258-0.249-0.813-0.47-1.106-0.361
		c-7.438,2.783-15.975-0.093-20.359-9.205c-1.059-2.201-1.848-4.478-1.738-6.963c0.082-1.882,0.813-3.426,2.52-4.523
		c0.945,1.348,1.805,2.649,2.738,3.89c1.254,1.664,2.504,3.336,3.872,4.905c2.606,2.989,7.271,2.99,10.142,0.079
		c2.829-2.864,2.821-7.543-0.18-10.054c-2.418-2.026-5.028-3.832-7.552-5.734c-0.383-0.287-0.77-0.568-1.204-0.887
		c1.059-1.71,2.661-2.292,4.47-2.365c11.283-0.447,19.898,11.096,16.272,21.748c-0.109,0.315-0.098,0.859,0.102,1.061
		c3.016,3.085,6.075,6.132,9.169,9.232c0.243-0.184,0.461-0.314,0.633-0.487c2.848-2.839,5.7-5.674,8.517-8.543
		c0.242-0.249,0.438-0.807,0.328-1.102c-2.633-7.162-0.031-15.599,8.4-19.823c2.418-1.212,4.922-2.12,7.673-2.088
		c2.122,0.024,3.59,0.788,4.61,2.385c-0.348,0.254-0.699,0.511-1.047,0.772c-2.5,1.875-5.067,3.666-7.485,5.644
		c-3.188,2.612-3.286,7.362-0.34,10.281c2.985,2.957,7.653,2.863,10.279-0.337c2.243-2.728,4.317-5.59,6.533-8.479
		c1.621,0.949,2.332,2.506,2.414,4.374c0.133,3.007-0.949,5.691-2.395,8.247c-2.555,4.522-6.162,7.702-11.408,8.697
		c-2.727,0.518-5.403,0.256-8.033-0.631c-0.352-0.117-0.945-0.133-1.161,0.078C115.863,98.534,112.823,101.598,109.643,104.78z
		 M127.427,138.215c4.837-0.004,7.552-3.139,7.576-7.71c0.016-2.599-3.758-6.344-6.302-6.311c-4.966,0.064-7.677,2.983-7.736,7.678
		C120.93,134.636,124.661,138.247,127.427,138.215z M75.45,138.211c2.801,0.108,6.63-3.467,6.618-6.296
		c-0.02-4.332-2.383-7.551-7.583-7.726c-2.52-0.085-6.446,3.594-6.454,6.271C68.019,134.84,70.531,138.133,75.45,138.211z"/>
	<g display="inline">
		<path fill="#E65A26" d="M21.106,96.708c11.041,0,12.596-6.065,12.596-11.51c0-4.354-0.621-8.709-1.242-13.063
			c-0.625-4.355-1.247-8.554-1.247-12.908c0-14.309,9.333-20.375,22.55-20.375h3.266v8.554h-2.797
			c-9.177,0-12.287,4.976-12.287,13.375c0,3.577,0.465,7.31,1.09,11.042c0.622,3.888,1.086,7.621,1.086,11.82
			c0.156,9.954-4.2,14.931-11.196,16.798v0.311c6.996,1.71,11.353,6.998,11.196,16.953c0,4.2-0.465,8.087-1.086,11.818
			c-0.625,3.889-1.09,7.466-1.09,11.199c0,8.71,3.579,13.531,12.287,13.531h2.797v8.552h-3.266c-12.908,0-22.55-5.599-22.55-21.306
			c0-4.198,0.622-8.554,1.247-12.754c0.621-4.198,1.242-8.398,1.242-12.596c0-4.821-1.555-11.51-12.596-11.51V96.708z"/>
		<path fill="#E65A26" d="M179.479,104.64c-11.044,0-12.6,6.688-12.6,11.51c0,4.198,0.625,8.398,1.246,12.596
			c0.622,4.2,1.243,8.556,1.243,12.754c0,15.708-9.799,21.306-22.551,21.306h-3.266v-8.552h2.645
			c8.708-0.156,12.443-4.821,12.443-13.531c0-3.733-0.625-7.31-1.09-11.199c-0.621-3.731-1.247-7.619-1.247-11.818
			c0-9.955,4.356-15.243,11.201-16.953v-0.311c-6.845-1.867-11.201-6.844-11.201-16.798c0-4.199,0.625-7.932,1.247-11.82
			c0.465-3.732,1.09-7.465,1.09-11.042c0-8.399-3.266-13.22-12.287-13.375h-2.801v-8.554h3.11c13.221,0,22.707,6.065,22.707,20.375
			c0,4.354-0.621,8.553-1.243,12.908c-0.621,4.354-1.246,8.709-1.246,13.063c0,5.444,1.555,11.51,12.6,11.51V104.64z"/>
	</g>
</g>
<g id="_x33_d_modeling" display="none">
	<g display="inline">
		<path fill-rule="evenodd" clip-rule="evenodd" fill="#FFFFFF" d="M31.846,131.39c0-6.196,0.026-12.392-0.015-18.588
			c-0.013-2.047,0.779-3.464,2.58-4.493c9.971-5.7,19.906-11.461,29.874-17.166c0.821-0.47,1.135-0.969,1.131-1.927
			c-0.035-11.416,0.001-22.832-0.043-34.248c-0.008-2.193,0.848-3.642,2.761-4.733c10.725-6.12,21.423-12.287,32.098-18.491
			c1.902-1.106,3.583-1.083,5.479,0.02c10.708,6.224,21.442,12.401,32.193,18.551c1.79,1.024,2.622,2.415,2.616,4.473
			c-0.03,11.454,0,22.907-0.037,34.36c-0.004,0.997,0.306,1.521,1.173,2.017c9.809,5.604,19.569,11.293,29.397,16.862
			c2.161,1.223,3.034,2.803,3.019,5.27c-0.076,12.205-0.058,24.409-0.013,36.613c0.008,2.145-0.777,3.597-2.659,4.67
			c-10.821,6.178-21.616,12.402-32.397,18.648c-1.707,0.989-3.257,1.005-4.969,0.015c-10.036-5.812-20.102-11.571-30.138-17.382
			c-0.722-0.418-1.222-0.389-1.928,0.019c-10.003,5.791-20.036,11.534-30.036,17.333c-1.75,1.014-3.322,1.007-5.07-0.006
			c-10.813-6.268-21.645-12.502-32.491-18.71c-1.754-1.004-2.549-2.399-2.538-4.404C31.868,143.857,31.846,137.623,31.846,131.39z
			 M162.063,112.169c-0.417-0.278-0.71-0.496-1.024-0.677c-7.87-4.535-15.749-9.055-23.604-13.615
			c-0.729-0.423-1.246-0.359-1.935,0.041c-7.827,4.535-15.67,9.041-23.508,13.557c-0.317,0.183-0.614,0.4-0.993,0.65
			c0.268,0.194,0.434,0.336,0.619,0.445c8.052,4.745,16.111,9.479,24.15,14.247c0.647,0.384,1.083,0.211,1.627-0.11
			c5.267-3.114,10.542-6.213,15.814-9.317C156.117,115.676,159.023,113.961,162.063,112.169z M94.978,112.154
			c-0.485-0.304-0.822-0.53-1.173-0.732c-7.764-4.478-15.537-8.941-23.285-13.449c-0.819-0.477-1.415-0.477-2.235,0
			c-7.715,4.489-15.457,8.932-23.19,13.391c-0.382,0.221-0.753,0.462-1.219,0.748c0.312,0.215,0.509,0.371,0.723,0.497
			c8.013,4.724,16.033,9.435,24.03,14.186c0.692,0.412,1.155,0.216,1.729-0.123c5.813-3.433,11.633-6.853,17.45-10.279
			C90.154,115.01,92.498,113.621,94.978,112.154z M77.412,54.109c0.345,0.257,0.508,0.404,0.695,0.514
			c8.045,4.742,16.099,9.47,24.128,14.237c0.667,0.396,1.086,0.174,1.623-0.143c7.883-4.648,15.772-9.285,23.658-13.929
			c0.3-0.177,0.575-0.4,0.9-0.63c-0.208-0.172-0.286-0.258-0.381-0.313c-8.124-4.681-16.254-9.351-24.365-14.053
			c-0.653-0.378-1.102-0.183-1.645,0.131c-4.837,2.799-9.681,5.584-14.523,8.373C84.193,50.205,80.882,52.111,77.412,54.109z
			 M73.511,61.18c-0.059,0.459-0.109,0.674-0.109,0.89c-0.004,9.197-0.015,18.395,0.032,27.592c0.002,0.43,0.422,1.031,0.817,1.262
			c7.848,4.566,15.72,9.091,23.589,13.62c0.299,0.172,0.625,0.299,1.116,0.531c0-0.632,0-1.038,0-1.444
			c0-8.709-0.021-17.418,0.028-26.127c0.005-1.059-0.377-1.598-1.243-2.102c-6.421-3.737-12.814-7.52-19.218-11.287
			C76.915,63.168,75.302,62.228,73.511,61.18z M140.508,163.081c0.384-0.181,0.552-0.247,0.706-0.336
			c8.031-4.622,16.056-9.254,24.097-13.858c0.62-0.355,0.777-0.793,0.777-1.456c-0.016-9.008-0.01-18.016-0.014-27.024
			c-0.001-0.353-0.054-0.706-0.095-1.229c-0.479,0.255-0.804,0.413-1.114,0.596c-7.728,4.546-15.445,9.11-23.191,13.625
			c-0.844,0.492-1.197,0.997-1.191,2.01c0.045,8.745,0.026,17.491,0.026,26.236C140.508,162.053,140.508,162.461,140.508,163.081z
			 M132.406,163.09c0.057-0.446,0.108-0.664,0.108-0.881c0.004-9.081,0.015-18.161-0.03-27.241
			c-0.002-0.441-0.395-1.058-0.786-1.291c-7.895-4.699-15.817-9.354-23.736-14.014c-0.268-0.157-0.564-0.264-0.931-0.433
			c-0.032,0.426-0.068,0.684-0.068,0.943c-0.003,9.118,0.008,18.236-0.024,27.354c-0.002,0.781,0.348,1.12,0.942,1.461
			c6.832,3.917,13.655,7.852,20.48,11.781C129.652,161.513,130.946,162.252,132.406,163.09z M73.397,163.043
			c0.425-0.185,0.668-0.264,0.885-0.389c7.936-4.569,15.865-9.15,23.811-13.702c0.639-0.366,0.875-0.775,0.873-1.509
			c-0.023-9.05-0.014-18.1-0.02-27.149c0-0.314-0.063-0.629-0.113-1.094c-0.459,0.246-0.786,0.405-1.098,0.588
			c-7.765,4.566-15.521,9.145-23.301,13.685c-0.784,0.457-1.061,0.971-1.058,1.87c0.033,8.787,0.02,17.574,0.02,26.361
			C73.397,162.098,73.397,162.492,73.397,163.043z M132.459,61.229c-0.458,0.216-0.701,0.308-0.922,0.438
			c-7.924,4.662-15.841,9.338-23.778,13.979c-0.662,0.387-0.812,0.843-0.81,1.542c0.018,8.861,0.01,17.721,0.013,26.583
			c0,0.387,0.038,0.773,0.069,1.339c0.535-0.296,0.892-0.485,1.241-0.687c7.708-4.437,15.409-8.886,23.134-13.293
			c0.82-0.468,1.14-0.983,1.135-1.94c-0.036-8.86-0.021-17.722-0.023-26.583C132.518,62.21,132.484,61.813,132.459,61.229z
			 M65.299,163.018c0.039-0.396,0.09-0.679,0.091-0.962c0.004-9.005-0.007-18.01,0.021-27.016c0.002-0.764-0.316-1.122-0.923-1.477
			c-7.831-4.587-15.647-9.199-23.471-13.801c-0.306-0.18-0.632-0.326-1.184-0.607c0,0.663,0,1.095,0,1.526
			c0,8.78,0.017,17.56-0.023,26.34c-0.005,1.025,0.299,1.61,1.202,2.124c7.787,4.438,15.546,8.925,23.315,13.394
			C64.609,162.7,64.911,162.826,65.299,163.018z"/>
		<path fill-rule="evenodd" clip-rule="evenodd" fill="#FFFFFF" d="M79.499,91.664c-1.84-0.113-3.34-1.27-3.843-3.041
			c-0.496-1.752,0.226-3.521,1.918-4.504c3.926-2.281,7.869-4.532,11.805-6.795c0.553-0.318,1.093-0.663,1.664-0.944
			c1.96-0.966,4.204-0.29,5.273,1.565c1.072,1.859,0.559,4.186-1.35,5.313c-4.523,2.67-9.092,5.264-13.664,7.852
			C80.77,91.413,80.104,91.484,79.499,91.664z"/>
		<path fill-rule="evenodd" clip-rule="evenodd" fill="#FFFFFF" d="M159.935,149.671c-0.728-0.262-1.51-0.427-2.174-0.801
			c-4.311-2.434-8.602-4.905-12.89-7.38c-2.134-1.233-2.855-3.588-1.74-5.574c1.125-2.002,3.486-2.59,5.67-1.349
			c4.369,2.484,8.729,4.984,13.072,7.513c1.685,0.981,2.412,2.788,1.934,4.511C163.317,148.354,161.813,149.506,159.935,149.671z"/>
		<path fill-rule="evenodd" clip-rule="evenodd" fill="#FFFFFF" d="M113.143,149.667c-1.852-0.138-3.378-1.235-3.884-2.899
			c-0.549-1.806,0.061-3.594,1.716-4.583c2.834-1.693,5.714-3.309,8.576-4.955c1.561-0.898,3.116-1.807,4.69-2.681
			c2.181-1.212,4.522-0.614,5.646,1.413c1.103,1.992,0.424,4.266-1.688,5.488c-4.319,2.499-8.645,4.986-12.988,7.443
			C114.577,149.25,113.834,149.413,113.143,149.667z"/>
		<path fill-rule="evenodd" clip-rule="evenodd" fill="#FFFFFF" d="M92.813,149.667c-0.695-0.245-1.444-0.396-2.076-0.752
			c-4.346-2.454-8.672-4.94-12.992-7.438c-2.161-1.25-2.856-3.593-1.701-5.572c1.175-2.01,3.484-2.572,5.675-1.324
			c4.37,2.487,8.733,4.984,13.075,7.518c1.717,1.002,2.401,2.755,1.897,4.512C96.182,148.382,94.695,149.512,92.813,149.667z"/>
		<path fill-rule="evenodd" clip-rule="evenodd" fill="#FFFFFF" d="M113.102,75.791c0.725,0.27,1.503,0.449,2.168,0.826
			c4.309,2.441,8.598,4.917,12.884,7.398c2.173,1.257,2.854,3.533,1.699,5.562c-1.113,1.956-3.452,2.571-5.572,1.371
			c-4.407-2.495-8.798-5.021-13.173-7.572c-1.75-1.02-2.404-2.771-1.859-4.623C109.742,77.077,111.268,75.951,113.102,75.791z"/>
		<path fill-rule="evenodd" clip-rule="evenodd" fill="#FFFFFF" d="M46.023,149.667c-1.894-0.143-3.367-1.241-3.909-3.023
			c-0.521-1.713,0.181-3.532,1.866-4.529c2.776-1.644,5.588-3.226,8.386-4.833c1.594-0.916,3.179-1.848,4.787-2.739
			c2.175-1.207,4.532-0.597,5.647,1.428c1.082,1.966,0.38,4.274-1.718,5.488c-4.318,2.499-8.645,4.986-12.988,7.441
			C47.462,149.256,46.716,149.415,46.023,149.667z"/>
	</g>
</g>
<g id="web_dev" display="none">
	<path display="inline" fill-rule="evenodd" clip-rule="evenodd" fill="#FFFFFF" d="M173.265,90.436c0,7.02,0,14.005,0,21.131
		c-2.713,0.338-5.421,0.682-8.132,1.013c-1.782,0.218-3.578,0.356-5.343,0.669c-0.449,0.08-1.052,0.626-1.164,1.065
		c-1.397,5.488-3.485,10.683-6.457,15.505c-0.49,0.794-0.393,1.287,0.159,1.978c2.769,3.466,5.483,6.975,8.143,10.375
		c-5.013,5.014-9.957,9.957-15.04,15.04c-3.691-2.883-7.512-5.867-11.364-8.876c-5.25,3.296-10.85,5.62-16.8,7.126
		c-0.328,0.083-0.691,0.687-0.745,1.087c-0.575,4.262-1.09,8.532-1.624,12.799c-0.023,0.185-0.067,0.368-0.119,0.639
		c-3.446,0-6.879,0-10.441,0c0-10.605,0-21.208,0-31.936c11.896-0.354,21.71-5.007,29.099-14.373
		c5.506-6.98,8.083-15.022,7.782-23.896c-0.338-9.941-4.101-18.475-11.237-25.409c-7.095-6.893-15.72-10.263-25.675-10.482
		c0-10.674,0-21.242,0-31.931c3.486,0,6.956,0,10.533,0c0.489,4.035,0.995,8.063,1.458,12.095c0.256,2.228,0.227,2.224,2.412,2.813
		c5.418,1.462,10.516,3.667,15.351,6.713c3.822-2.982,7.649-5.967,11.403-8.896c5.04,5.042,9.98,9.986,15.022,15.031
		c-2.593,3.324-5.223,6.771-7.949,10.139c-0.739,0.914-0.818,1.552-0.187,2.576c2.868,4.659,4.899,9.688,6.172,15.005
		c0.239,0.997,0.716,1.238,1.632,1.336c4.135,0.446,8.262,0.962,12.391,1.46C172.773,90.261,172.992,90.357,173.265,90.436z"/>
	<path display="inline" fill-rule="evenodd" clip-rule="evenodd" fill="#FFFFFF" d="M97.326,38.145c0,41.996,0,83.688,0,125.621
		c-23.345,0.205-42.312-8.484-55.167-28.006c-14.252-21.643-14.897-44.534-1.721-66.823C52.99,47.704,72.586,38.083,97.326,38.145z
		 M63.293,99.68c9.267,0,18.356,0,27.517,0c0-6.137,0-12.189,0-18.341c-8.414-0.328-16.595-1.519-24.642-3.854
		C64.271,84.846,63.421,92.129,63.293,99.68z M59.961,75.59c-4.179-2.096-8.171-4.099-12.268-6.154
		c-6.152,9.073-9.424,19.123-9.734,30.242c6.336,0,12.506,0,18.811,0C56.923,91.456,57.884,83.411,59.961,75.59z M67.824,130.676
		c1.161,2.701,2.147,5.25,3.333,7.704c2.722,5.629,6.188,10.716,11.226,14.568c2.496,1.909,5.237,3.305,8.435,3.904
		c0-9.958,0-19.799,0-29.724C83.036,127.39,75.495,128.43,67.824,130.676z M67.89,71.179c5.264,1.945,20.061,4.097,22.946,3.382
		c0-9.786,0-19.582,0-29.706C77.68,49.03,72.498,59.75,67.89,71.179z M65.813,124.569c8.429-2.502,16.664-3.631,25.026-3.98
		c0-4.857,0-9.513,0-14.203c-9.165,0-18.24,0-27.709,0C64.034,112.515,64.912,118.464,65.813,124.569z M38.201,106.335
		c1.031,9.688,4.17,18.391,9.492,26.157c4.17-2.095,8.159-4.099,11.945-6c-1.024-6.689-2.049-13.382-3.086-20.156
		C50.627,106.335,44.503,106.335,38.201,106.335z M61.836,69.419c2.705-7.563,6.16-14.324,11.06-20.329
		c-8.298,3.282-15.289,8.33-21.326,15.271C55.088,66.095,58.372,67.712,61.836,69.419z M72.896,152.853
		c-4.955-6.013-8.383-12.838-11.105-20.348c-3.462,1.721-6.76,3.36-10.218,5.079C57.67,144.506,64.625,149.581,72.896,152.853z"/>
	<path display="inline" fill-rule="evenodd" clip-rule="evenodd" fill="#FFFFFF" d="M104.303,83.271c0-3.131,0-6.184,0-9.421
		c9.428,0.294,16.98,4.063,22.182,11.781c6.301,9.351,6.684,19.276,1.033,29.031c-5.046,8.713-12.966,13.005-23.174,13.436
		c0-3.244,0-6.326,0-9.408c11.207-0.545,17.636-9.437,17.505-17.965C121.718,92.201,115.198,83.737,104.303,83.271z"/>
</g>
<g id="mobile_dev" display="none">
	<path display="inline" fill-rule="evenodd" clip-rule="evenodd" fill="#FFFFFF" d="M49.229,100.988
		c0-21.646-0.003-43.291,0.002-64.936c0.001-4.471,2.259-6.748,6.691-6.749c29.382-0.006,58.765-0.01,88.147-0.006
		c4.425,0,6.703,2.3,6.703,6.748c0.003,43.291,0.003,86.581,0,129.871c0,4.508-2.282,6.751-6.847,6.751
		c-29.333,0.002-58.665,0-87.997,0.001c-4.4,0-6.707-2.316-6.707-6.747c0-21.645,0-43.29,0-64.934
		C49.226,100.988,49.228,100.988,49.229,100.988z M55.252,59.225c0,27.87,0,55.652,0,83.495c29.883,0,59.676,0,89.477,0
		c0-27.896,0-55.678,0-83.495C114.854,59.225,85.095,59.225,55.252,59.225z M55.238,53.171c0.779,0,1.379,0,1.98,0
		c5.006-0.001,10.013-0.003,15.02-0.003c23.617,0,47.235-0.009,70.853,0.028c1.367,0.003,1.811-0.345,1.785-1.763
		c-0.087-4.904-0.031-9.811-0.038-14.717c0-0.437-0.063-0.874-0.098-1.333c-29.903,0-59.696,0-89.502,0
		C55.238,41.333,55.238,47.134,55.238,53.171z M144.757,148.898c-29.926,0-59.671,0-89.458,0c0,5.969,0,11.839,0,17.737
		c29.881,0,59.625,0,89.458,0C144.757,160.701,144.757,154.867,144.757,148.898z"/>
	<path display="inline" fill-rule="evenodd" clip-rule="evenodd" fill="#FFFFFF" d="M80.111,70.546
		c1.203,1.271,2.545,2.633,3.817,4.058c0.581,0.651,1.048,0.638,1.823,0.288c1.926-0.872,3.894-1.675,5.901-2.333
		c0.858-0.281,1.096-0.638,1.073-1.473c-0.05-1.912-0.016-3.825-0.016-5.84c4.878,0,9.648,0,14.591,0
		c0,2.045,0.041,4.053-0.019,6.058c-0.026,0.891,0.262,1.269,1.122,1.631c2.409,1.014,4.774,2.15,7.081,3.381
		c0.822,0.438,1.283,0.433,1.952-0.189c1.513-1.404,3.106-2.722,4.8-4.191c3.211,3.681,6.354,7.283,9.586,10.988
		c-1.718,1.506-3.357,2.984-5.049,4.402c-0.632,0.53-0.818,0.962-0.446,1.787c0.641,1.42,1.097,2.924,1.681,4.53
		c2.5,0,5.054,0,7.72,0c0,4.906,0,9.675,0,14.634c-2.212,0-4.421,0.054-6.625-0.024c-0.993-0.034-1.36,0.319-1.671,1.245
		c-0.673,2.003-1.539,3.941-2.335,5.931c1.752,1.727,3.611,3.559,5.349,5.272c-3.663,3.638-7.078,7.03-10.632,10.561
		c-1.337-1.377-2.902-2.953-4.421-4.572c-0.535-0.57-0.949-0.634-1.686-0.268c-1.758,0.874-3.564,1.675-5.412,2.333
		c-0.864,0.308-1.03,0.735-1.015,1.535c0.042,2.113,0.014,4.228,0.014,6.439c-4.887,0-9.657,0-14.586,0
		c0-2.111,0.047-4.171-0.036-6.227c-0.019-0.459-0.386-1.145-0.771-1.31c-2.862-1.23-5.769-2.355-8.95-3.629
		c-1.48,1.271-3.266,2.804-5.196,4.461c-3.194-3.663-6.334-7.264-9.578-10.982c1.491-1.302,2.896-2.585,4.368-3.789
		c0.705-0.577,0.811-1.06,0.409-1.911c-0.751-1.59-1.326-3.264-2.026-5.034c-2.11,0-4.323,0-6.651,0c0-4.879,0-9.649,0-14.615
		c1.848,0,3.702-0.041,5.552,0.019c0.847,0.027,1.185-0.242,1.476-1.075c0.831-2.37,1.829-4.681,2.887-7.33
		c-1.457-1.31-3.106-2.792-4.711-4.234C73.098,77.492,76.5,74.123,80.111,70.546z M129.816,99.682c-1.896,0-3.654-0.048-5.409,0.018
		c-1.075,0.04-1.608-0.171-1.742-1.427c-0.394-3.719-1.671-7.162-3.682-10.326c-0.233-0.367-0.401-0.774-0.613-1.19
		c1.702-1.498,3.329-2.929,5.002-4.401c-0.579-0.67-1.104-1.278-1.701-1.97c-1.713,1.465-3.385,2.894-5.122,4.379
		c-4.084-4.001-8.801-6.442-14.35-7.246c-0.35-0.051-0.825-0.796-0.852-1.242c-0.101-1.688-0.04-3.385-0.04-5.044
		c-1.015,0-1.747,0-2.616,0c0,2.068,0,4.022,0,6.139c-5.531,0.408-10.411,2.272-14.875,5.936c-1.374-1.506-2.656-2.913-3.817-4.186
		c-0.754,0.593-1.381,1.085-2.293,1.802c1.611,1.393,3.059,2.645,4.573,3.954c-3.838,4.375-5.723,9.3-6.3,14.868
		c-2.039,0-3.886,0-5.747,0c0,0.901,0,1.634,0,2.52c1.945,0,3.797,0,5.805,0c0.478,4.994,2.301,9.372,5.165,13.338
		c-1.595,1.402-3.063,2.693-4.564,4.012c0.598,0.699,1.116,1.306,1.694,1.981c1.594-1.371,3.114-2.677,4.704-4.043
		c4.257,3.868,9.135,6.078,14.762,6.641c0.337,0.034,0.835,0.782,0.859,1.221c0.099,1.75,0.041,3.508,0.041,5.318
		c0.95,0,1.717,0,2.606,0c0-1.779,0.055-3.442-0.021-5.1c-0.047-1.051,0.245-1.5,1.37-1.663c3.914-0.568,7.476-2.068,10.684-4.391
		c0.642-0.464,1.285-0.926,2.099-1.512c1.599,1.696,3.12,3.31,4.583,4.861c0.718-0.661,1.323-1.219,2.088-1.923
		c-1.706-1.612-3.315-3.133-5.007-4.732c3.01-3.834,4.967-8.004,5.564-12.723c0.135-1.071,0.577-1.314,1.555-1.281
		c1.848,0.064,3.7,0.019,5.597,0.019C129.816,101.349,129.816,100.649,129.816,99.682z"/>
	<path display="inline" fill-rule="evenodd" clip-rule="evenodd" fill="#FFFFFF" d="M85.15,47.131c0-1.96,0-3.817,0-5.796
		c9.868,0,19.724,0,29.676,0c0,1.911,0,3.8,0,5.796C104.969,47.131,95.152,47.131,85.15,47.131z"/>
	<path display="inline" fill-rule="evenodd" clip-rule="evenodd" fill="#FFFFFF" d="M85.149,160.662c0-1.956,0-3.812,0-5.796
		c9.877,0,19.731,0,29.677,0c0,1.922,0,3.812,0,5.796C104.966,160.662,95.146,160.662,85.149,160.662z"/>
	<path display="inline" fill-rule="evenodd" clip-rule="evenodd" fill="#FFFFFF" d="M99.919,116.473
		c-8.554,0.001-15.566-6.978-15.567-15.494c0-8.572,7.051-15.514,15.73-15.486c8.581,0.027,15.604,7.022,15.562,15.499
		C115.601,109.615,108.637,116.471,99.919,116.473z M100.08,91.498c-5.396-0.021-9.735,4.201-9.749,9.485
		c-0.014,5.255,4.352,9.508,9.746,9.495c5.281-0.013,9.625-4.307,9.604-9.49C109.657,95.754,105.373,91.518,100.08,91.498z"/>
</g>
<g id="_x33_d_printing">
	<path fill-rule="evenodd" clip-rule="evenodd" fill="#FFFFFF" d="M89.734,109.602c2.579,0,5.034,0,7.679,0c0,1.222,0,2.371,0,3.519
		c0,2.717-0.029,5.436,0.008,8.153c0.063,4.511,3.15,7.569,7.652,7.574c12.28,0.012,24.559-0.014,36.838,0.03
		c1.488,0.005,3.013,0.187,4.454,0.549c5.252,1.322,7.997,4.976,7.832,10.23c-0.146,4.619-3.4,8.272-8.406,9.21
		c-1.749,0.328-3.568,0.382-5.355,0.383c-27.568,0.021-55.136,0.011-82.705,0.018c-0.724,0-1.452,0.069-2.171,0.156
		c-1.305,0.157-1.987,0.893-1.999,2.232c-0.012,1.317,0.591,2.127,1.912,2.309c0.766,0.105,1.543,0.182,2.315,0.182
		c27.762,0.008,55.525-0.025,83.287,0.055c2.42,0.006,4.972,0.384,7.229,1.223c3.987,1.481,5.919,4.677,5.908,8.964
		c-0.01,4.234-1.987,7.304-5.864,8.87c-1.888,0.762-4.036,1.231-6.068,1.236c-30.528,0.076-61.059,0.054-91.588,0.051
		c-0.33,0-0.66-0.034-1.084-0.057c0-2.575,0-5.071,0-7.752c0.574,0,1.092,0,1.61,0c30.239,0,60.477,0.001,90.714-0.002
		c0.728,0,1.46,0.021,2.182-0.052c1.627-0.164,2.344-0.938,2.316-2.409c-0.028-1.42-0.696-2.105-2.296-2.261
		c-0.819-0.079-1.648-0.085-2.473-0.085c-27.713-0.003-55.427,0-83.142-0.004c-2.643,0-5.228-0.322-7.607-1.603
		c-3.5-1.885-5.168-4.833-5.123-8.789c0.044-3.849,1.777-6.664,5.16-8.473c2.334-1.248,4.87-1.576,7.466-1.577
		c26.355-0.005,52.71-0.004,79.065-0.009c2.135-0.001,4.272,0.015,6.405-0.068c1.803-0.07,2.539-0.803,2.55-2.312
		c0.012-1.555-0.793-2.378-2.633-2.396c-5.387-0.055-10.775-0.04-16.162-0.043c-7.62-0.006-15.241,0.044-22.86-0.018
		c-7.328-0.059-13.227-4.905-14.801-12.039c-0.135-0.612-0.231-1.247-0.234-1.872C89.725,118.417,89.734,114.105,89.734,109.602z"/>
	<path fill-rule="evenodd" clip-rule="evenodd" fill="#FFFFFF" d="M101.654,101.96c-5.145,0-10.131,0-15.195,0
		c-1.604-6.338-3.195-12.625-4.786-18.911c-0.25-0.986-0.602-1.958-0.732-2.96c-0.149-1.153-0.759-1.359-1.782-1.329
		c-2.085,0.061-4.175,0.053-6.26,0.001c-3.826-0.096-6.674-2.98-6.68-6.82c-0.02-13.202-0.018-26.405,0.002-39.607
		c0.006-3.875,2.921-6.851,6.81-6.86c14.028-0.034,28.056-0.032,42.083-0.003c3.933,0.008,6.776,2.935,6.792,7.012
		c0.043,10.388,0.018,20.775,0.019,31.162c0,2.67,0.018,5.34-0.01,8.009c-0.045,4.334-2.795,7.083-7.108,7.123
		c-1.795,0.017-3.605,0.139-5.384-0.037c-1.573-0.155-2.052,0.508-2.39,1.901c-1.605,6.64-3.313,13.257-4.986,19.881
		C101.93,100.988,101.794,101.451,101.654,101.96z M94.035,72.961c6.747,0,13.494-0.031,20.239,0.025
		c1.41,0.012,1.852-0.474,1.848-1.858c-0.039-12.717-0.034-25.434-0.008-38.15c0.002-1.247-0.433-1.728-1.699-1.725
		c-13.542,0.025-27.083,0.026-40.625-0.001c-1.323-0.003-1.789,0.48-1.785,1.801c0.032,12.668,0.018,25.337,0.024,38.005
		c0,1.791,0.119,1.901,1.912,1.902C80.639,72.963,87.336,72.961,94.035,72.961z"/>
</g>
<g id="desktop_app_dev" display="none">
	<g display="inline">
		<path fill-rule="evenodd" clip-rule="evenodd" d="M36.617,59.999c0,21.434,0,42.611,0,63.903c34.61,0,69.155,0,103.256,0
			c0.883-0.936,1.486-1.745,2.249-2.352c1.879-1.494,3.338-3.267,4.147-5.546c0.607-1.715,1.189-3.44,1.848-5.135
			c0.599-1.538,1.991-2.189,3.526-1.593c1.45,0.563,2.868,1.229,4.239,1.964c0.341,0.182,0.632,0.801,0.634,1.22
			c0.029,6.925,0.163,13.855-0.042,20.773c-0.244,8.22-7.581,14.746-16.386,14.767c-15.985,0.038-31.97,0.016-47.955,0.017
			c-18.172,0-36.343-0.007-54.515-0.004c-10.22,0.001-17.038-6.801-17.038-17.021c-0.001-23.535-0.011-47.07,0.005-70.604
			c0.006-8.253,5.407-14.728,13.451-16.159c1.067-0.189,2.176-0.197,3.266-0.198c16.714-0.012,33.427,0.006,50.141-0.037
			c1.215-0.003,1.928,0.277,2.333,1.477c0.347,1.027,0.938,1.97,1.382,2.967c0.811,1.818,0.269,3.26-1.597,4.028
			c-1.537,0.632-3.121,1.149-4.691,1.697c-2.597,0.907-4.696,2.475-6.156,4.801c-0.513,0.817-1.075,1.06-2.009,1.057
			C64,59.988,51.296,59.999,38.591,59.999C37.978,59.999,37.363,59.999,36.617,59.999z M88.581,139.994
			c5.156,0,10.312,0.008,15.467-0.003c2.653-0.006,4.472-1.6,4.524-3.926c0.051-2.359-1.815-4.083-4.535-4.087
			c-10.311-0.017-20.623-0.017-30.933,0.001c-2.769,0.005-4.541,1.665-4.494,4.099c0.045,2.352,1.817,3.908,4.504,3.914
			C78.27,140.001,83.426,139.994,88.581,139.994z"/>
		<path fill-rule="evenodd" clip-rule="evenodd" d="M169.553,38.522c-0.365,1.017-0.617,1.798-0.924,2.558
			c-0.954,2.355-2.108,4.647-2.851,7.066c-1.013,3.304,1.156,8.673,4.201,10.318c2.315,1.25,4.832,2.143,7.292,3.109
			c2.292,0.9,3.211,2.075,3.271,4.565c0.032,1.353,0.028,2.708-0.012,4.061c-0.059,2.042-1.078,3.389-2.996,4.126
			c-2.373,0.911-4.701,1.941-7.082,2.832c-3.334,1.249-6.126,8.661-4.464,11.949c1.007,1.992,1.842,4.071,2.77,6.104
			c0.942,2.063,0.714,3.508-0.85,5.096c-1.024,1.039-2.053,2.071-3.096,3.09c-1.511,1.479-3.005,1.675-4.984,0.829
			c-2.526-1.08-5.028-2.276-7.649-3.062c-3.322-0.995-8.908,1.538-10.452,4.657c-1.079,2.18-1.859,4.51-2.717,6.793
			c-0.918,2.442-2.032,3.284-4.651,3.33c-1.302,0.022-2.604,0.029-3.905-0.004c-2.179-0.055-3.43-1.025-4.235-3.043
			c-1.019-2.552-1.921-5.178-3.23-7.578c-1.701-3.119-7.466-5.219-10.832-4.058c-2.3,0.793-4.497,1.894-6.722,2.896
			c-2.167,0.976-3.556,0.769-5.229-0.879c-1.001-0.986-1.992-1.984-2.98-2.984c-1.515-1.533-1.754-3.009-0.922-4.973
			c1.072-2.53,2.284-5.023,3.078-7.641c1.031-3.4-1.512-8.996-4.708-10.559c-2.185-1.069-4.511-1.858-6.793-2.721
			c-2.359-0.893-3.195-1.995-3.251-4.543c-0.03-1.354-0.027-2.708,0.01-4.061c0.058-2.114,0.979-3.322,2.969-4.116
			c2.458-0.981,4.996-1.822,7.319-3.061c3.431-1.828,5.598-7.604,4.314-11.272c-0.786-2.249-1.885-4.389-2.867-6.568
			c-0.93-2.063-0.702-3.506,0.87-5.1c0.987-1,1.982-1.994,2.982-2.982c1.65-1.631,3.033-1.811,5.227-0.856
			c2.377,1.035,4.74,2.155,7.208,2.917c3.562,1.098,9.193-1.388,10.825-4.731c1.067-2.186,1.84-4.519,2.705-6.801
			c0.848-2.239,2.035-3.137,4.445-3.196c1.353-0.033,2.707-0.02,4.061,0.003c2.121,0.036,3.466,1.103,4.235,3.072
			c0.98,2.511,1.88,5.08,3.146,7.446c1.711,3.202,7.479,5.36,10.915,4.167c2.349-0.815,4.588-1.945,6.868-2.951
			c2.042-0.9,3.488-0.645,5.086,0.943c1.071,1.065,2.216,2.069,3.174,3.228C168.748,36.698,169.102,37.687,169.553,38.522z
			 M108.602,67.99c0.036,13.355,10.727,24.014,24.042,23.97c13.25-0.044,23.9-10.727,23.896-23.965
			c-0.006-13.383-10.756-24.028-24.203-23.966C119.21,44.088,108.566,54.834,108.602,67.99z"/>
		<path fill-rule="evenodd" clip-rule="evenodd" d="M104.597,171.965c6.514,0,12.757-0.004,19.001,0.006
			c0.621,0.001,1.256,0.017,1.857,0.15c1.941,0.433,3.247,2.2,3.103,4.113c-0.146,1.952-1.643,3.517-3.584,3.734
			c-0.309,0.034-0.624,0.021-0.936,0.021c-23.629,0.001-47.258,0.002-70.887-0.001c-2.525,0-4.219-1.298-4.498-3.402
			c-0.352-2.66,1.447-4.595,4.39-4.611c5.829-0.031,11.658-0.01,17.487-0.01c0.61,0,1.22,0,2.021,0c0-2.442-0.003-4.716,0-6.989
			c0.009-5.759,3.245-9.006,8.982-9.011c4.84-0.002,9.681-0.006,14.521,0.002c5.089,0.008,8.51,3.418,8.541,8.516
			C104.609,166.917,104.597,169.349,104.597,171.965z"/>
		<path fill-rule="evenodd" clip-rule="evenodd" d="M146.961,67.695c0.271,7.811-6.148,14.52-14.093,14.731
			c-7.851,0.208-14.507-6.18-14.725-14.13c-0.215-7.871,6.131-14.478,14.122-14.699C140.154,53.379,146.682,59.641,146.961,67.695z"
			/>
	</g>
</g>
<g id="video_editing" display="none">
	<path display="inline" fill-rule="evenodd" clip-rule="evenodd" d="M33.421,99.851c0-21.755,0-43.51,0-65.265
		c0-4.944,2.254-7.211,7.171-7.211c39.632,0,79.265,0,118.897,0c4.766,0,7.082,2.266,7.083,7.009
		c0.008,43.841,0.009,87.683,0.005,131.524c0,4.253-2.458,6.715-6.677,6.716c-39.916,0.002-79.832,0.002-119.749,0
		c-4.316,0-6.726-2.426-6.727-6.798C33.418,143.833,33.422,121.842,33.421,99.851z M78.593,39.428
		c0.535,0.591,0.796,0.906,1.084,1.195c5.014,5.02,10.031,10.036,15.047,15.054c5.149,5.152,10.3,10.303,15.444,15.459
		c1.763,1.766,2.305,3.898,1.602,6.258c-0.709,2.378-2.394,3.82-4.825,4.288c-2.279,0.439-4.16-0.384-5.769-1.996
		c-6.95-6.963-13.913-13.914-20.869-20.871c-5.987-5.986-11.998-11.949-17.93-17.989c-0.946-0.963-1.58-0.868-2.475-0.117
		c-1.643,1.375-2.327,3.118-2.323,5.241c0.022,13.717,0.003,27.434,0.02,41.151c0.005,4.539,2.389,6.911,6.92,6.912
		c23.65,0.007,47.299,0.007,70.949,0c4.541-0.001,6.932-2.378,6.936-6.897c0.012-13.669,0.011-27.339,0.001-41.009
		c-0.003-4.268-2.43-6.682-6.683-6.682c-17.406-0.002-34.813,0.002-52.219,0.004C81.996,39.428,80.488,39.428,78.593,39.428z
		 M96.803,106.058c0.512,0.556,0.786,0.874,1.082,1.17c6.986,6.99,13.976,13.978,20.964,20.966c3.176,3.177,6.372,6.334,9.518,9.541
		c1.862,1.898,2.357,4.183,1.412,6.667c-0.928,2.439-2.809,3.746-5.392,3.96c-2.379,0.198-4.09-1.046-5.692-2.653
		c-12.852-12.895-25.738-25.754-38.594-38.645c-0.75-0.752-1.498-1.123-2.593-1.108c-4.397,0.061-8.795,0.018-13.193,0.027
		c-4.226,0.009-6.718,2.474-6.721,6.685c-0.01,13.76-0.011,27.521,0.001,41.281c0.003,4.188,2.423,6.611,6.598,6.613
		c23.833,0.01,47.665,0.012,71.498,0.007c4.275-0.001,6.711-2.413,6.715-6.653c0.011-13.713,0.011-27.426,0-41.14
		c-0.003-4.347-2.423-6.779-6.752-6.784c-12.436-0.014-24.873-0.01-37.309-0.009C97.936,105.982,97.527,106.021,96.803,106.058z
		 M154.51,45.474c-3.418-0.006-6.114,2.709-6.091,6.134c0.022,3.338,2.731,6.054,6.051,6.068c3.369,0.015,6.115-2.768,6.092-6.171
		C160.539,48.148,157.861,45.479,154.51,45.474z M160.554,75.709c-0.023-3.381-2.801-6.105-6.166-6.049
		c-3.309,0.055-5.981,2.794-5.964,6.111c0.018,3.433,2.696,6.107,6.099,6.089C157.929,81.843,160.578,79.141,160.554,75.709z
		 M51.572,124.345c0.06-3.372-2.558-6.142-5.87-6.211c-3.453-0.073-6.19,2.53-6.267,5.959c-0.076,3.393,2.624,6.195,6.015,6.243
		C48.749,130.382,51.514,127.677,51.572,124.345z M160.562,124.159c-0.027-3.411-2.769-6.078-6.198-6.026
		c-3.318,0.049-5.973,2.793-5.945,6.145c0.027,3.338,2.735,6.045,6.06,6.059C157.833,130.35,160.589,127.551,160.562,124.159z
		 M160.562,148.463c0.021-3.341-2.632-6.073-5.97-6.147c-3.35-0.075-6.162,2.698-6.172,6.087c-0.011,3.366,2.644,6.088,5.97,6.123
		C157.821,154.561,160.54,151.89,160.562,148.463z M45.378,106.059c3.397,0.062,6.113-2.511,6.184-5.862
		c0.075-3.488-2.494-6.197-5.933-6.258c-3.401-0.061-6.095,2.494-6.184,5.864C39.355,103.27,41.939,105.996,45.378,106.059z
		 M154.561,106.067c3.366-0.027,6.008-2.697,6.001-6.067c-0.006-3.445-2.71-6.121-6.138-6.071c-3.452,0.05-6.057,2.744-6.002,6.207
		C148.476,103.492,151.169,106.094,154.561,106.067z M51.571,75.795c0.019-3.336-2.64-6.065-5.977-6.134
		c-3.354-0.069-6.15,2.698-6.158,6.093c-0.009,3.361,2.651,6.081,5.975,6.111C48.839,81.896,51.551,79.223,51.571,75.795z
		 M51.574,148.487c0.022-3.409-2.717-6.187-6.087-6.171c-3.31,0.015-6.031,2.741-6.054,6.066c-0.024,3.419,2.681,6.148,6.088,6.144
		C48.854,154.521,51.552,151.829,51.574,148.487z M51.571,51.566c0.004-3.36-2.649-6.06-5.986-6.091
		c-3.409-0.032-6.144,2.67-6.148,6.077c-0.005,3.395,2.774,6.169,6.13,6.121C48.886,57.625,51.567,54.898,51.571,51.566z"/>
</g>
<g id="ar_x2F_vr" display="none">
	<g display="inline">
		<path fill-rule="evenodd" clip-rule="evenodd" d="M99.625,131.338c-4.713,4.029-9.415,7.948-14,12
			c-3.658,3.232-7.833,5.103-12.707,5.135c-10.54,0.069-21.081,0.154-31.619,0c-11.108-0.164-20.014-9.175-20.07-20.287
			c-0.095-18.714-0.095-37.43-0.01-56.144c0.053-11.678,9.156-20.564,20.967-20.581c26.082-0.037,52.165-0.01,78.247-0.009
			c12.584,0,25.168-0.01,37.752-0.001c10.382,0.007,18.621,6.826,20.407,17.033c0.357,2.042,0.225,4.178,0.227,6.271
			c0.017,17.585,0.025,35.171,0.009,52.756c-0.01,10.536-7.01,18.904-17.35,20.748c-1.208,0.216-2.461,0.244-3.694,0.246
			c-9.787,0.017-19.575-0.049-29.362,0.024c-5.643,0.043-10.537-1.814-14.816-5.379c-4.214-3.51-8.368-7.092-12.55-10.64
			C100.612,132.131,100.154,131.769,99.625,131.338z M43.891,100.375c0.069,11.133,9.072,20.014,20.212,19.938
			c10.883-0.074,19.795-9.146,19.743-20.095c-0.053-11.059-9.143-19.952-20.303-19.863C52.76,80.441,43.824,89.544,43.891,100.375z
			 M156.826,100.359c0.005-10.95-8.951-19.983-19.833-20.006c-11.113-0.024-20.117,8.941-20.133,20.045
			c-0.016,10.875,9,19.889,19.929,19.922C147.794,120.354,156.821,111.362,156.826,100.359z"/>
	</g>
</g>
<g id="iot" display="none">
	<path display="inline" fill-rule="evenodd" clip-rule="evenodd" d="M96.145,138.292c-10.609-1.5-18.924-6.485-25.092-15.229
		c-2.93,1.677-5.828,3.335-8.727,4.992c-0.814,0.465-1.606,0.979-2.454,1.372c-1.907,0.881-4.022,0.179-4.992-1.598
		c-0.947-1.733-0.523-3.902,1.22-4.942c4.545-2.711,9.128-5.364,13.763-7.919c2.18-1.202,5.274-0.015,6.677,2.371
		c2.545,4.329,6.013,7.705,10.424,10.123c0.386,0.211,0.781,0.403,1.181,0.588c0.086,0.04,0.208,0.006,0.511,0.006
		c-2.54-6.497-3.559-13.238-4.002-20.216c-0.689-0.031-1.279-0.082-1.869-0.083c-4.309-0.007-8.619,0.013-12.929-0.01
		c-3.197-0.018-4.676-1.548-4.561-4.714c0.181-5.005,1.328-9.783,3.629-14.457c-0.543-0.321-1.042-0.622-1.546-0.913
		c-3.583-2.065-7.176-4.111-10.746-6.2c-2.133-1.248-2.806-3.398-1.737-5.315c1.109-1.989,3.356-2.517,5.588-1.249
		c4.167,2.365,8.314,4.764,12.558,7.201c2.987-3.424,6.36-6.3,10.315-8.485c3.954-2.185,8.213-3.407,12.787-4.063
		c0-3.847-0.025-7.578,0.009-11.307c0.022-2.44,1.438-4.061,3.554-4.193c2.388-0.15,4.082,1.488,4.125,4.109
		c0.05,3.08,0.013,6.161,0.014,9.241c0,0.655,0,1.309,0,2.138c4.523,0.649,8.779,1.894,12.723,4.063
		c3.954,2.176,7.348,5.038,10.338,8.528c4.042-2.328,7.993-4.612,11.957-6.874c0.666-0.38,1.357-0.782,2.089-0.965
		c1.777-0.446,3.659,0.569,4.341,2.222c0.743,1.798,0.1,3.753-1.719,4.825c-3.658,2.155-7.354,4.247-11.03,6.37
		c-0.47,0.271-0.926,0.567-1.452,0.892c4.261,9,4.797,18.13,1.3,27.603c0.865,0.506,1.701,1,2.543,1.484
		c2.82,1.622,5.653,3.223,8.459,4.867c2.087,1.223,2.767,3.443,1.695,5.342c-1.077,1.907-3.336,2.459-5.465,1.285
		c-1.786-0.985-3.539-2.031-5.309-3.045c-1.763-1.011-3.529-2.017-5.381-3.075c-6.128,8.693-14.454,13.763-25.089,15.252
		c0,3.11,0.001,6.125,0,9.139c0,0.88,0.046,1.764-0.024,2.639c-0.183,2.261-1.725,3.717-3.857,3.711
		c-2.103-0.006-3.707-1.513-3.792-3.771c-0.094-2.472-0.026-4.95-0.029-7.426C96.144,141.234,96.145,139.864,96.145,138.292z
		 M92.159,99.947c5.396,0,10.383,0,15.475,0c-0.309-5.772-1.088-11.308-3.158-16.574c-0.715-1.821-1.71-3.576-2.849-5.167
		c-0.469-0.656-1.666-1.146-2.518-1.126c-12.064,0.28-22.529,8.768-25.364,20.474c-0.187,0.772-0.283,1.566-0.437,2.433
		c3.89,0,7.562,0,11.317,0c0.053-0.521,0.087-0.949,0.142-1.373c0.45-3.486,0.823-6.985,1.383-10.455
		c0.416-2.577,2.702-3.962,4.982-3.228c2.09,0.674,2.908,2.484,2.476,5.09C93.071,93.262,92.653,96.521,92.159,99.947z
		 M111.329,79.775c2.551,6.524,3.574,13.273,4.019,20.352c1.335,0,2.565,0,3.808,0c0,2.637,0,5.038,0,7.541
		c-1.315,0.066-2.549,0.129-3.835,0.193c-0.381,7.012-1.505,13.717-4.002,20.332c9.437-3.63,16.261-14.814,15.684-25.335
		C126.441,92.63,119.187,81.855,111.329,79.775z M92.271,107.855c0.259,2.362,0.417,4.593,0.762,6.796
		c0.793,5.061,1.881,10.049,4.795,14.404c1.569,2.344,2.956,2.434,4.304-0.042c1.48-2.72,2.801-5.623,3.574-8.605
		c1.049-4.046,1.514-8.243,2.259-12.553C102.523,107.855,97.581,107.855,92.271,107.855z"/>
	<path display="inline" fill-rule="evenodd" clip-rule="evenodd" d="M42.06,98.475c0,6.822,0.021,13.643-0.011,20.465
		c-0.011,2.456-1.432,4.028-3.573,4.133c-2.425,0.118-4.065-1.608-4.071-4.348c-0.013-6.711-0.002-13.423-0.002-20.135
		c0.001-6.932-0.022-13.863,0.028-20.794c0.008-1.086-0.318-1.603-1.325-2.094c-4.909-2.398-7.329-7.721-6.041-12.996
		c1.253-5.13,5.899-8.69,11.306-8.662c5.267,0.028,9.833,3.61,11.11,8.717c1.298,5.191-1.183,10.559-6.123,12.964
		c-1.021,0.497-1.322,1.043-1.315,2.12c0.046,6.876,0.023,13.752,0.023,20.629C42.064,98.475,42.062,98.475,42.06,98.475z
		 M42.114,65.563c0.027-2.161-1.637-3.875-3.8-3.913c-2.125-0.037-3.923,1.687-3.952,3.79c-0.029,2.139,1.666,3.862,3.83,3.892
		C40.384,69.364,42.086,67.728,42.114,65.563z"/>
	<path display="inline" fill-rule="evenodd" clip-rule="evenodd" d="M165.588,109.614c0,6.711,0.027,13.423-0.023,20.134
		c-0.01,1.223,0.264,1.896,1.484,2.502c5.099,2.535,7.418,8.358,5.64,13.705c-1.771,5.325-7.116,8.58-12.745,7.761
		c-5.463-0.794-9.799-5.689-9.752-11.267c0.039-4.616,2.185-8.129,6.329-10.254c1.113-0.571,1.446-1.184,1.442-2.382
		c-0.044-13.478-0.03-26.956-0.03-40.433c0-2.634,1.083-4.216,3.117-4.569c2.498-0.435,4.521,1.388,4.531,4.174
		C165.605,95.861,165.588,102.738,165.588,109.614z M161.713,138.514c-2.167,0.02-3.858,1.719-3.849,3.87
		c0.01,2.121,1.769,3.841,3.91,3.824c2.115-0.018,3.884-1.796,3.865-3.889C165.621,140.19,163.87,138.494,161.713,138.514z"/>
	<path display="inline" fill-rule="evenodd" clip-rule="evenodd" d="M99.981,188.423c-4.947-0.005-9.362-3.186-10.93-7.873
		c-1.571-4.699,0.037-9.828,4.017-12.811c3.957-2.966,9.24-3.144,13.298-0.295c0.984,0.691,1.635,0.662,2.618,0.106
		c9.84-5.558,19.686-11.104,29.593-16.54c1.101-0.604,2.641-0.814,3.894-0.635c1.449,0.208,2.25,1.527,2.469,2.992
		c0.222,1.487-0.362,2.719-1.577,3.58c-0.805,0.571-1.704,1.014-2.57,1.499c-9.33,5.227-18.656,10.461-28.003,15.659
		c-0.956,0.532-1.392,1.015-1.301,2.262C111.964,182.844,106.558,188.43,99.981,188.423z M103.903,176.935
		c0.004-2.1-1.786-3.883-3.894-3.879c-2.131,0.004-3.896,1.748-3.909,3.863c-0.013,2.079,1.788,3.882,3.891,3.894
		C102.071,180.823,103.899,179.012,103.903,176.935z"/>
	<path display="inline" fill-rule="evenodd" clip-rule="evenodd" d="M99.994,19.428c4.88-0.001,9.277,3.104,10.897,7.695
		c1.648,4.669,0.118,9.838-3.813,12.878c-3.913,3.026-9.198,3.313-13.285,0.5c-1.183-0.814-1.931-0.679-3.052-0.044
		c-9.739,5.508-19.496,10.987-29.298,16.384c-1.032,0.568-2.415,0.845-3.587,0.739c-1.467-0.132-2.367-1.293-2.72-2.76
		c-0.358-1.484,0.102-2.727,1.222-3.704c0.49-0.427,1.1-0.727,1.675-1.049c9.71-5.449,19.418-10.901,29.145-16.32
		c0.942-0.525,1.412-0.986,1.325-2.246C88.053,24.986,93.417,19.43,99.994,19.428z M100.02,34.799
		c2.107-0.003,3.905-1.808,3.878-3.894c-0.026-2.111-1.814-3.871-3.922-3.859c-2.112,0.012-3.886,1.797-3.875,3.901
		C96.114,33.057,97.89,34.803,100.02,34.799z"/>
	<path display="inline" fill-rule="evenodd" clip-rule="evenodd" d="M49.744,143c-0.547,1.254,0.271,1.883,1.379,2.531
		c9.704,5.683,19.375,11.418,29.074,17.108c1.311,0.769,2.331,1.696,2.497,3.264c0.157,1.493-0.435,2.724-1.674,3.546
		c-1.426,0.945-2.91,0.839-4.369-0.024c-4.224-2.496-8.455-4.979-12.681-7.471c-5.651-3.332-11.313-6.643-16.934-10.023
		c-0.978-0.588-1.617-0.592-2.606,0.07c-4.378,2.934-10.345,2.295-14.181-1.383c-3.839-3.679-4.639-9.472-1.945-14.081
		c2.703-4.626,8.272-6.757,13.457-5.149C46.702,132.921,50.102,137.793,49.744,143z M42.129,142.313
		c-0.015-2.141-1.74-3.818-3.911-3.802c-2.156,0.016-3.882,1.746-3.861,3.87c0.021,2.095,1.813,3.84,3.931,3.827
		C40.414,146.194,42.144,144.441,42.129,142.313z"/>
	<path display="inline" fill-rule="evenodd" clip-rule="evenodd" d="M150.134,65.18c0.778-1.656-0.267-2.271-1.449-2.963
		c-9.653-5.658-19.276-11.368-28.926-17.033c-1.488-0.874-2.53-1.972-2.475-3.779c0.088-2.966,3.246-4.599,5.95-3.027
		c5.481,3.185,10.926,6.431,16.386,9.651c4.415,2.604,8.854,5.17,13.23,7.838c1.035,0.631,1.708,0.649,2.752-0.044
		c4.09-2.717,9.594-2.334,13.437,0.783c3.887,3.152,5.276,8.466,3.43,13.121c-1.806,4.553-6.376,7.516-11.183,7.249
		c-5.172-0.287-9.369-3.579-10.637-8.424C150.361,67.446,150.297,66.282,150.134,65.18z M161.757,61.644
		c-2.142-0.014-3.88,1.701-3.892,3.841c-0.011,2.141,1.699,3.851,3.858,3.857c2.154,0.006,3.906-1.703,3.916-3.821
		C165.65,63.432,163.875,61.658,161.757,61.644z"/>
	<path display="inline" fill-rule="evenodd" clip-rule="evenodd" fill="#FFFFFF" d="M92.159,99.947
		c0.494-3.425,0.912-6.685,1.448-9.925c0.432-2.605-0.385-4.416-2.476-5.09c-2.28-0.734-4.566,0.65-4.982,3.228
		c-0.56,3.469-0.933,6.968-1.383,10.455c-0.055,0.424-0.089,0.851-0.142,1.373c-3.755,0-7.427,0-11.317,0
		c0.154-0.867,0.25-1.661,0.437-2.433c2.835-11.706,13.3-20.194,25.364-20.474c0.852-0.02,2.049,0.47,2.518,1.126
		c1.139,1.591,2.134,3.346,2.849,5.167c2.07,5.266,2.849,10.801,3.158,16.574C102.542,99.947,97.555,99.947,92.159,99.947z"/>
	<path display="inline" fill-rule="evenodd" clip-rule="evenodd" fill="#FFFFFF" d="M111.329,79.775
		c7.858,2.08,15.113,12.855,15.672,23.083c0.577,10.521-6.248,21.705-15.684,25.335c2.497-6.615,3.622-13.32,4.002-20.332
		c1.286-0.064,2.521-0.127,3.835-0.193c0-2.503,0-4.904,0-7.541c-1.242,0-2.473,0-3.808,0
		C114.902,93.048,113.879,86.299,111.329,79.775z"/>
	<path display="inline" fill-rule="evenodd" clip-rule="evenodd" fill="#FFFFFF" d="M92.271,107.855c5.31,0,10.252,0,15.695,0
		c-0.746,4.31-1.21,8.507-2.259,12.553c-0.773,2.982-2.094,5.885-3.574,8.605c-1.348,2.475-2.735,2.386-4.304,0.042
		c-2.915-4.355-4.002-9.343-4.795-14.404C92.688,112.448,92.53,110.217,92.271,107.855z"/>
</g>
<g id="graphicdesign" display="none">
	<path display="inline" fill-rule="evenodd" clip-rule="evenodd" d="M30.305,74.452c6.399,0,12.571,0,18.872,0
		c0,27.442,0,54.773,0,82.287c-6.183,0-12.432,0-18.641,0c0,2.781-0.273,5.417,0.079,7.967c0.335,2.425,2.146,3.954,4.556,4.545
		c0.852,0.209,1.765,0.229,2.65,0.229c41.462,0.01,82.924,0.012,124.386-0.008c1.073,0,2.197-0.087,3.21-0.408
		c2.718-0.861,4.258-3.249,4.266-6.441c0.018-6.679,0.006-13.359,0.006-20.038c0-24.343,0-48.686,0-73.029
		c0-5.095-1.712-7.078-6.71-7.776c-1.745-0.244-2.901-1.681-2.768-3.438c0.127-1.673,1.395-2.801,3.199-2.848
		c6.477-0.165,12.282,5.351,12.576,11.953c0.024,0.543,0.016,1.088,0.016,1.632c0,31.022,0.001,62.044,0,93.067
		c0,8.353-5.277,13.656-13.591,13.656c-41.61,0.001-83.221,0.001-124.832,0c-8.251,0-13.581-5.303-13.581-13.512
		c-0.001-31.22-0.005-62.439,0.003-93.659c0.002-6.556,4.051-11.658,10.238-12.917c0.865-0.176,1.77-0.217,2.656-0.217
		c20.879-0.012,41.759-0.012,62.638,0.001c0.581,0,1.2,0.063,1.734,0.271c1.286,0.498,2.047,1.895,1.87,3.224
		c-0.193,1.444-1.263,2.569-2.697,2.768c-0.535,0.073-1.086,0.039-1.63,0.039c-20.385,0.001-40.77,0-61.154,0.002
		c-4.91,0-7.344,2.458-7.351,7.416C30.303,70.89,30.305,72.565,30.305,74.452z M42.929,80.877c-4.196,0-8.278,0-12.416,0
		c0,6.32,0,12.563,0,18.848c4.187,0,8.267,0,12.416,0C42.929,93.437,42.929,87.225,42.929,80.877z M30.526,106.194
		c0,6.317,0,12.556,0,18.816c4.197,0,8.274,0,12.399,0c0-6.308,0-12.519,0-18.816C38.775,106.194,34.696,106.194,30.526,106.194z
		 M42.911,150.422c0-6.376,0-12.59,0-18.845c-4.168,0-8.249,0-12.363,0c0,6.324,0,12.561,0,18.845
		C34.727,150.422,38.766,150.422,42.911,150.422z"/>
	<path display="inline" fill-rule="evenodd" clip-rule="evenodd" d="M55.781,68.105c0.605,0,1.089,0,1.573,0
		c9.696,0,19.393-0.003,29.089,0.008c0.587,0,1.195,0.033,1.758,0.182c1.425,0.378,2.329,1.643,2.292,3.083
		c-0.036,1.383-0.932,2.574-2.308,2.92c-0.613,0.155-1.271,0.18-1.908,0.181c-7.42,0.012-14.841,0.008-22.262,0.008
		c-0.592,0-1.184,0-1.896,0c0,27.435,0,54.8,0,82.24c31.563,0,63.107,0,94.767,0c0-27.352,0-54.718,0-82.24
		c-1.903,0-3.769,0.014-5.635-0.004c-2.291-0.021-3.71-1.217-3.748-3.123c-0.039-1.967,1.415-3.241,3.766-3.25
		c3.946-0.015,7.893-0.004,11.938-0.004c0,31.69,0,63.227,0,94.884c-35.774,0-71.552,0-107.427,0
		C55.781,131.425,55.781,99.887,55.781,68.105z"/>
	<path display="inline" fill-rule="evenodd" clip-rule="evenodd" d="M166.186,37.228c-0.076,3.278-1.549,6.374-4.203,9.021
		c-17.897,17.859-35.791,35.722-53.605,53.663c-1.947,1.961-4.015,3.296-6.663,4.056c-4.935,1.416-9.807,3.054-14.686,4.66
		c-0.763,0.251-1.517,0.718-2.107,1.266c-1.594,1.48-3.08,3.077-4.643,4.592c-1.491,1.446-3.481,1.489-4.745,0.156
		c-1.227-1.294-1.114-3.172,0.28-4.643c0.068-0.071,0.133-0.149,0.211-0.208c4.232-3.238,6.467-7.619,7.705-12.729
		c0.939-3.878,2.319-7.652,3.557-11.455c0.188-0.579,0.595-1.139,1.032-1.576c17.199-17.229,34.413-34.442,51.627-51.654
		c1.574-1.575,3.106-3.198,4.762-4.683c4.125-3.701,8.862-4.401,13.938-2.395C163.234,27.111,166.176,31.744,166.186,37.228z
		 M124.561,57.226c-9.796,9.794-19.61,19.607-29.313,29.307c2.804,2.805,5.728,5.729,8.46,8.462
		c9.718-9.724,19.524-19.534,29.297-29.312C130.281,62.954,127.416,60.085,124.561,57.226z M142.381,39.32
		c-4.391,4.389-8.817,8.814-13.156,13.151c2.84,2.84,5.766,5.767,8.594,8.595c4.346-4.341,8.774-8.763,13.141-13.124
		C148.121,45.09,145.203,42.156,142.381,39.32z M155.921,43.362c0.868-0.921,1.921-1.835,2.722-2.933
		c1.453-1.993,1.61-4.214,0.528-6.431c-1.09-2.234-2.957-3.333-5.44-3.46c-3.178-0.163-4.994,1.899-6.735,3.902
		C149.976,37.418,152.895,40.337,155.921,43.362z M97.542,98.583c-1.963-1.963-3.899-3.898-5.841-5.841
		c-0.856,2.709-1.75,5.537-2.708,8.569C92.077,100.327,94.875,99.435,97.542,98.583z"/>
</g>
<g id="effects" display="none">
	<path display="inline" fill-rule="evenodd" clip-rule="evenodd" d="M122.16,144.397c-4.595,5.607-9.01,10.996-13.425,16.384
		c-2.587,3.157-5.165,6.322-7.765,9.468c-4.549,5.507-11.998,7.317-18.622,4.544c-6.558-2.746-10.703-9.709-9.911-16.651
		c0.818-7.17,6.137-13.033,13.037-14.336c5.941-1.123,10.944,0.72,15.243,4.99c0.29-0.305,0.569-0.556,0.798-0.846
		c4.306-5.484,8.589-10.985,12.926-16.444c0.62-0.781,0.659-1.354,0.211-2.242c-4.72-9.353-9.402-18.725-14.055-28.112
		c-0.461-0.93-0.982-1.305-2.056-1.301c-11.453,0.042-22.906,0.042-34.359,0c-1.148-0.004-1.517,0.394-1.76,1.469
		c-5.518,24.404-11.075,48.799-16.628,73.196c-0.112,0.495-0.254,0.982-0.394,1.521c-7.179,0-14.314,0-21.654,0
		c5.636-25.348,11.255-50.622,16.915-76.079c-5.649,0-11.169,0-16.821,0c0-5.503,0-10.845,0-16.36c6.804,0,13.58,0,20.474,0
		c1.431-6.482,2.896-12.813,4.217-19.174c2.36-11.355,6.903-21.553,15.518-29.603c6.924-6.47,15.245-9.92,24.606-10.728
		c3.343-0.288,6.862-0.386,10.101,0.333c6.754,1.497,11.52,7.599,11.979,14.417c0.466,6.898-3.417,13.321-9.742,16.11
		c-6.263,2.762-13.478,1.293-18.275-3.728c-0.347-0.363-0.655-0.762-1.273-1.487c-2.038,2.145-4.096,4.007-5.788,6.157
		c-3.021,3.838-4.831,8.283-5.866,13.059c-1.042,4.807-2.17,9.595-3.318,14.64c0.802,0,1.454,0,2.105,0
		c15.251,0,30.503,0.025,45.755-0.04c1.485-0.007,2.166,0.491,2.795,1.773c3.964,8.084,8.018,16.126,12.046,24.18
		c0.272,0.544,0.577,1.071,0.964,1.785c0.462-0.53,0.835-0.922,1.168-1.347c5.249-6.689,10.473-13.398,15.743-20.07
		c4.848-6.139,12.985-8.007,19.874-4.62c6.978,3.431,10.594,11.215,8.665,18.654c-1.946,7.509-8.756,12.597-16.509,12.285
		c-3.875-0.156-7.228-1.695-10.279-4.248c-1.04,1.252-2.014,2.413-2.975,3.583c-2.553,3.112-5.084,6.242-7.664,9.331
		c-0.575,0.689-0.727,1.222-0.288,2.094c3.851,7.636,7.606,15.319,11.471,22.946c1.697,3.35,5.497,5.032,9.371,4.37
		c3.441-0.588,5.548-2.928,6.201-6.938c0.198-1.219,0.313-2.451,0.478-3.767c3.498,0,6.986,0,10.858,0
		c-0.282,3.243-0.456,6.442-0.861,9.614c-0.57,4.468-1.814,8.754-4.049,12.706c-4.22,7.461-11.428,10.98-19.948,10.114
		c-8.237-0.837-14.516-4.777-18.687-11.744c-3.455-5.771-6.361-11.872-9.508-17.828C122.886,145.827,122.583,145.222,122.16,144.397
		z"/>
</g>
</svg>
