<?xml version="1.0" encoding="utf-8"?>
<!-- Generator: Adobe Illustrator 16.0.0, SVG Export Plug-In . SVG Version: 6.00 Build 0)  -->
<!DOCTYPE svg PUBLIC "-//W3C//DTD SVG 1.1//EN" "http://www.w3.org/Graphics/SVG/1.1/DTD/svg11.dtd">
<svg version="1.1" id="Layer_1" xmlns="http://www.w3.org/2000/svg" xmlns:xlink="http://www.w3.org/1999/xlink" x="0px" y="0px"
	 width="262px" height="141px" viewBox="0 0 262 141" enable-background="new 0 0 262 141" xml:space="preserve">
<g>
	<polygon fill="#FFFFFF" points="110.242,78.986 129.705,78.986 129.705,59.684 129.609,59.684 129.609,30.277 129.463,30.616 	"/>
	<path fill="#FFFFFF" d="M11.703,10.567v122.618H248V10.567H11.703z M221.17,44.818v14.504v54.227h-18.214V94.717h-30.398v18.832
		h-18.215V95.678h-6.428v17.871h-18.21V95.678H82.836l20.177-48.906h-2.987v0.087h-4.768H77.688v66.69H59.359v-66.69H36.973V30.277
		h43.58h19.473h9.791l0.146-0.361l19.742,0.105l-0.105,0.256h0.01h18.292v16.325h0.014v32.384h6.428V59.322V44.818V29.916h18.288
		v29.406h-0.073v18.818h30.398V59.322h-0.078V29.916h18.292V44.818z"/>
</g>
</svg>
