<?xml version="1.0" encoding="utf-8"?>
<!-- Generator: Adobe Illustrator 16.0.0, SVG Export Plug-In . SVG Version: 6.00 Build 0)  -->
<!DOCTYPE svg PUBLIC "-//W3C//DTD SVG 1.1//EN" "http://www.w3.org/Graphics/SVG/1.1/DTD/svg11.dtd">
<svg version="1.1" id="Layer_1" xmlns="http://www.w3.org/2000/svg" xmlns:xlink="http://www.w3.org/1999/xlink" x="0px" y="0px"
	 width="286.5px" height="160px" viewBox="0 0 286.5 160" enable-background="new 0 0 286.5 160" xml:space="preserve">
<g>
	<polygon fill="#FFFFFF" points="116.108,102.908 116.065,103.02 113.315,103.02 107.848,103.02 95.606,103.02 95.606,108.104 
		101.895,108.104 101.895,128.558 107.044,128.558 107.044,108.104 111.979,108.104 113.315,108.104 113.315,108.076 
		114.155,108.076 108.488,123.076 121.654,123.076 121.654,128.558 126.772,128.558 126.772,123.076 128.576,123.076 
		128.576,128.558 133.692,128.558 133.692,122.783 142.23,122.783 142.23,128.558 147.351,128.558 147.351,111.926 147.351,107.479 
		147.351,102.908 142.212,102.908 142.212,111.926 142.23,111.926 142.23,117.693 133.692,117.693 133.692,111.926 133.713,111.926 
		133.713,102.908 128.576,102.908 128.576,107.479 128.576,111.926 128.576,117.959 126.772,117.959 126.772,108.023 
		126.765,108.023 126.765,103.02 121.629,103.02 121.629,112.035 121.654,112.035 121.654,117.959 116.189,117.959 121.589,103.124 
		121.629,103.02 121.625,103.02 121.654,102.939 	"/>
	<path fill="#FFFFFF" d="M220.484,84.525c-4.302,0-8.464,0.584-12.421,1.651c-6.728-17.909-24.052-30.663-44.371-30.663
		c-0.061,0-0.118,0.004-0.178,0.004c-1.947-22.024-20.495-39.298-43.1-39.298c-23.902,0-43.279,19.31-43.279,43.132
		c0,0.498,0.023,0.991,0.039,1.485c-0.014,0-0.027,0-0.039,0c-31.815,0-57.605,26.563-57.605,59.33
		c0,8.394,1.702,16.372,4.752,23.61h60.536v-30.045l-8.701,8.439l-7.045-7.266l53.194-51.572l0.295,0.302l0.294-0.302l16.597,16.091
		V61.782h14.196v31.402l22.401,21.721l-7.047,7.268l-8.877-8.611v30.219h106.167c1.015-3.846,1.562-7.885,1.562-12.045
		C267.848,105.658,246.642,84.525,220.484,84.525z"/>
</g>
</svg>
