<?xml version="1.0" encoding="utf-8"?>
<!-- Generator: Adobe Illustrator 16.0.0, SVG Export Plug-In . SVG Version: 6.00 Build 0)  -->
<!DOCTYPE svg PUBLIC "-//W3C//DTD SVG 1.1//EN" "http://www.w3.org/Graphics/SVG/1.1/DTD/svg11.dtd">
<svg version="1.1" id="Layer_1" xmlns="http://www.w3.org/2000/svg" xmlns:xlink="http://www.w3.org/1999/xlink" x="0px" y="0px"
	 width="924px" height="286px" viewBox="0 0 924 286" enable-background="new 0 0 924 286" xml:space="preserve">
<path fill="#FFFFFF" d="M151.424,18.611c7.485,1.358,15.163,2.055,22.422,4.181c49.753,14.571,81.377,47.079,91.431,97.964
	c11.995,60.7-20.619,118.253-77.88,140.906c-14.675,5.803-29.953,8.061-45.82,8.107c-23.007,0.074-44.282-5.593-63.719-17.515
	c-33.955-20.828-54.029-51.129-60.053-90.604c-0.414-2.719-0.844-5.437-1.268-8.153c0-6.024,0-12.051,0-18.076
	c0.692-4.563,1.34-9.131,2.082-13.685c7.618-46.748,45.755-87.928,91.906-98.992c7.506-1.8,15.209-2.776,22.822-4.133
	C139.372,18.611,145.398,18.611,151.424,18.611z M127.431,262.227c-1.397-0.504-2.785-1.041-4.195-1.511
	c-29.282-9.739-45.747-37.14-40.651-67.671c4.139-24.791,25.903-45.32,50.938-47.939c6.089-0.64,12.295-0.5,18.296-1.569
	c26.869-4.792,46.868-27.247,48.747-55.251c1.722-25.653-13.445-50.106-38.929-59.65c-13.602-5.094-27.478-4.344-41.387-1.795
	C54.217,38.939,10.682,101.503,23.785,166.766c8.631,42.981,34.196,72.704,74.848,89.227
	C107.843,259.734,117.457,262.143,127.431,262.227z M141.434,187.359c0,14.722,0,28.893,0,43.319c-3.726,0-7.183,0.007-10.64-0.004
	c-2.711-0.009-4.23,1.476-4.134,4.033c0.087,2.319,1.501,3.743,4.095,3.731c9.841-0.037,19.684-0.037,29.526,0
	c2.543,0.012,4.15-1.285,4.214-3.638c0.179-6.595,0.266-13.21-0.135-19.784c-0.079-1.287-2.428-3.209-3.902-3.383
	c-1.123-0.134-2.759,1.871-3.703,3.243c-0.559,0.812-0.264,2.241-0.27,3.394c-0.023,4.021-0.009,8.041-0.009,12.229
	c-2.395,0-4.42,0-6.918,0c0-17.077,0-34.02,0-51.24c-6.353,0-12.237-0.037-18.119,0.018c-2.663,0.024-4.464,1.177-4.457,4.138
	c0.007,3.088,2.063,3.878,4.619,3.929C134.822,187.407,138.045,187.359,141.434,187.359z"/>
<path fill="#FFFFFF" d="M652.774,60.066c13.505,0.382,26.929-0.986,40.18,2.06c12.997,2.988,21.129,11.215,23.524,24.035
	c2.096,11.206,3.262,22.671,3.766,34.07c1.036,23.375,1.087,46.778-1.501,70.089c-0.444,4.009-1.313,7.994-2.304,11.908
	c-3.688,14.535-13.486,22.519-28.005,24.049c-11.702,1.23-23.541,1.176-35.66,1.707C652.774,171.768,652.774,116.244,652.774,60.066
	z M677.273,84.856c0,39.445,0,78.645,0,117.824c9.938,0.776,14.098-2.014,15.962-11.468c1.091-5.534,1.702-11.242,1.759-16.881
	c0.205-20.383,0.193-40.77,0.008-61.153c-0.051-5.527-0.619-11.119-1.632-16.555C691.585,87.032,687.377,84.126,677.273,84.856z"/>
<path fill="#FFFFFF" d="M504.861,227.301c-7.57,0-14.933,0-22.684,0c0-2.402,0-4.65,0-7.636c-1.366,1.006-2.111,1.603-2.903,2.132
	c-3.065,2.057-5.977,4.432-9.257,6.063c-6.344,3.158-13.361,1.322-17.737-4.256c-4.074-5.196-6.085-11.162-6.096-17.73
	c-0.041-27.115-0.039-54.23,0.001-81.345c0.01-5.929,1.646-11.452,4.992-16.369c4.732-6.951,12.371-9.051,19.798-5.122
	c3.742,1.979,7.089,4.704,10.929,7.304c0-16.618,0-33.123,0-49.934c7.817,0,15.27,0,22.955,0
	C504.861,115.994,504.861,171.548,504.861,227.301z M469.12,165.328c0,6.016-0.006,12.029,0.001,18.045
	c0.008,5.898-0.089,11.802,0.087,17.695c0.113,3.754,2.768,6.512,5.864,6.617c3.092,0.107,6.078-2.455,6.709-5.908
	c0.246-1.353,0.281-2.76,0.281-4.143c0.016-21.631,0.018-43.262-0.004-64.893c0-1.38-0.037-2.795-0.336-4.133
	c-0.761-3.428-3.832-5.929-6.853-5.761c-3.131,0.174-5.441,2.879-5.708,6.736c-0.071,1.037-0.041,2.081-0.042,3.122
	C469.119,143.581,469.12,154.455,469.12,165.328z"/>
<path fill="#FFFFFF" d="M359.137,117.262c-7.667,0-15.038,0-22.776,0c0-7.429,0.133-14.699-0.069-21.959
	c-0.075-2.718-0.62-5.521-1.506-8.096c-1.172-3.406-3.938-4.994-7.574-4.982c-3.577,0.011-6.073,1.845-7.146,5.054
	c-0.939,2.807-1.647,5.846-1.658,8.786c-0.115,31.981-0.148,63.962,0.044,95.945c0.019,3.313,1.05,6.938,2.644,9.85
	c2.867,5.24,10.636,4.896,13.295-0.508c1.228-2.494,1.788-5.519,1.883-8.326c0.251-7.492,0.086-15.002,0.086-22.683
	c7.694,0,15.066,0,22.713,0c0.082,0.822,0.275,1.704,0.239,2.577c-0.423,10.159,0.42,20.585-1.596,30.421
	c-4.482,21.896-22.454,30.353-42.765,24.167c-12.432-3.783-17.701-14.185-20.203-26.103c-0.707-3.368-0.866-6.898-0.874-10.357
	c-0.063-31.518-0.012-63.036-0.054-94.555c-0.011-7.66,1.462-14.897,4.928-21.784c5.377-10.682,14.178-15.858,25.869-16.393
	c12.135-0.556,22,3.628,28.562,14.301c3.463,5.633,5.575,11.815,5.866,18.347C359.427,99.615,359.137,108.296,359.137,117.262z"/>
<path fill="#FFFFFF" d="M543.441,169.396c0,10.397,0,20.315,0.002,30.236c0,0.113,0.028,0.229,0.049,0.344
	c1.136,6.239,4.135,9.412,8.592,9.09c4.346-0.314,7.127-4.041,7.456-10.184c0.144-2.658,0.069-5.326,0.08-7.992
	c0.011-2.527,0.001-5.055,0.001-8.064c3.719,0,7.15,0,10.582,0c3.457,0,6.914,0,10.747,0c0.353,14.768,1.359,29.371-11.078,40.343
	c-12.63,11.142-35.277,7.451-42.93-7.506c-2.766-5.404-4.787-11.817-4.926-17.82c-0.514-22.337-0.305-44.698,0.069-67.042
	c0.135-8.047,3.68-15.007,8.754-21.44c9.71-12.313,38.915-12.232,46.624,8.347c1.992,5.32,3.209,11.176,3.474,16.846
	c0.527,11.436,0.155,22.911,0.155,34.845C568.405,169.396,555.872,169.396,543.441,169.396z M543.615,151.198
	c5.209,0,10.481,0,16.014,0c0-5.28,0.272-10.368-0.088-15.411c-0.273-3.837-0.815-7.827-2.216-11.361
	c-1.44-3.64-7.38-4.59-10.071-1.748c-1.722,1.82-3.322,4.516-3.477,6.915C543.324,136.693,543.615,143.844,543.615,151.198z"/>
<path fill="#FFFFFF" d="M430.961,165.223c0,10.305,0.053,20.608-0.019,30.912c-0.048,6.805-1.375,13.344-4.736,19.344
	c-6.096,10.885-15.69,14.782-27.717,13.779c-11.122-0.927-19.053-6.568-22.896-16.912c-2.019-5.43-3.33-11.43-3.45-17.201
	c-0.412-19.791-0.232-39.595-0.12-59.394c0.043-7.479,1.479-14.701,5.269-21.322c6.176-10.798,15.757-14.29,27.62-13.13
	c10.799,1.056,18.604,6.519,22.456,16.536c2.032,5.287,3.142,11.156,3.441,16.828C431.349,144.823,430.961,155.033,430.961,165.223z
	 M409.389,165.364c-0.005,0-0.01,0-0.014,0c0-10.776,0.094-21.556-0.068-32.327c-0.038-2.596-0.655-5.268-1.485-7.744
	c-0.999-2.979-3.553-4.139-6.595-4.111c-2.984,0.027-5.175,1.499-6.12,4.28c-0.772,2.271-1.496,4.701-1.509,7.064
	c-0.095,21.436-0.092,42.871,0.066,64.308c0.02,2.807,0.823,5.691,1.727,8.386c0.896,2.679,3.229,3.853,6.026,3.853
	c2.931,0,5.325-1.286,6.359-4.002c0.885-2.327,1.506-4.903,1.543-7.379C409.481,186.916,409.389,176.141,409.389,165.364z"/>
<path fill="#FFFFFF" d="M793.202,165.275c0,12.492,0.239,24.99-0.147,37.47c-0.113,3.673-1.576,7.487-3.149,10.901
	c-5.386,11.685-14.995,16.701-28.988,15.578c-11.664-0.937-20.414-8.197-23.87-20.498c-1.3-4.621-2.061-9.543-2.118-14.342
	c-0.231-19.447-0.146-38.9-0.071-58.353c0.028-7.736,1.502-15.16,5.479-21.96c6.216-10.63,15.768-13.93,27.465-12.772
	c10.649,1.053,18.43,6.418,22.301,16.258c2.115,5.375,3.264,11.372,3.586,17.157c0.563,10.159,0.156,20.37,0.156,30.559
	C793.629,165.275,793.416,165.275,793.202,165.275z M772.264,164.971c-0.004,0-0.01,0-0.017,0c0-10.66,0.13-21.322-0.086-31.979
	c-0.059-2.798-0.932-5.663-1.884-8.336c-0.981-2.753-3.658-3.91-6.219-3.328c-2.115,0.481-4.552,1.883-5.713,3.631
	c-1.314,1.978-1.873,4.792-1.888,7.246c-0.125,21.784-0.123,43.569,0.039,65.354c0.02,2.676,0.729,5.574,1.922,7.971
	c2.412,4.848,9.34,4.896,11.818,0.072c1.221-2.369,1.887-5.274,1.938-7.955C772.388,186.759,772.264,175.863,772.264,164.971z"/>
<path fill="#FFFFFF" d="M906.509,165.448c0,11.587,0.003,23.175,0,34.76c-0.005,14.571-9.907,26.742-23.48,28.868
	c-15.705,2.462-28.177-5.149-32.608-20.317c-1.284-4.393-2.075-9.087-2.127-13.655c-0.229-19.812-0.171-39.627-0.063-59.44
	c0.042-7.611,1.557-14.934,5.49-21.626c6.244-10.625,15.816-13.906,27.514-12.729c10.656,1.072,18.304,6.508,22.299,16.321
	c1.741,4.278,2.685,9.128,2.847,13.759C906.777,142.729,906.509,154.092,906.509,165.448z M885.634,165.165
	c-0.009,0-0.017,0-0.024,0c0-10.776,0.131-21.556-0.09-32.327c-0.059-2.793-0.725-5.811-1.975-8.29
	c-2.398-4.761-9.453-4.625-11.805,0.177c-1.135,2.316-1.897,5.073-1.914,7.635c-0.135,21.669-0.121,43.339,0.035,65.005
	c0.02,2.685,0.575,5.699,1.926,7.935c1.063,1.757,3.595,3.113,5.717,3.612c2.633,0.622,5.159-0.835,6.213-3.424
	c0.979-2.409,1.787-5.077,1.833-7.646C885.748,186.951,885.634,176.059,885.634,165.165z"/>
<path fill="#FFFFFF" d="M795.77,248.055c1.306,0.161,2.199,0.245,3.084,0.385c5.85,0.922,8.74-1.047,9.729-6.961
	c0.434-2.608,0.542-5.299,0.543-7.953c0.033-42.049,0.023-84.099,0.023-126.148c0-1.368,0-2.736,0-4.325c7.645,0,15.008,0,22.811,0
	c0.049,1.127,0.148,2.341,0.148,3.556c0.007,41.817,0.136,83.636-0.119,125.453c-0.045,7.32-0.941,14.836-2.806,21.9
	c-2.793,10.589-10.469,15.65-21.323,15.648c-3.127,0-6.268,0.145-9.376-0.099c-0.946-0.073-2.575-1.188-2.597-1.868
	C795.689,261.191,795.77,254.734,795.77,248.055z"/>
<path fill="#FFFFFF" d="M619.377,227.398c-7.84,0-15.121,0-22.684,0c0-41.449,0-82.801,0-124.361c7.382,0,14.739,0,22.551,0
	c0,3.775,0,7.603,0,12.004c8.504-11.143,13.563-14.121,22.871-13.637c0,8.255,0,16.524,0,24.759
	c-2.516-0.151-4.924-0.456-7.326-0.412c-9.259,0.169-15.391,6.373-15.4,15.602c-0.03,27.206-0.012,54.413-0.012,81.617
	C619.377,224.333,619.377,225.698,619.377,227.398z"/>
<path fill="#FFFFFF" d="M809.363,60.28c7.511,0,14.865,0,22.485,0c0,7.441,0,14.882,0,22.573c-7.398,0-14.835,0-22.485,0
	C809.363,75.327,809.363,67.896,809.363,60.28z"/>
<path fill="#FFFFFF" d="M159.22,74.203c0.004,7.172,0.056,14.345-0.014,21.517c-0.049,5.089-2.645,7.679-7.684,7.716
	c-7.172,0.054-14.344,0.05-21.517,0.001c-4.716-0.032-7.689-2.782-7.718-7.443c-0.088-14.459-0.084-28.921-0.008-43.38
	c0.025-4.664,2.969-7.517,7.644-7.568c7.287-0.081,14.577-0.077,21.864-0.002c4.687,0.048,7.343,2.641,7.404,7.295
	C159.285,59.625,159.215,66.915,159.22,74.203z M151.984,52.389c-6.943,0-13.635-0.089-20.317,0.117
	c-0.811,0.025-2.244,1.645-2.253,2.537c-0.14,13.65-0.122,27.304-0.009,40.955c0.006,0.794,1.116,2.25,1.738,2.266
	c6.905,0.164,13.816,0.103,20.841,0.103C151.984,82.872,151.984,67.782,151.984,52.389z"/>
</svg>
